<?xml version="1.0" standalone="no"?>
<!DOCTYPE svg PUBLIC "-//W3C//DTD SVG 1.1//EN" "http://www.w3.org/Graphics/SVG/1.1/DTD/svg11.dtd" >
<svg xmlns="http://www.w3.org/2000/svg" xmlns:xlink="http://www.w3.org/1999/xlink" version="1.1">
<metadata>
Created by FontForge 20170731 at Fri Oct 18 22:11:18 2013
 By Aleksey,,,
Copyright (c) 2012 by Toni Hurme. All rights reserved. wf-rip
</metadata>
<defs>
<font id="HurmeGeometricSans3-Light" horiz-adv-x="585" >
  <font-face 
    font-family="Hurme Geometric Sans 3 Light"
    font-weight="300"
    font-stretch="normal"
    units-per-em="1000"
    panose-1="2 11 4 0 2 0 0 0 0 0"
    ascent="800"
    descent="-200"
    x-height="504"
    cap-height="697"
    bbox="-54 -213 1095 1028"
    underline-thickness="44"
    underline-position="-278"
    unicode-range="U+000D-FB04"
  />
<missing-glyph horiz-adv-x="712" 
d="M712 0h-712v697h712v-697zM42 655v-613h628v613h-628zM151 114l-29 29l205 205l-205 206l29 29l205 -206l205 206l29 -29l-205 -206l205 -205l-29 -29l-205 205z" />
    <glyph glyph-name="ff" unicode="ff" horiz-adv-x="537" 
d="M159 0h-50v457h-78v47h78v47q0 158 140 158q27 0 39 -4v-46q-15 4 -44 4q-44 0 -64.5 -25.5t-20.5 -80.5v-53h184v47q0 158 140 158q27 0 39 -4v-46q-15 4 -44 4q-44 0 -64.5 -25.5t-20.5 -80.5v-53h112v-47h-112v-457h-50v457h-184v-457z" />
    <glyph glyph-name="fi" unicode="fi" horiz-adv-x="454" 
d="M159 0h-50v457h-78v47h78v47q0 90 45 129q37 29 107 29q31 0 47 -4v-46q-17 4 -52 4q-50 0 -73.5 -25.5t-23.5 -80.5v-53h234v-504h-50v457h-184v-457z" />
    <glyph glyph-name="fl" unicode="fl" horiz-adv-x="479" 
d="M159 0h-50v457h-78v47h78v47q0 90 45 129q34 29 95 29q27 0 39 -4v-46q-15 4 -44 4q-44 0 -64.5 -25.5t-20.5 -80.5v-53h112v-47h-112v-457zM418 0h-50v697h50v-697z" />
    <glyph glyph-name="ffi" unicode="ffi" horiz-adv-x="688" 
d="M159 0h-50v457h-78v47h78v47q0 158 140 158q27 0 39 -4v-46q-15 4 -44 4q-44 0 -64.5 -25.5t-20.5 -80.5v-53h184v47q0 90 45 129q37 29 107 29q31 0 47 -4v-46q-17 4 -52 4q-50 0 -73.5 -25.5t-23.5 -80.5v-53h234v-504h-50v457h-184v-457h-50v457h-184v-457z" />
    <glyph glyph-name="ffl" unicode="ffl" horiz-adv-x="703" 
d="M159 0h-50v457h-78v47h78v47q0 158 140 158q27 0 39 -4v-46q-15 4 -44 4q-44 0 -64.5 -25.5t-20.5 -80.5v-53h184v47q0 158 140 158q27 0 39 -4v-46q-15 4 -44 4q-44 0 -64.5 -25.5t-20.5 -80.5v-53h112v-47h-112v-457h-50v457h-184v-457zM642 0h-50v697h50v-697z" />
    <glyph glyph-name="fj" unicode="fj" horiz-adv-x="453" 
d="M159 0h-50v457h-78v47h78v47q0 90 45 129q37 29 107 29q31 0 47 -4v-46q-17 4 -52 4q-50 0 -73.5 -25.5t-23.5 -80.5v-53h234v-561q0 -149 -135 -149q-20 0 -36 4v47q15 -4 41 -4q42 0 61 24t19 78v514h-184v-457z" />
    <glyph glyph-name="ffj" unicode="ffj" horiz-adv-x="687" 
d="M159 0h-50v457h-78v47h78v47q0 158 140 158q27 0 39 -4v-46q-15 4 -44 4q-44 0 -64.5 -25.5t-20.5 -80.5v-53h184v47q0 90 45 129q37 29 107 29q31 0 47 -4v-46q-17 4 -52 4q-50 0 -73.5 -25.5t-23.5 -80.5v-53h234v-561q0 -149 -135 -149q-20 0 -36 4v47q15 -4 41 -4
q42 0 61 24t19 78v514h-184v-457h-50v457h-184v-457z" />
    <glyph glyph-name=".notdef" horiz-adv-x="712" 
d="M712 0h-712v697h712v-697zM42 655v-613h628v613h-628zM151 114l-29 29l205 205l-205 206l29 29l205 -206l205 206l29 -29l-205 -206l205 -205l-29 -29l-205 205z" />
    <glyph glyph-name=".null" horiz-adv-x="0" 
 />
    <glyph glyph-name="nonmarkingreturn" horiz-adv-x="333" 
 />
    <glyph glyph-name="NULL" horiz-adv-x="0" 
 />
    <glyph glyph-name="NULL" horiz-adv-x="0" 
 />
    <glyph glyph-name="CR" unicode="&#xd;" horiz-adv-x="0" 
 />
    <glyph glyph-name="space" unicode=" " horiz-adv-x="412" 
 />
    <glyph glyph-name="exclam" unicode="!" horiz-adv-x="223" 
d="M133 155h-42l-11 542h63zM112 62q14 0 25 -10.5t11 -25.5t-11 -25.5t-25 -10.5t-25 10.5t-11 25.5t10.5 25.5t25.5 10.5z" />
    <glyph glyph-name="quotedbl" unicode="&#x22;" horiz-adv-x="250" 
d="M194 445h-34l-9 252h52zM91 445h-35l-8 252h52z" />
    <glyph glyph-name="numbersign" unicode="#" horiz-adv-x="532" 
d="M140 127h-47l27 107h-89v42h100l36 139h-91v42h102l26 105h47l-27 -105h140l27 105h46l-26 -105h90v-42h-101l-35 -139h92v-42h-103l-27 -107h-47l27 107h-140zM213 415l-35 -139h140l36 139h-141z" />
    <glyph glyph-name="dollar" unicode="$" horiz-adv-x="530" 
d="M39 151l49 22q44 -120 157 -134v318q-85 39 -123 79q-39 40 -39 113q0 67 45 110q47 46 117 50v98h44v-99q102 -12 149 -99l-44 -23q-34 62 -105 73v-267q105 -47 149 -92q45 -45 45 -126t-52 -131t-142 -54v-96h-44v98q-151 14 -206 160zM245 412v249
q-49 -4 -79.5 -34.5t-30.5 -77.5q0 -49 25 -78.5t85 -58.5zM289 337v-299q71 4 106.5 42t35.5 94q0 58 -31 92.5t-111 70.5z" />
    <glyph glyph-name="percent" unicode="%" horiz-adv-x="721" 
d="M306 442q-46 -46 -110 -46t-110 46t-46 110t46 110t110 46t110 -46t46 -110t-46 -110zM163 0h-54l451 697h54zM196 438q46 0 77 33q33 35 33 81q0 47 -33 80q-31 34 -77 34t-79 -34q-32 -34 -32 -80t32 -81q33 -33 79 -33zM635 34q-45 -45 -110 -45t-111 45
q-45 46 -45 111t45 110q46 46 111 46t110 -46q46 -45 46 -110t-46 -111zM525 31q45 0 77 33q33 34 33 81t-33 80q-31 34 -77 34t-79 -34q-32 -34 -32 -80t32 -81q33 -33 79 -33z" />
    <glyph glyph-name="ampersand" unicode="&#x26;" horiz-adv-x="732" 
d="M46 220q0 148 152 213q-30 55 -30 110q0 72 46 118q47 47 121 47q70 0 116 -44q46 -43 46 -109q0 -65 -46 -99h253v-47h-138v-53q0 -134 -40 -221l129 -135h-65l-90 93q-82 -105 -210 -105q-110 0 -177 64t-67 168zM328 343l158 -167q30 72 30 180v53h-157v32
q37 5 62.5 36t25.5 72q0 49 -32 80.5t-82 31.5q-47 0 -81 -32t-34 -86q0 -84 110 -200zM96 220q0 -85 52.5 -135t141.5 -50q117 0 174 95q-51 56 -100 106l-66 69q-37 38 -71 86q-131 -51 -131 -171z" />
    <glyph glyph-name="quotesingle" unicode="'" horiz-adv-x="147" 
d="M91 445h-35l-8 252h52z" />
    <glyph glyph-name="parenleft" unicode="(" horiz-adv-x="277" 
d="M299 -137l-26 -27q-223 196 -223 473t223 473l26 -27q-198 -187 -198 -446t198 -446z" />
    <glyph glyph-name="parenright" unicode=")" horiz-adv-x="277" 
d="M4 -164l-26 27q198 187 198 446t-198 446l26 27q223 -196 223 -473t-223 -473z" />
    <glyph glyph-name="asterisk" unicode="*" horiz-adv-x="409" 
d="M205 521l-75 -100l-32 24l80 96l-119 39l14 37l115 -45l-3 125h40l-3 -125l115 45l14 -37l-119 -39l80 -96l-32 -24z" />
    <glyph glyph-name="plus" unicode="+" horiz-adv-x="391" 
d="M221 190h-51v135h-124v47h124v134h51v-134h124v-47h-124v-135z" />
    <glyph glyph-name="comma" unicode="," horiz-adv-x="188" 
d="M18 -128h-42l94 239h67z" />
    <glyph glyph-name="hyphen" unicode="-" horiz-adv-x="350" 
d="M306 239h-261v47h261v-47z" />
    <glyph glyph-name="period" unicode="." horiz-adv-x="171" 
d="M86 -5q-15 0 -25.5 10.5t-10.5 25.5t11 25.5t25 10.5t25 -10.5t11 -25.5t-11 -25.5t-25 -10.5z" />
    <glyph glyph-name="slash" unicode="/" horiz-adv-x="406" 
d="M52 -136h-47l312 859h49z" />
    <glyph glyph-name="zero" unicode="0" horiz-adv-x="554" 
d="M507 500q3 -32 3 -151q0 -121 -3 -152q-9 -91 -75 -151q-65 -59 -155 -59q-89 0 -156 59q-65 61 -74 151q-3 31 -3 152q0 119 3 151q9 92 74 151q67 59 156 59q90 0 155 -59q66 -58 75 -151zM455 200q3 30 3 149q0 118 -3 148q-6 71 -57 118q-52 47 -121 47t-121 -47
q-51 -47 -57 -118q-3 -30 -3 -148q0 -119 3 -149q6 -72 57 -118q52 -47 121 -47t121 47q51 46 57 118z" />
    <glyph glyph-name="one" unicode="1" horiz-adv-x="282" 
d="M190 0h-52v649h-104v48h156v-697z" />
    <glyph glyph-name="two" unicode="2" horiz-adv-x="497" 
d="M459 0h-442v35l323 362q51 59 51 122q0 59 -43 99q-42 42 -101 42t-102 -43q-42 -42 -42 -101h-51q0 80 57 137t138 57t138 -57q58 -55 58 -135q0 -81 -66 -156l-282 -314h364v-48z" />
    <glyph glyph-name="three" unicode="3" horiz-adv-x="554" 
d="M15 135l45 21q22 -55 77 -87t128 -32q85 0 140 50q55 51 55 132q0 77 -55 126q-55 50 -142 50q-45 0 -79 -12l-19 35l234 231h-319v48h399v-35l-232 -227q9 4 37 4q96 0 161 -63q65 -62 65 -157q0 -104 -70 -168q-68 -64 -175 -64q-88 0 -155.5 40t-94.5 108z" />
    <glyph glyph-name="four" unicode="4" horiz-adv-x="562" 
d="M428 166h-377v35l245 496h57l-239 -482h314v164h53v-379h-53v166z" />
    <glyph glyph-name="five" unicode="5" horiz-adv-x="547" 
d="M30 131l46 21q22 -52 72 -83.5t109 -31.5q82 0 138 55q58 55 58 135q0 79 -54 135t-133 56q-84 0 -143 -54l-38 9l58 324h311v-48h-267l-39 -217q49 36 118 36q104 0 172 -71t68 -166q0 -107 -72 -176q-73 -68 -177 -68q-75 0 -136.5 39t-90.5 105z" />
    <glyph glyph-name="six" unicode="6" horiz-adv-x="562" 
d="M44 228q0 18 5 43q10 44 30 79l21 36l28 42q10 14 28 41l152 228h62l-176 -260q34 26 94 26q96 0 164 -68q69 -67 69 -166q0 -102 -70 -172q-69 -70 -168 -70t-170 69q-69 70 -69 172zM97 226q0 -80 53 -136q54 -54 133 -54q78 0 132 55q55 55 55 135q0 79 -55 133
q-54 55 -132 55q-81 0 -133 -54q-53 -55 -53 -134z" />
    <glyph glyph-name="seven" unicode="7" horiz-adv-x="542" 
d="M188 0h-58l316 649h-410v48h473v-37z" />
    <glyph glyph-name="eight" unicode="8" horiz-adv-x="534" 
d="M41 206q0 71 39 124.5t101 71.5q-39 17 -63 54.5t-24 82.5q0 71 50 121q52 50 123 50q72 0 122 -50q51 -50 51 -121q0 -45 -24 -82.5t-64 -54.5q62 -18 101.5 -71.5t39.5 -124.5q0 -90 -66 -155q-65 -64 -160 -64t-160 64q-66 65 -66 155zM267 418q49 0 86 35
q36 36 36 86q0 51 -36 86q-35 36 -86 36t-87 -36q-35 -35 -35 -86q0 -49 35 -86q37 -35 87 -35zM143 326q-50 -50 -50 -120q0 -71 50 -121q50 -49 124 -49t123 49q51 49 51 121q0 70 -51 120q-49 49 -123 49t-124 -49z" />
    <glyph glyph-name="nine" unicode="9" horiz-adv-x="555" 
d="M247 0h-62l180 265q-32 -23 -91 -23q-92 0 -162 65q-69 65 -69 164q0 100 68 170q69 69 167 69q100 0 168 -69q67 -67 67 -167q0 -48 -19 -92.5t-65 -112.5zM278 289q82 0 133 54t51 131q0 79 -54 133q-52 54 -130 54q-77 0 -131 -54q-53 -55 -53 -133q0 -76 53 -131
q54 -54 131 -54z" />
    <glyph glyph-name="colon" unicode=":" horiz-adv-x="172" 
d="M86 354q-15 0 -25.5 10.5t-10.5 25.5t11 25.5t25 10.5t25 -10.5t11 -25.5t-11 -25.5t-25 -10.5zM86 78q-15 0 -25.5 10.5t-10.5 25.5t11 25.5t25 10.5t25 -10.5t11 -25.5t-11 -25.5t-25 -10.5z" />
    <glyph glyph-name="semicolon" unicode=";" horiz-adv-x="201" 
d="M106 354q-15 0 -25.5 10.5t-10.5 25.5t11 25.5t25 10.5t25 -10.5t11 -25.5t-11 -25.5t-25 -10.5zM25 -128h-42l94 239h67z" />
    <glyph glyph-name="less" unicode="&#x3c;" horiz-adv-x="409" 
d="M357 143l-312 195v36l312 196v-53l-259 -161l259 -160v-53z" />
    <glyph glyph-name="equal" unicode="=" horiz-adv-x="433" 
d="M388 402h-342v47h342v-47zM388 260h-342v47h342v-47z" />
    <glyph glyph-name="greater" unicode="&#x3e;" horiz-adv-x="409" 
d="M364 338l-312 -195v53l259 160l-259 161v53l312 -196v-36z" />
    <glyph glyph-name="question" unicode="?" horiz-adv-x="391" 
d="M212 154q-58 0 -92.5 31t-34.5 84q0 69 80 128q12 9 36 26l35 25l25 23q18 17 23 28q17 39 17 70q0 6 -1 13t-7 22t-17 26.5t-34.5 20.5t-54.5 9q-72 0 -137 -62v60q59 50 137 50q47 0 82.5 -14.5t51.5 -39.5q31 -43 31 -83q0 -29 -7 -50q0 -2 -1 -6q-10 -36 -27 -55
l-9 -10l-28 -27l-39 -30l-39 -29q-66 -50 -66 -95q0 -67 76 -67q38 0 67 18v-52q-30 -14 -67 -14zM165 0q-17 15 -10 35t25.5 25t34.5 -9q17 -14 10 -34t-25.5 -25.5t-34.5 8.5z" />
    <glyph glyph-name="at" unicode="@" horiz-adv-x="805" 
d="M42 292q0 145 103 252q103 108 257 108q146 0 254 -99q108 -97 108 -244q0 -101 -36.5 -154t-102.5 -53q-78 0 -99 80q-41 -71 -126 -71q-73 0 -123 50t-50 125t50 125q51 51 123 51q79 0 119 -64v55h48v-224q0 -80 58 -80q89 0 89 160q0 123 -92 210q-91 88 -220 88
t-220 -93q-91 -91 -91 -222t91 -223q92 -92 220 -92q76 0 150 41l23 -43q-80 -43 -173 -43q-141 -4 -251.5 103t-108.5 257zM276 286q0 -53 35 -91q36 -36 89 -36q52 0 87 36t35 91q0 56 -35 92.5t-87 36.5q-53 0 -89 -37q-35 -38 -35 -92z" />
    <glyph glyph-name="A" unicode="A" horiz-adv-x="685" 
d="M91 0h-56l287 697h41l287 -697h-56l-78 190h-348zM342 617l-154 -379h308z" />
    <glyph glyph-name="B" unicode="B" horiz-adv-x="588" 
d="M330 0h-234v697h208q77 0 127 -49q51 -50 51 -124q0 -52 -25 -91t-70 -54q65 -9 105 -59t40 -121q0 -85 -58 -142t-144 -57zM148 649v-252h152q56 0 93 35.5t37 89.5q0 55 -36.5 91t-92.5 36h-153zM148 349v-301h179q66 0 109 43q44 44 44 108q0 65 -44 107
q-43 43 -113 43h-175z" />
    <glyph glyph-name="C" unicode="C" horiz-adv-x="719" 
d="M412 709q162 0 266 -117l-35 -33q-89 102 -231 102q-132 0 -221 -90q-88 -88 -88 -223t88 -223q89 -89 221 -89q146 0 232 104l36 -33q-102 -119 -268 -119q-153 0 -257 103q-104 104 -104 257t104 257q106 104 257 104z" />
    <glyph glyph-name="D" unicode="D" horiz-adv-x="721" 
d="M308 0h-212v697h211q165 0 263 -96q97 -96 97 -253t-97 -253q-97 -95 -262 -95zM148 649v-601h156q148 0 229 81q81 83 81 219q0 137 -82 219q-81 82 -229 82h-155z" />
    <glyph glyph-name="E" unicode="E" horiz-adv-x="543" 
d="M483 0h-387v697h380v-48h-328v-256h309v-49h-309v-296h335v-48z" />
    <glyph glyph-name="F" unicode="F" horiz-adv-x="493" 
d="M148 0h-52v697h344v-48h-292v-259h267v-48h-267v-342z" />
    <glyph glyph-name="G" unicode="G" horiz-adv-x="737" 
d="M410 708q128 0 223 -75l-31 -37q-82 64 -192 64q-132 0 -220 -90q-88 -88 -88 -222t87 -224q89 -89 221 -89q125 0 211 77v211h-229v48h281v-278q-107 -106 -263 -106q-153 0 -256 103q-104 104 -104 258q0 153 104 257q103 103 256 103z" />
    <glyph glyph-name="H" unicode="H" horiz-adv-x="709" 
d="M148 0h-52v697h52v-303h413v303h52v-697h-52v346h-413v-346z" />
    <glyph glyph-name="I" unicode="I" horiz-adv-x="251" 
d="M152 0h-52v697h52v-697z" />
    <glyph glyph-name="J" unicode="J" horiz-adv-x="318" 
d="M19 -4v51q24 -9 57 -9q54 0 76 34.5t22 109.5v515h52v-513q0 -88 -26 -139q-29 -57 -122 -57q-35 0 -59 8z" />
    <glyph glyph-name="K" unicode="K" horiz-adv-x="622" 
d="M148 0h-52v697h52v-399l366 399h65l-281 -308l292 -389h-63l-264 352l-115 -126v-226z" />
    <glyph glyph-name="L" unicode="L" horiz-adv-x="491" 
d="M448 0h-352v697h52v-649h300v-48z" />
    <glyph glyph-name="M" unicode="M" horiz-adv-x="840" 
d="M147 0h-51v697h48l276 -485l277 485h48v-697h-52v592l-273 -473l-273 472v-591z" />
    <glyph glyph-name="N" unicode="N" horiz-adv-x="733" 
d="M148 0h-52v697h45l444 -603v603h52v-697h-43l-446 607v-607z" />
    <glyph glyph-name="O" unicode="O" horiz-adv-x="822" 
d="M411 709q151 0 255 -104q105 -103 105 -257t-105 -257q-103 -103 -255 -103q-153 0 -256 103q-104 104 -104 257t104 257t256 104zM411 37q132 0 219 89q88 88 88 222t-88 222q-88 90 -219 90t-220 -90q-89 -89 -89 -222q0 -134 88 -222q89 -89 221 -89z" />
    <glyph glyph-name="P" unicode="P" horiz-adv-x="557" 
d="M148 0h-52v697h202q92 0 150 -60q59 -61 59 -146q0 -89 -59 -148t-150 -59h-150v-284zM148 649v-317h148q72 0 115 46q44 47 44 113q0 65 -44 112q-43 46 -115 46h-148z" />
    <glyph glyph-name="Q" unicode="Q" horiz-adv-x="821" 
d="M411 709q151 0 255 -104q105 -103 105 -257q0 -158 -110 -262l75 -92l-37 -31l-75 92q-91 -67 -213 -67q-153 0 -256 103q-104 104 -104 257t104 257t256 104zM411 37q103 0 182 57l-128 157l38 31l125 -158q90 90 90 224t-88 222q-88 90 -219 90t-220 -90
q-89 -89 -89 -222q0 -134 88 -222q89 -89 221 -89z" />
    <glyph glyph-name="R" unicode="R" horiz-adv-x="591" 
d="M148 0h-52v697h223q87 0 145 -58q59 -57 59 -143q0 -69 -37.5 -122t-99.5 -73l169 -301h-57l-164 293q-4 -1 -21 -1h-165v-292zM148 649v-309h166q68 0 112 44q45 45 45 112q0 65 -44 109t-110 44h-169z" />
    <glyph glyph-name="S" unicode="S" horiz-adv-x="546" 
d="M44 155l45 21q56 -140 196 -140q83 0 121 42q38 43 38 97q0 63 -38 98t-129 75q-93 40 -137 81q-43 40 -43 114q0 73 51 119q52 47 128 47q122 0 178 -102l-45 -23q-41 77 -133 77q-55 0 -91 -32.5t-36 -83.5q0 -60 43 -94q29 -21 46 -29l64 -30q102 -46 143 -86
q51 -45 51 -131q0 -85 -56.5 -136t-154.5 -51q-85 0 -148 43t-93 124z" />
    <glyph glyph-name="T" unicode="T" horiz-adv-x="525" 
d="M288 0h-52v649h-202v48h457v-48h-203v-649z" />
    <glyph glyph-name="U" unicode="U" horiz-adv-x="677" 
d="M91 231v466h52v-461q0 -95 52 -147.5t144 -52.5t144 52.5t52 147.5v461h52v-466q0 -115 -68 -180q-67 -63 -180 -63t-180 63q-68 65 -68 180z" />
    <glyph glyph-name="V" unicode="V" horiz-adv-x="675" 
d="M357 0h-39l-279 697h56l243 -610l242 610h56z" />
    <glyph glyph-name="W" unicode="W" horiz-adv-x="922" 
d="M276 0h-36l-209 697h52l178 -586l181 586h38l181 -586l177 586h53l-209 -697h-36l-185 593z" />
    <glyph glyph-name="X" unicode="X" horiz-adv-x="640" 
d="M583 697l-226 -336l239 -361h-59l-216 324l-216 -324h-59l239 361l-226 336h60l202 -298l202 298h60z" />
    <glyph glyph-name="Y" unicode="Y" horiz-adv-x="598" 
d="M568 697l-243 -403v-294h-52v294l-243 403h58l211 -351l211 351h58z" />
    <glyph glyph-name="Z" unicode="Z" horiz-adv-x="621" 
d="M573 0h-537v33l466 616h-414v48h484v-35l-463 -614h464v-48z" />
    <glyph glyph-name="bracketleft" unicode="[" horiz-adv-x="286" 
d="M140 649v-794h145v-48h-197v890h197v-48h-145z" />
    <glyph glyph-name="backslash" unicode="\" horiz-adv-x="407" 
d="M391 -136h-47l-314 859h48z" />
    <glyph glyph-name="bracketright" unicode="]" horiz-adv-x="286" 
d="M2 -193v48h145v794h-145v48h197v-890h-197z" />
    <glyph glyph-name="asciicircum" unicode="^" horiz-adv-x="527" 
d="M80 350h-53l217 354h39l217 -354h-53l-183 302z" />
    <glyph glyph-name="underscore" unicode="_" horiz-adv-x="303" 
d="M-2 -193v47h307v-47h-307z" />
    <glyph glyph-name="grave" unicode="`" horiz-adv-x="545" 
d="M301 552h-40l-85 145h65z" />
    <glyph glyph-name="a" unicode="a" horiz-adv-x="603" 
d="M493 399v105h50v-504h-50v105q-17 -49 -72 -84q-53 -34 -128 -34q-108 0 -181 76t-73 189t73 189t181 76q73 0 128 -35q56 -35 72 -83zM293 34q89 0 147 61q59 62 59 157q0 94 -59 156t-147 62q-87 0 -146 -63q-58 -62 -58 -155q0 -94 58 -156q59 -62 146 -62z" />
    <glyph glyph-name="b" unicode="b" horiz-adv-x="603" 
d="M61 0v697h50v-298q16 48 71 83q56 35 129 35q107 0 180 -76q74 -77 74 -189t-74 -189q-73 -76 -180 -76q-74 0 -129 34q-55 35 -71 84v-105h-50zM311 34q86 0 145 62q59 64 59 156q0 91 -59 155q-58 63 -145 63q-88 0 -147 -62t-59 -156q0 -95 59 -157q58 -61 147 -61z
" />
    <glyph glyph-name="c" unicode="c" horiz-adv-x="524" 
d="M304 517q118 0 191 -79l-30 -34q-63 66 -161 66q-92 0 -154 -63q-61 -61 -61 -155t61 -156q62 -62 154 -62q98 0 161 66l30 -34q-73 -79 -191 -79q-113 0 -189 76t-76 189t76 189t189 76z" />
    <glyph glyph-name="d" unicode="d" horiz-adv-x="604" 
d="M493 399v298h50v-697h-50v105q-17 -49 -72 -84q-53 -34 -128 -34q-108 0 -181 76t-73 189t73 189t181 76q73 0 128 -35q56 -35 72 -83zM293 34q89 0 147 61q59 62 59 157q0 94 -59 156t-147 62q-87 0 -146 -63q-58 -62 -58 -155q0 -94 58 -156q59 -62 146 -62z" />
    <glyph glyph-name="e" unicode="e" horiz-adv-x="556" 
d="M39 248v3q0 118 70 191q71 75 176 75q101 0 167 -73q67 -73 67 -179q0 -18 -1 -25h-430q1 -91 57 -148q55 -57 142 -57q95 0 165 73l33 -32q-76 -88 -198 -88q-109 0 -179 72q-69 74 -69 188zM90 285h377q-2 77 -54 131q-53 54 -128 54q-79 0 -136 -54q-56 -53 -59 -131z
" />
    <glyph glyph-name="f" unicode="f" horiz-adv-x="304" 
d="M159 0h-50v457h-78v47h78v47q0 90 45 129q34 29 95 29q27 0 39 -4v-45q-18 3 -44 3q-44 0 -64.5 -25.5t-20.5 -80.5v-53h112v-47h-112v-457z" />
    <glyph glyph-name="g" unicode="g" horiz-adv-x="604" 
d="M493 398v106h50v-429q0 -93 -15.5 -146t-61.5 -89q-65 -53 -171 -53q-141 0 -236 78l27 39q82 -70 208 -70q90 0 141 42q58 48 58 172v62q-24 -56 -76.5 -89t-123.5 -33q-108 0 -181 76t-73 190q0 113 73 187q73 76 181 76q71 0 123.5 -32t76.5 -87zM293 35q89 0 147 61
q59 62 59 156t-59 156t-147 62q-87 0 -146 -62q-58 -61 -58 -154q0 -95 58 -157q59 -62 146 -62z" />
    <glyph glyph-name="h" unicode="h" horiz-adv-x="531" 
d="M111 0h-50v697h50v-290q41 105 171 105q85 0 137 -55q52 -53 52 -146v-311h-50v301q0 75 -41 119.5t-109 44.5q-73 0 -116.5 -53t-43.5 -141v-271z" />
    <glyph glyph-name="i" unicode="i" horiz-adv-x="174" 
d="M112 614q-10 -10 -25 -10t-26 10q-10 10 -10 25t10 25q15 17 35 10t25 -25.5t-9 -34.5zM112 0h-50v504h50v-504z" />
    <glyph glyph-name="j" unicode="j" horiz-adv-x="174" 
d="M62 -70v574h50v-574q0 -136 -128 -136q-21 0 -33 3v47q18 -3 38 -3q39 0 56 20.5t17 68.5zM112 614q-10 -10 -25 -10t-26 10q-10 10 -10 25t10 25q15 17 35 10t25 -25.5t-9 -34.5z" />
    <glyph glyph-name="k" unicode="k" horiz-adv-x="449" 
d="M111 0h-50v697h50v-470l245 277h60l-195 -221l218 -283h-61l-189 246l-78 -86v-160z" />
    <glyph glyph-name="l" unicode="l" horiz-adv-x="174" 
d="M112 0h-50v697h50v-697z" />
    <glyph glyph-name="m" unicode="m" horiz-adv-x="828" 
d="M599 512q77 0 123 -54.5t46 -146.5v-311h-50v301q0 76 -35.5 120t-96.5 44q-67 0 -107 -52t-40 -137v-276h-50v301q0 75 -36.5 119.5t-96.5 44.5q-66 0 -105.5 -53t-39.5 -141v-271h-50v504h50v-97q39 105 158 105q57 0 97.5 -30.5t57.5 -85.5q36 116 175 116z" />
    <glyph glyph-name="n" unicode="n" horiz-adv-x="541" 
d="M111 0h-50v504h50v-97q43 105 176 105q88 0 140 -55q54 -54 54 -146v-311h-50v301q0 75 -42.5 119.5t-112.5 44.5q-75 0 -120 -53.5t-45 -140.5v-271z" />
    <glyph glyph-name="o" unicode="o" horiz-adv-x="606" 
d="M114 63q-76 76 -76 189t76 189t189 76q112 0 188 -76q77 -77 77 -189t-77 -189q-76 -76 -188 -76q-113 0 -189 76zM149 407q-61 -61 -61 -155t61 -156q62 -62 154 -62q91 0 153 62q62 64 62 156q0 93 -62 155q-62 63 -153 63q-93 0 -154 -63z" />
    <glyph glyph-name="p" unicode="p" horiz-adv-x="604" 
d="M111 105v-298h-50v697h50v-105q16 48 71 83q56 35 129 35q107 0 180 -76q74 -77 74 -189t-74 -189q-73 -76 -180 -76q-74 0 -129 34q-55 35 -71 84zM311 470q-88 0 -147 -62t-59 -156q0 -95 59 -157q58 -61 147 -61q87 0 145 63q59 64 59 155q0 93 -59 155
q-58 63 -145 63z" />
    <glyph glyph-name="q" unicode="q" horiz-adv-x="604" 
d="M543 504v-697h-50v298q-17 -49 -72 -84q-53 -34 -128 -34q-108 0 -181 76t-73 189t73 189t181 76q73 0 128 -35q56 -35 72 -83v105h50zM293 470q-87 0 -146 -63q-58 -61 -58 -155q0 -93 58 -155q59 -63 146 -63q89 0 147 61q59 62 59 157q0 94 -59 156t-147 62z" />
    <glyph glyph-name="r" unicode="r" horiz-adv-x="344" 
d="M282 512q19 0 24 -1v-52q-16 2 -32 2q-79 0 -121 -53q-42 -52 -42 -132v-276h-50v504h50v-101q37 109 171 109z" />
    <glyph glyph-name="s" unicode="s" horiz-adv-x="404" 
d="M22 111l42 16q33 -91 145 -91q58 0 88.5 26t30.5 66q0 43 -29 66q-30 24 -100 53q-73 31 -103.5 62t-30.5 84q0 54 39.5 89t99.5 35q95 0 135 -79l-41 -21q-30 53 -93 53q-40 0 -65 -21t-25 -56q0 -37 25.5 -59t89.5 -48q81 -33 114.5 -67.5t33.5 -90.5q0 -60 -45 -99.5
t-124 -39.5q-70 0 -119.5 32t-67.5 90z" />
    <glyph glyph-name="t" unicode="t" horiz-adv-x="292" 
d="M147 0h-50v457h-63v47h63v193h50v-193h118v-47h-118v-457z" />
    <glyph glyph-name="u" unicode="u" horiz-adv-x="526" 
d="M55 191v313h50v-308q0 -77 41.5 -118.5t116.5 -41.5t116.5 41.5t41.5 118.5v308h50v-313q0 -96 -56 -149t-152 -53t-152 53t-56 149z" />
    <glyph glyph-name="v" unicode="v" horiz-adv-x="506" 
d="M270 0h-35l-216 504h52l181 -424l182 424h53z" />
    <glyph glyph-name="w" unicode="w" horiz-adv-x="748" 
d="M234 0h-34l-181 504h51l146 -411l140 411h36l139 -411l146 411h52l-181 -504h-34l-140 414z" />
    <glyph glyph-name="x" unicode="x" horiz-adv-x="493" 
d="M86 0h-57l189 267l-173 237h57l144 -197l145 197h57l-173 -236l190 -268h-57l-161 227z" />
    <glyph glyph-name="y" unicode="y" horiz-adv-x="502" 
d="M137 -193l82 193l-200 504h52l174 -443l186 443h53l-296 -697h-51z" />
    <glyph glyph-name="z" unicode="z" horiz-adv-x="493" 
d="M447 0h-425v30l344 427h-305v47h376v-34l-342 -423h352v-47z" />
    <glyph glyph-name="braceleft" unicode="{" horiz-adv-x="303" 
d="M115 -70v193q0 75 -40 99q-20 13 -43 13v34q23 0 43 13q40 24 40 99v193q0 55 29.5 89t80.5 34h34v-40h-29q-65 0 -65 -82v-176q0 -90 -31 -121q-18 -18 -43 -26q25 -8 43 -26q31 -31 31 -121v-176q0 -82 65 -82h29v-40h-34q-51 0 -80.5 34t-29.5 89z" />
    <glyph glyph-name="bar" unicode="|" horiz-adv-x="231" 
d="M140 -25h-49v747h49v-747z" />
    <glyph glyph-name="braceright" unicode="}" horiz-adv-x="303" 
d="M188 123v-193q0 -55 -29.5 -89t-80.5 -34h-34v40h29q65 0 65 82v176q0 90 31 121q18 18 43 26q-25 8 -43 26q-31 31 -31 121v176q0 82 -65 82h-29v40h34q51 0 80.5 -34t29.5 -89v-193q0 -75 40 -99q20 -13 43 -13v-34q-23 0 -43 -13q-40 -24 -40 -99z" />
    <glyph glyph-name="asciitilde" unicode="~" horiz-adv-x="408" 
d="M70 307l-34 4q5 35 30 56.5t62 21.5q32 0 83 -23t75 -23q48 0 61 43l34 -3q-13 -82 -93 -82q-34 0 -85 23t-74 23q-49 0 -59 -40z" />
    <glyph glyph-name="exclamdown" unicode="&#xa1;" horiz-adv-x="223" 
d="M112 507q14 0 25 -10.5t11 -25.5t-11 -25.5t-25 -10.5t-25 10.5t-11 25.5t10.5 25.5t25.5 10.5zM143 -201h-63l11 542h42z" />
    <glyph glyph-name="cent" unicode="&#xa2;" horiz-adv-x="540" 
d="M245 0h-46l22 101q-78 25 -128 93q-49 67 -49 157q0 123 82 193q82 72 184 72q2 0 11.5 -0.5t10.5 -0.5l17 82h46l-20 -88q74 -16 127 -69l-31 -35q-43 45 -105 57l-92 -426q17 -4 38 -4q94 0 159 65l31 -35q-75 -76 -193 -76q-22 0 -45 4zM231 147l91 421q-3 1 -15 1
q-91 -1 -152 -64q-61 -61 -61 -154q0 -71 37 -126t100 -78z" />
    <glyph glyph-name="sterling" unicode="&#xa3;" horiz-adv-x="581" 
d="M531 0h-487v45h6q93 2 137 47q46 46 46 111q0 39 -39 109h-106v48h78q-57 88 -57 150q0 82 58 140q59 59 141 59q81 0 140 -59q58 -58 58 -140h-51q0 63 -43 106q-44 45 -103 45q-61 0 -105 -45q-43 -43 -43 -106q0 -54 63 -150h158v-48h-132q35 -65 35 -111
q0 -54 -23 -94t-63 -59h332v-48z" />
    <glyph glyph-name="currency" unicode="&#xa4;" horiz-adv-x="655" 
d="M557 333q0 -88 -56 -150l82 -80l-34 -33q-61 66 -76 85q-61 -51 -145 -51t-145 51l-76 -85l-34 33l82 80q-56 62 -56 150q0 86 56 151l-82 80l34 33l77 -85q62 51 144 51t144 -51l77 85l34 -33l-82 -80q56 -65 56 -151zM199 202q53 -54 129 -54q75 0 128 54q53 55 53 131
t-53 131q-52 55 -128 55q-77 0 -129 -55q-52 -53 -52 -131t52 -131z" />
    <glyph glyph-name="yen" unicode="&#xa5;" horiz-adv-x="592" 
d="M323 0h-52v244h-213v49h213l-54 90h-159v48h130l-161 266h58l212 -351l211 351h56l-159 -266h130v-48h-159l-54 -90h213v-49h-212v-244z" />
    <glyph glyph-name="brokenbar" unicode="&#xa6;" horiz-adv-x="231" 
d="M140 415h-49v282h49v-282zM140 0h-49v294h49v-294z" />
    <glyph glyph-name="section" unicode="&#xa7;" horiz-adv-x="513" 
d="M87 -36h52q0 -49 27 -86q27 -38 88 -38q49 0 81.5 28.5t32.5 75.5q0 52 -35 79q-22 18 -35 25q-10 7 -49 27q-111 56 -154 94q-60 52 -60 128q0 53 28 90t80 53q-58 48 -58 120q0 65 47 109q46 43 119 43q77 0 121.5 -48t44.5 -124h-52q0 48 -27 86t-87 38
q-49 0 -81.5 -28.5t-32.5 -75.5q0 -48 32 -76q20 -17 30 -23q3 -2 17 -10.5t26 -14.5l43 -23l48 -26q48 -26 78 -53q59 -54 59 -127q0 -52 -27.5 -89.5t-80.5 -53.5q58 -45 58 -120q0 -67 -48 -109q-46 -43 -118 -43q-76 0 -121.5 47.5t-45.5 124.5zM263 124l47 -25
q108 23 108 108q0 53 -41 88q-43 37 -136 86l-46 24q-108 -21 -108 -108q0 -53 40 -89q39 -33 136 -84z" />
    <glyph glyph-name="dieresis" unicode="&#xa8;" horiz-adv-x="613" 
d="M229 612q-10 -10 -25 -10t-26 10q-10 11 -10 26t10 25q15 16 35 9t25.5 -25t-9.5 -35zM435 612q-10 -10 -25 -10t-26 10q-10 11 -10 26t10 25q15 16 35 9t25.5 -25t-9.5 -35z" />
    <glyph glyph-name="copyright" unicode="&#xa9;" horiz-adv-x="811" 
d="M412 553q86 0 151 -62l-32 -35q-53 49 -119 49q-65 0 -109 -44q-43 -43 -43 -109q0 -67 43 -110q44 -44 109 -44q66 0 119 50l32 -37q-61 -61 -151 -61q-87 0 -145 58t-58 144t58 143q58 58 145 58zM406 708q149 0 254 -105q106 -105 106 -255t-105 -256
q-105 -105 -255 -105q-148 0 -255 105q-105 106 -105 256t105 255t255 105zM406 21q134 0 229 95q95 97 95 232q0 137 -95 232t-229 95q-136 0 -231 -95q-94 -94 -94 -232t94 -232q95 -95 231 -95z" />
    <glyph glyph-name="ordfeminine" unicode="&#xaa;" horiz-adv-x="489" 
d="M383 358q12 0 20 2v-33q-13 -6 -31 -6q-22 0 -34 18q-9 13 -9 29q-34 -52 -125 -52q-58 0 -92 29t-34 78q0 51 38 81t110 33q56 2 77 14t21 45q0 32 -25.5 50t-62.5 18q-65 0 -99 -58l-30 23q43 75 129 75q59 0 93.5 -30t34.5 -78v-211q0 -27 19 -27zM324 448v76
q-20 -23 -98 -26q-108 -3 -108 -74q0 -31 23.5 -50t65.5 -19q57 0 87 25t30 68z" />
    <glyph glyph-name="guillemotleft" unicode="&#xab;" horiz-adv-x="370" 
d="M332 78h-53l-110 175l110 175h53l-110 -175zM202 78h-53l-110 175l110 175h53l-110 -175z" />
    <glyph glyph-name="logicalnot" unicode="&#xac;" horiz-adv-x="550" 
d="M454 382h-408v47h459v-237h-51v190z" />
    <glyph glyph-name="registered" unicode="&#xae;" horiz-adv-x="404" 
d="M201 393q-67 0 -113 45t-46 113t46 113t113 45t114 -45t47 -113t-47 -113t-114 -45zM201 419q58 0 96 37t38 95q0 59 -38 96.5t-96 37.5q-57 0 -94.5 -37.5t-37.5 -96.5q0 -58 37.5 -95t94.5 -37zM172 463h-28v183h64q26 0 42 -16.5t16 -40.5q0 -36 -32 -53l44 -73h-33
l-41 67h-32v-67zM172 619v-64h35q13 0 21.5 9.5t8.5 23.5q0 13 -8.5 22t-21.5 9h-35z" />
    <glyph glyph-name="overscore" unicode="&#xaf;" horiz-adv-x="627" 
d="M461 650h-294v47h294v-47z" />
    <glyph glyph-name="degree" unicode="&#xb0;" horiz-adv-x="350" 
d="M262 492q-36 -36 -87 -36t-87 36t-36 86t36 86t87 36t87 -36t36 -86t-36 -86zM175 501q30 0 52.5 23t22.5 54t-22.5 54t-52.5 23q-31 0 -53 -22.5t-22 -54.5q0 -31 22 -54t53 -23z" />
    <glyph glyph-name="plusminus" unicode="&#xb1;" horiz-adv-x="391" 
d="M221 190h-51v135h-124v47h124v134h51v-134h124v-47h-124v-135zM345 22h-299v47h299v-47z" />
    <glyph glyph-name="twosuperior" unicode="&#xb2;" horiz-adv-x="335" 
d="M285 328h-236v28l163 186q25 28 25 59q0 27 -20 46t-48 19q-27 0 -46.5 -21t-19.5 -50h-40q0 47 31 78q32 32 75 32q45 0 77 -30.5t32 -73.5q0 -48 -34 -85l-135 -149h176v-39z" />
    <glyph glyph-name="threesuperior" unicode="&#xb3;" horiz-adv-x="354" 
d="M167 320q-45 0 -80 23.5t-50 63.5l36 13q11 -28 36 -44t58 -16q43 0 70.5 24t27.5 62q0 36 -27 60.5t-68 24.5q-33 0 -55 -8l-15 22l118 114h-151v38h218v-23l-116 -109q20 0 36 -2q43 -8 71 -40.5t28 -76.5q0 -56 -38.5 -91t-98.5 -35z" />
    <glyph glyph-name="acute" unicode="&#xb4;" horiz-adv-x="545" 
d="M284 552h-40l60 145h65z" />
    <glyph glyph-name="mu" unicode="&#xb5;" horiz-adv-x="526" 
d="M105 -193h-50v697h50v-271q0 -88 44.5 -141.5t119.5 -53.5q69 0 111 45t42 120v301h50v-311q0 -92 -52.5 -146.5t-139.5 -54.5q-132 0 -175 105v-290z" />
    <glyph glyph-name="paragraph" unicode="&#xb6;" horiz-adv-x="485" 
d="M279 0h-52v283q-81 4 -139 64q-56 61 -56 143q0 86 60 146q60 61 146 61h234v-48h-67v-649h-52v649h-74v-649z" />
    <glyph glyph-name="middot" unicode="&#xb7;" horiz-adv-x="167" 
d="M84 216q-15 0 -25.5 10t-10.5 26q0 15 10.5 25.5t25.5 10.5q14 0 24.5 -10.5t10.5 -25.5t-10.5 -25.5t-24.5 -10.5z" />
    <glyph glyph-name="cedilla" unicode="&#xb8;" horiz-adv-x="536" 
d="M230 -78l34 78h39l-24 -54h6q25 0 42.5 -17.5t17.5 -44.5q0 -67 -83 -67q-38 0 -66 22l15 28q26 -17 50 -17q18 0 30 9t12 24q0 40 -58 40q-10 0 -15 -1z" />
    <glyph glyph-name="onesuperior" unicode="&#xb9;" horiz-adv-x="225" 
d="M140 328h-41v331h-48v38h89v-369z" />
    <glyph glyph-name="ordmasculine" unicode="&#xba;" horiz-adv-x="463" 
d="M370 374q-58 -56 -138 -56t-138 56q-57 57 -57 138q0 82 57 137q57 57 138 57t138 -57q57 -56 57 -137t-57 -138zM381 512q0 61 -44 107q-43 45 -105 45t-106 -45q-44 -46 -44 -107t44 -107q44 -45 106 -45q61 0 105 44q44 46 44 108z" />
    <glyph glyph-name="guillemotright" unicode="&#xbb;" horiz-adv-x="370" 
d="M222 78h-52l110 175l-110 175h52l110 -175zM92 78h-53l110 175l-110 175h53l110 -175z" />
    <glyph glyph-name="onequarter" unicode="&#xbc;" horiz-adv-x="655" 
d="M111 0h-52l409 697h53zM145 328h-41v331h-48v38h89v-369zM547 81h-212v27l129 261h43l-124 -250h164v82h41v-201h-41v81z" />
    <glyph glyph-name="onehalf" unicode="&#xbd;" horiz-adv-x="683" 
d="M111 0h-52l409 697h53zM145 328h-41v331h-48v38h89v-369zM624 0h-236v28l163 186q24 29 24 59q0 27 -19.5 46t-47.5 19q-27 0 -46.5 -21t-19.5 -50h-41q0 47 31 78q32 32 76 32q45 0 76.5 -30.5t31.5 -73.5q0 -47 -33 -85l-135 -149h176v-39z" />
    <glyph glyph-name="threequarters" unicode="&#xbe;" horiz-adv-x="775" 
d="M236 0h-52l409 697h53zM174 320q-45 0 -80 23.5t-50 63.5l36 13q11 -28 36 -44t58 -16q43 0 70.5 24t27.5 62q0 36 -27 60.5t-68 24.5q-33 0 -55 -8l-15 22l118 114h-151v38h218v-23l-116 -109q20 0 36 -2q43 -8 71 -40.5t28 -76.5q0 -56 -38.5 -91t-98.5 -35zM667 81
h-212v27l129 261h43l-124 -250h164v82h41v-201h-41v81z" />
    <glyph glyph-name="questiondown" unicode="&#xbf;" horiz-adv-x="391" 
d="M179 342q58 0 92.5 -31t34.5 -84q0 -69 -80 -128q-12 -9 -36 -26q-17 -12 -35 -26q-3 -2 -25 -22q-18 -17 -23 -28q-17 -39 -17 -70q0 -6 1 -13t7 -22t17 -26.5t34.5 -20.5t54.5 -9q72 0 137 62v-60q-59 -50 -137 -50q-96 0 -135 54q-30 46 -30 83q0 27 6 50q1 2 2.5 8.5
t2 8.5t2.5 7t2.5 6.5t2.5 6t3.5 7t4 6t5 6.5t6 7t7.5 8q22 22 27 26q8 8 39 30l40 30q66 50 66 95q0 67 -76 67q-39 0 -67 -18v52q30 14 67 14zM226 496q16 -14 9 -34t-25 -25.5t-35 8.5q-16 15 -8.5 35t25.5 25t34 -9z" />
    <glyph glyph-name="Agrave" unicode="&#xc0;" horiz-adv-x="685" 
d="M91 0h-56l287 697h41l287 -697h-56l-78 190h-348zM342 617l-154 -379h308zM381 745h-40l-85 145h65z" />
    <glyph glyph-name="Aacute" unicode="&#xc1;" horiz-adv-x="685" 
d="M343 745h-41l60 145h65zM91 0h-56l287 697h41l287 -697h-56l-78 190h-348zM342 617l-154 -379h308z" />
    <glyph glyph-name="Acircumflex" unicode="&#xc2;" horiz-adv-x="685" 
d="M253 769h-62l130 123h42l130 -123h-63l-88 85zM91 0h-56l287 697h41l287 -697h-56l-78 190h-348zM342 617l-154 -379h308z" />
    <glyph glyph-name="Atilde" unicode="&#xc3;" horiz-adv-x="685" 
d="M235 765l-34 3q5 36 27 57.5t54 21.5q29 0 66 -22q38 -22 59 -22q40 0 51 47l33 -3q-11 -86 -82 -86q-31 0 -68 22t-57 22q-40 0 -49 -40zM91 0h-56l287 697h41l287 -697h-56l-78 190h-348zM342 617l-154 -379h308z" />
    <glyph glyph-name="Adieresis" unicode="&#xc4;" horiz-adv-x="685" 
d="M445 756q-15 0 -25.5 10.5t-10.5 25.5t10.5 25.5t25.5 10.5q14 0 25 -10.5t11 -25.5t-11 -25.5t-25 -10.5zM264 766q-10 -10 -25 -10t-26 10q-10 11 -10 26t10 25q15 16 35 9t25.5 -25t-9.5 -35zM91 0h-56l287 697h41l287 -697h-56l-78 190h-348zM342 617l-154 -379h308z
" />
    <glyph glyph-name="Aring" unicode="&#xc5;" horiz-adv-x="673" 
d="M89 0h-54l283 680q-27 6 -45 28.5t-18 50.5q0 33 24 57t58 24t57.5 -24t23.5 -57q0 -29 -18 -51t-46 -28l283 -680h-55l-79 190h-334zM337 714q17 0 30.5 13.5t13.5 31.5t-13.5 31t-30.5 13q-18 0 -31.5 -13t-13.5 -31t13.5 -31.5t31.5 -13.5zM336 598l-146 -360h293z
" />
    <glyph glyph-name="AE" unicode="&#xc6;" horiz-adv-x="922" 
d="M64 0h-62l535 697h319v-48h-281v-256h262v-49h-262v-296h288v-48h-340v183h-318zM523 598l-282 -367h282v367z" />
    <glyph glyph-name="Ccedilla" unicode="&#xc7;" horiz-adv-x="719" 
d="M333 -78l30 69q-136 17 -224 117t-88 240q0 153 104 257q106 104 257 104q162 0 266 -117l-35 -33q-89 102 -231 102q-132 0 -221 -90q-88 -88 -88 -223t88 -223q89 -89 221 -89q146 0 232 104l36 -33q-102 -119 -268 -119h-6l-5 1l-19 -43h6q25 0 42.5 -17.5t17.5 -44.5
q0 -67 -83 -67q-38 0 -66 22l15 28q26 -17 50 -17q18 0 30 9t12 24q0 40 -58 40q-12 0 -15 -1z" />
    <glyph glyph-name="Egrave" unicode="&#xc8;" horiz-adv-x="543" 
d="M321 745h-40l-85 145h66zM483 0h-387v697h380v-48h-328v-256h309v-49h-309v-296h335v-48z" />
    <glyph glyph-name="Eacute" unicode="&#xc9;" horiz-adv-x="543" 
d="M483 0h-387v697h380v-48h-328v-256h309v-49h-309v-296h335v-48zM293 745h-40l60 145h65z" />
    <glyph glyph-name="Ecircumflex" unicode="&#xca;" horiz-adv-x="543" 
d="M483 0h-387v697h380v-48h-328v-256h309v-49h-309v-296h335v-48zM197 769h-62l130 123h42l130 -123h-63l-88 85z" />
    <glyph glyph-name="Edieresis" unicode="&#xcb;" horiz-adv-x="543" 
d="M391 840q14 0 25 -10.5t11 -25.5t-11 -25.5t-25 -10.5t-25 10.5t-11 25.5t10.5 25.5t25.5 10.5zM210 778q-25 -22 -50 0q-11 11 -11 26t10 25q15 16 35 9t25.5 -25t-9.5 -35zM483 0h-387v697h380v-48h-328v-256h309v-49h-309v-296h335v-48z" />
    <glyph glyph-name="Igrave" unicode="&#xcc;" horiz-adv-x="251" 
d="M146 745h-40l-85 145h65zM152 0h-52v697h52v-697z" />
    <glyph glyph-name="Iacute" unicode="&#xcd;" horiz-adv-x="251" 
d="M144 745h-40l60 145h65zM152 0h-52v697h52v-697z" />
    <glyph glyph-name="Icircumflex" unicode="&#xce;" horiz-adv-x="252" 
d="M152 0h-52v697h52v-697zM40 769h-62l127 123h42l127 -123h-63l-85 85z" />
    <glyph glyph-name="Idieresis" unicode="&#xcf;" horiz-adv-x="251" 
d="M238 778q-25 -22 -50 0q-11 11 -11 26t10 25q15 16 35 9t25.5 -25t-9.5 -35zM63 778q-25 -22 -50 0q-11 11 -11 26t10 25q15 16 35 9t25.5 -25t-9.5 -35zM152 0h-52v697h52v-697z" />
    <glyph glyph-name="Eth" unicode="&#xd0;" horiz-adv-x="718" 
d="M308 0h-212v334h-61v49h61v314h211q165 0 263 -96q97 -96 97 -253t-97 -253q-97 -95 -262 -95zM148 334v-286h156q148 0 229 82q82 82 82 218q0 137 -82 219q-81 82 -230 82h-155v-266h145v-49h-145z" />
    <glyph glyph-name="Ntilde" unicode="&#xd1;" horiz-adv-x="733" 
d="M255 765l-34 3q5 36 27 57.5t54 21.5q29 0 66 -22t59 -22q40 0 51 47l33 -3q-11 -86 -82 -86q-30 0 -67 22t-58 22q-42 0 -49 -40zM148 0h-52v697h45l444 -603v603h52v-697h-43l-446 607v-607z" />
    <glyph glyph-name="Ograve" unicode="&#xd2;" horiz-adv-x="822" 
d="M411 709q151 0 255 -104q105 -103 105 -257t-105 -257q-103 -103 -255 -103q-153 0 -256 103q-104 104 -104 257t104 257t256 104zM411 37q132 0 219 89q88 88 88 222t-88 222q-88 90 -219 90t-220 -90q-89 -89 -89 -222q0 -134 88 -222q89 -89 221 -89zM433 745h-40
l-85 145h65z" />
    <glyph glyph-name="Oacute" unicode="&#xd3;" horiz-adv-x="822" 
d="M411 709q151 0 255 -104q105 -103 105 -257t-105 -257q-103 -103 -255 -103q-153 0 -256 103q-104 104 -104 257t104 257t256 104zM411 37q132 0 219 89q88 88 88 222t-88 222q-88 90 -219 90t-220 -90q-89 -89 -89 -222q0 -134 88 -222q89 -89 221 -89zM418 745h-40
l60 145h65z" />
    <glyph glyph-name="Ocircumflex" unicode="&#xd4;" horiz-adv-x="822" 
d="M322 769h-62l130 123h42l130 -123h-63l-88 85zM411 709q151 0 255 -104q105 -103 105 -257t-105 -257q-103 -103 -255 -103q-153 0 -256 103q-104 104 -104 257t104 257t256 104zM411 37q132 0 219 89q88 88 88 222t-88 222q-88 90 -219 90t-220 -90q-89 -89 -89 -222
q0 -134 88 -222q89 -89 221 -89z" />
    <glyph glyph-name="Otilde" unicode="&#xd5;" horiz-adv-x="822" 
d="M299 765l-34 3q5 36 27 57.5t54 21.5q29 0 66 -22t59 -22q40 0 51 47l34 -3q-11 -86 -83 -86q-30 0 -67 22t-59 22q-41 0 -48 -40zM411 709q151 0 255 -104q105 -103 105 -257t-105 -257q-103 -103 -255 -103q-153 0 -256 103q-104 104 -104 257t104 257t256 104zM411 37
q132 0 219 89q88 88 88 222t-88 222q-88 90 -219 90t-220 -90q-89 -89 -89 -222q0 -134 88 -222q89 -89 221 -89z" />
    <glyph glyph-name="Odieresis" unicode="&#xd6;" horiz-adv-x="822" 
d="M539 766q-10 -10 -25 -10t-26 10q-10 11 -10 26t10 25q15 16 35 9t25.5 -25t-9.5 -35zM308 756q-14 0 -24.5 10t-10.5 26t10.5 26t24.5 10q15 0 25.5 -10.5t10.5 -25.5t-10.5 -25.5t-25.5 -10.5zM411 709q151 0 255 -104q105 -103 105 -257t-105 -257
q-103 -103 -255 -103q-153 0 -256 103q-104 104 -104 257t104 257t256 104zM411 37q132 0 219 89q88 88 88 222t-88 222q-88 90 -219 90t-220 -90q-89 -89 -89 -222q0 -134 88 -222q89 -89 221 -89z" />
    <glyph glyph-name="multiply" unicode="&#xd7;" horiz-adv-x="391" 
d="M196 302l-116 -116l-31 32l116 115l-115 115l30 32l116 -117l114 117l31 -32l-114 -115l115 -115l-31 -32z" />
    <glyph glyph-name="Oslash" unicode="&#xd8;" horiz-adv-x="822" 
d="M161 -34l-38 28l56 75q-61 51 -94.5 123t-33.5 156q0 153 104 257t256 104q111 0 202 -61l59 79l38 -29l-59 -79q120 -105 120 -271q0 -154 -105 -257q-103 -103 -255 -103q-107 0 -193 54zM208 108l376 500q-76 52 -173 52q-131 0 -220 -90q-89 -89 -89 -222
q0 -150 106 -240zM621 579l-374 -498q74 -44 164 -44q132 0 219 89q88 88 88 222q0 140 -97 231z" />
    <glyph glyph-name="Ugrave" unicode="&#xd9;" horiz-adv-x="677" 
d="M370 745h-40l-85 145h66zM91 233v464h52v-459q0 -95 52 -147.5t144 -52.5t144 52.5t52 147.5v459h52v-464q0 -115 -68 -180q-67 -63 -180 -63t-180 63q-68 65 -68 180z" />
    <glyph glyph-name="Uacute" unicode="&#xda;" horiz-adv-x="677" 
d="M349 745h-40l60 145h65zM91 233v464h52v-459q0 -95 52 -147.5t144 -52.5t144 52.5t52 147.5v459h52v-464q0 -115 -68 -180q-67 -63 -180 -63t-180 63q-68 65 -68 180z" />
    <glyph glyph-name="Ucircumflex" unicode="&#xdb;" horiz-adv-x="677" 
d="M91 233v464h52v-459q0 -95 52 -147.5t144 -52.5t144 52.5t52 147.5v459h52v-464q0 -115 -68 -180q-67 -63 -180 -63t-180 63q-68 65 -68 180zM250 769h-62l130 123h42l130 -123h-63l-88 85z" />
    <glyph glyph-name="Udieresis" unicode="&#xdc;" horiz-adv-x="677" 
d="M467 766q-10 -10 -25 -10t-26 10q-10 11 -10 26t10 25q15 16 35 9t25.5 -25t-9.5 -35zM261 766q-10 -10 -25 -10t-26 10q-10 11 -10 26t10 25q15 16 35 9t25.5 -25t-9.5 -35zM91 233v464h52v-459q0 -95 52 -147.5t144 -52.5t144 52.5t52 147.5v459h52v-464
q0 -115 -68 -180q-67 -63 -180 -63t-180 63q-68 65 -68 180z" />
    <glyph glyph-name="Yacute" unicode="&#xdd;" horiz-adv-x="598" 
d="M568 697l-243 -403v-294h-52v294l-243 403h58l211 -351l211 351h58zM306 745h-40l60 145h65z" />
    <glyph glyph-name="Thorn" unicode="&#xde;" horiz-adv-x="466" 
d="M148 0h-52v697h52v-155h70q93 0 149 -56q55 -55 55 -142q0 -84 -54 -140q-54 -55 -146 -55h-74v-149zM148 493v-295h70q69 0 110.5 40.5t41.5 107.5t-41 107t-112 40h-69z" />
    <glyph glyph-name="germandbls" unicode="&#xdf;" horiz-adv-x="545" 
d="M112 0h-52v545q0 67 47 116q48 48 116 48t115 -47t47 -115q0 -77 -59 -121q73 -4 129 -65q56 -59 56 -148q0 -97 -68 -162t-169 -65q-20 0 -52 5v51q29 -8 52 -8q78 0 131 52q54 52 54 127q0 72 -52 123q-51 52 -129 52h-11q-23 -2 -45 -7v46q52 8 81 38q31 31 31 80
q0 47 -33 82q-31 34 -78 34q-46 0 -79 -34q-32 -35 -32 -82v-545z" />
    <glyph glyph-name="agrave" unicode="&#xe0;" horiz-adv-x="603" 
d="M330 552h-41l-85 145h66zM493 399v105h50v-504h-50v105q-17 -49 -72 -84q-53 -34 -128 -34q-108 0 -181 76t-73 189t73 189t181 76q73 0 128 -35q56 -35 72 -83zM293 34q89 0 147 61q59 62 59 157q0 94 -59 156t-147 62q-87 0 -146 -63q-58 -62 -58 -155q0 -94 58 -156
q59 -62 146 -62z" />
    <glyph glyph-name="aacute" unicode="&#xe1;" horiz-adv-x="603" 
d="M307 552h-41l60 145h66zM493 399v105h50v-504h-50v105q-17 -49 -72 -84q-53 -34 -128 -34q-108 0 -181 76t-73 189t73 189t181 76q73 0 128 -35q56 -35 72 -83zM293 34q89 0 147 61q59 62 59 157q0 94 -59 156t-147 62q-87 0 -146 -63q-58 -62 -58 -155q0 -94 58 -156
q59 -62 146 -62z" />
    <glyph glyph-name="acircumflex" unicode="&#xe2;" horiz-adv-x="603" 
d="M227 576h-62l129 123h42l130 -123h-63l-88 85zM493 399v105h50v-504h-50v105q-17 -49 -72 -84q-53 -34 -128 -34q-108 0 -181 76t-73 189t73 189t181 76q73 0 128 -35q56 -35 72 -83zM293 34q89 0 147 61q59 62 59 157q0 94 -59 156t-147 62q-87 0 -146 -63
q-58 -62 -58 -155q0 -94 58 -156q59 -62 146 -62z" />
    <glyph glyph-name="atilde" unicode="&#xe3;" horiz-adv-x="603" 
d="M192 598l-33 2q4 35 26 57t55 22q29 0 66 -22q38 -22 59 -22q40 0 51 47l33 -3q-10 -85 -82 -85q-31 0 -68 21q-37 22 -58 22q-40 0 -49 -39zM493 399v105h50v-504h-50v105q-17 -49 -72 -84q-53 -34 -128 -34q-108 0 -181 76t-73 189t73 189t181 76q73 0 128 -35
q56 -35 72 -83zM293 34q89 0 147 61q59 62 59 157q0 94 -59 156t-147 62q-87 0 -146 -63q-58 -62 -58 -155q0 -94 58 -156q59 -62 146 -62z" />
    <glyph glyph-name="adieresis" unicode="&#xe4;" horiz-adv-x="603" 
d="M429 612q-10 -10 -25 -10t-26 10q-10 12 -10 26.5t11 24.5q14 17 34 9.5t25.5 -25.5t-9.5 -35zM199 602q-15 0 -25.5 10t-10.5 26q0 15 10.5 25.5t25.5 10.5q14 0 24.5 -10.5t10.5 -25.5t-10.5 -25.5t-24.5 -10.5zM493 399v105h50v-504h-50v105q-17 -49 -72 -84
q-53 -34 -128 -34q-108 0 -181 76t-73 189t73 189t181 76q73 0 128 -35q56 -35 72 -83zM293 34q89 0 147 61q59 62 59 157q0 94 -59 156t-147 62q-87 0 -146 -63q-58 -62 -58 -155q0 -94 58 -156q59 -62 146 -62z" />
    <glyph glyph-name="aring" unicode="&#xe5;" horiz-adv-x="603" 
d="M222 643q0 33 24 57t58 24q33 0 57 -24.5t24 -56.5q0 -34 -23.5 -58t-57.5 -24t-58 24t-24 58zM304 598q17 0 30.5 13.5t13.5 31.5t-13.5 31t-30.5 13q-18 0 -31.5 -13t-13.5 -31t13.5 -31.5t31.5 -13.5zM493 399v105h50v-504h-50v105q-17 -49 -72 -84q-53 -34 -128 -34
q-108 0 -181 76t-73 189t73 189t181 76q73 0 128 -35q56 -35 72 -83zM293 34q89 0 147 61q59 62 59 157q0 94 -59 156t-147 62q-87 0 -146 -63q-58 -62 -58 -155q0 -94 58 -156q59 -62 146 -62z" />
    <glyph glyph-name="ae" unicode="&#xe6;" horiz-adv-x="903" 
d="M865 252v-11h-428q1 -90 56 -149q54 -58 139 -58q97 0 169 74l33 -32q-80 -89 -202 -89q-68 0 -121.5 31.5t-82.5 87.5q-21 -58 -76.5 -88.5t-138.5 -30.5q-80 0 -126.5 41t-46.5 109q0 67 45.5 107t122.5 40h96q49 0 70.5 20t21.5 61q0 55 -40 80t-93 25q-95 0 -148 -83
l-37 27q61 103 185 103q69 0 115.5 -31t57.5 -83q27 52 79.5 83t114.5 31q100 0 167 -76q68 -77 68 -189zM221 37q82 0 129 37t47 99q-5 38 -5 66q0 20 1 23q-27 -27 -89 -27h-96q-57 0 -88 -25.5t-31 -72.5q0 -100 132 -100zM441 286h371q-7 79 -59 132q-51 52 -123 52
q-76 0 -128 -52q-54 -54 -61 -132z" />
    <glyph glyph-name="ccedilla" unicode="&#xe7;" horiz-adv-x="524" 
d="M304 -13h-1l-18 -41h6q25 0 42.5 -17.5t17.5 -44.5q0 -67 -83 -67q-38 0 -66 22l15 28q26 -17 50 -17q18 0 30 9t12 24q0 40 -58 40q-12 0 -15 -1l29 68q-98 14 -162 86q-64 73 -64 176q0 113 76 189t189 76q118 0 191 -79l-30 -34q-63 66 -161 66q-92 0 -154 -63
q-61 -61 -61 -155t61 -156q62 -62 154 -62q98 0 161 66l30 -34q-73 -79 -191 -79z" />
    <glyph glyph-name="egrave" unicode="&#xe8;" horiz-adv-x="556" 
d="M320 552h-41l-84 145h65zM39 248v3q0 118 70 191q71 75 176 75q101 0 167 -73q67 -73 67 -179q0 -18 -1 -25h-430q1 -91 57 -148q55 -57 142 -57q95 0 165 73l33 -32q-76 -88 -198 -88q-109 0 -179 72q-69 74 -69 188zM90 285h377q-2 77 -54 131q-53 54 -128 54
q-79 0 -136 -54q-56 -53 -59 -131z" />
    <glyph glyph-name="eacute" unicode="&#xe9;" horiz-adv-x="556" 
d="M298 552h-40l59 145h66zM39 248v3q0 118 70 191q71 75 176 75q101 0 167 -73q67 -73 67 -179q0 -18 -1 -25h-430q1 -91 57 -148q55 -57 142 -57q95 0 165 73l33 -32q-76 -88 -198 -88q-109 0 -179 72q-69 74 -69 188zM90 285h377q-2 77 -54 131q-53 54 -128 54
q-79 0 -136 -54q-56 -53 -59 -131z" />
    <glyph glyph-name="ecircumflex" unicode="&#xea;" horiz-adv-x="556" 
d="M206 576h-62l129 123h42l130 -123h-62l-89 85zM39 248v3q0 118 70 191q71 75 176 75q101 0 167 -73q67 -73 67 -179q0 -18 -1 -25h-430q1 -91 57 -148q55 -57 142 -57q95 0 165 73l33 -32q-76 -88 -198 -88q-109 0 -179 72q-69 74 -69 188zM90 285h377q-2 77 -54 131
q-53 54 -128 54q-79 0 -136 -54q-56 -53 -59 -131z" />
    <glyph glyph-name="edieresis" unicode="&#xeb;" horiz-adv-x="556" 
d="M413 612q-10 -10 -25 -10t-26 10q-10 12 -10 26.5t11 24.5q14 17 34 9.5t25.5 -25.5t-9.5 -35zM207 612q-10 -10 -25 -10t-26 10q-10 12 -10 26.5t11 24.5q14 17 34 9.5t25.5 -25.5t-9.5 -35zM39 248v3q0 118 70 191q71 75 176 75q101 0 167 -73q67 -73 67 -179
q0 -18 -1 -25h-430q1 -91 57 -148q55 -57 142 -57q95 0 165 73l33 -32q-76 -88 -198 -88q-109 0 -179 72q-69 74 -69 188zM90 285h377q-2 77 -54 131q-53 54 -128 54q-79 0 -136 -54q-56 -53 -59 -131z" />
    <glyph glyph-name="igrave" unicode="&#xec;" horiz-adv-x="174" 
d="M110 552h-40l-85 145h65zM112 0h-50v504h50v-504z" />
    <glyph glyph-name="iacute" unicode="&#xed;" horiz-adv-x="174" 
d="M103 552h-40l60 145h65zM112 0h-50v504h50v-504z" />
    <glyph glyph-name="icircumflex" unicode="&#xee;" horiz-adv-x="174" 
d="M112 0h-50v504h50v-504zM20 576h-58l104 123h42l104 -123h-58l-67 87z" />
    <glyph glyph-name="idieresis" unicode="&#xef;" horiz-adv-x="174" 
d="M174 612q-10 -10 -25 -10t-26 10q-10 12 -10 26.5t11 24.5q14 17 34 9.5t25.5 -25.5t-9.5 -35zM49 612q-10 -10 -25 -10t-25 10q-11 11 -11 26t11 25q14 17 34 9.5t25.5 -25.5t-9.5 -35zM112 0h-50v504h50v-504z" />
    <glyph glyph-name="eth" unicode="&#xf0;" horiz-adv-x="534" 
d="M39 217q0 97 65 162q66 66 157 66q57 0 103.5 -24.5t70.5 -68.5q-12 60 -52 118.5t-94 101.5l-85 -82l-32 34l78 75q-64 43 -132 60l9 47q84 -21 159 -72l88 84l33 -35l-82 -77q114 -96 150 -226q21 -78 21 -146q0 -109 -62 -177t-167 -68q-95 0 -162 65q-66 64 -66 163z
M141 345q-50 -52 -50 -128t50 -129q49 -51 126 -51t126 51q51 52 51 129t-51 128q-49 52 -126 52t-126 -52z" />
    <glyph glyph-name="ntilde" unicode="&#xf1;" horiz-adv-x="541" 
d="M167 598l-34 2q5 36 27 57.5t54 21.5q30 0 67 -22t58 -22q42 0 51 47l34 -3q-10 -85 -83 -85q-31 0 -68 21q-37 22 -57 22q-40 0 -49 -39zM111 0h-50v504h50v-97q43 105 176 105q88 0 140 -55q54 -54 54 -146v-311h-50v301q0 75 -42.5 119.5t-112.5 44.5
q-75 0 -120 -53.5t-45 -140.5v-271z" />
    <glyph glyph-name="ograve" unicode="&#xf2;" horiz-adv-x="606" 
d="M114 63q-76 76 -76 189t76 189t189 76q112 0 188 -76q77 -77 77 -189t-77 -189q-76 -76 -188 -76q-113 0 -189 76zM149 407q-61 -61 -61 -155t61 -156q62 -62 154 -62q91 0 153 62q62 64 62 156q0 93 -62 155q-62 63 -153 63q-93 0 -154 -63zM328 552h-40l-85 145h65z
" />
    <glyph glyph-name="oacute" unicode="&#xf3;" horiz-adv-x="606" 
d="M317 552h-41l60 145h65zM114 63q-76 76 -76 189t76 189t189 76q112 0 188 -76q77 -77 77 -189t-77 -189q-76 -76 -188 -76q-113 0 -189 76zM149 407q-61 -61 -61 -155t61 -156q62 -62 154 -62q91 0 153 62q62 64 62 156q0 93 -62 155q-62 63 -153 63q-93 0 -154 -63z" />
    <glyph glyph-name="ocircumflex" unicode="&#xf4;" horiz-adv-x="606" 
d="M214 576h-62l130 123h42l130 -123h-63l-88 85zM114 63q-76 76 -76 189t76 189t189 76q112 0 188 -76q77 -77 77 -189t-77 -189q-76 -76 -188 -76q-113 0 -189 76zM149 407q-61 -61 -61 -155t61 -156q62 -62 154 -62q91 0 153 62q62 64 62 156q0 93 -62 155
q-62 63 -153 63q-93 0 -154 -63z" />
    <glyph glyph-name="otilde" unicode="&#xf5;" horiz-adv-x="606" 
d="M191 598l-34 2q5 36 27 57.5t54 21.5q29 0 66 -22q38 -22 59 -22q40 0 51 47l34 -3q-10 -85 -83 -85q-31 0 -68 21q-37 22 -57 22q-40 0 -49 -39zM114 63q-76 76 -76 189t76 189t189 76q112 0 188 -76q77 -77 77 -189t-77 -189q-76 -76 -188 -76q-113 0 -189 76zM149 407
q-61 -61 -61 -155t61 -156q62 -62 154 -62q91 0 153 62q62 64 62 156q0 93 -62 155q-62 63 -153 63q-93 0 -154 -63z" />
    <glyph glyph-name="odieresis" unicode="&#xf6;" horiz-adv-x="606" 
d="M431 612q-10 -10 -25 -10t-26 10q-10 12 -10 26.5t11 24.5q14 17 34 9.5t25.5 -25.5t-9.5 -35zM200 602q-14 0 -24.5 10t-10.5 26q0 24 21.5 33t38.5 -8q18 -16 8 -38.5t-33 -22.5zM114 63q-76 76 -76 189t76 189t189 76q112 0 188 -76q77 -77 77 -189t-77 -189
q-76 -76 -188 -76q-113 0 -189 76zM149 407q-61 -61 -61 -155t61 -156q62 -62 154 -62q91 0 153 62q62 64 62 156q0 93 -62 155q-62 63 -153 63q-93 0 -154 -63z" />
    <glyph glyph-name="divide" unicode="&#xf7;" horiz-adv-x="410" 
d="M205 436q-15 0 -25.5 10t-10.5 25t10.5 25.5t25.5 10.5q14 0 25 -10.5t11 -25.5t-10.5 -25t-25.5 -10zM364 325h-318v47h318v-47zM205 189q-15 0 -25.5 10.5t-10.5 25.5t11 25.5t25 10.5t25 -10.5t11 -25.5t-11 -25.5t-25 -10.5z" />
    <glyph glyph-name="oslash" unicode="&#xf8;" horiz-adv-x="606" 
d="M124 -33l-36 27l41 56q-91 76 -91 202q0 113 76 189t189 76q75 0 140 -39l39 52l36 -26l-39 -52q89 -78 89 -200q0 -112 -77 -189q-76 -76 -188 -76q-73 0 -137 37zM158 89l257 350q-52 31 -112 31q-93 0 -154 -63q-61 -61 -61 -155q0 -100 70 -163zM451 412l-257 -349
q47 -29 109 -29q91 0 153 62q62 64 62 156q0 99 -67 160z" />
    <glyph glyph-name="ugrave" unicode="&#xf9;" horiz-adv-x="526" 
d="M295 552h-41l-84 145h65zM55 191v313h50v-308q0 -77 41.5 -118.5t116.5 -41.5t116.5 41.5t41.5 118.5v308h50v-313q0 -96 -56 -149t-152 -53t-152 53t-56 149z" />
    <glyph glyph-name="uacute" unicode="&#xfa;" horiz-adv-x="526" 
d="M55 191v313h50v-308q0 -77 41.5 -118.5t116.5 -41.5t116.5 41.5t41.5 118.5v308h50v-313q0 -96 -56 -149t-152 -53t-152 53t-56 149zM271 552h-40l60 145h65z" />
    <glyph glyph-name="ucircumflex" unicode="&#xfb;" horiz-adv-x="526" 
d="M175 576h-62l129 123h42l130 -123h-63l-88 85zM55 191v313h50v-308q0 -77 41.5 -118.5t116.5 -41.5t116.5 41.5t41.5 118.5v308h50v-313q0 -96 -56 -149t-152 -53t-152 53t-56 149z" />
    <glyph glyph-name="udieresis" unicode="&#xfc;" horiz-adv-x="526" 
d="M391 612q-10 -10 -25 -10t-26 10q-10 12 -10 26.5t11 24.5q14 17 34 9.5t25.5 -25.5t-9.5 -35zM160 602q-14 0 -24.5 10t-10.5 26q0 24 21.5 33t38.5 -8q18 -16 8 -38.5t-33 -22.5zM55 191v313h50v-308q0 -77 41.5 -118.5t116.5 -41.5t116.5 41.5t41.5 118.5v308h50v-313
q0 -96 -56 -149t-152 -53t-152 53t-56 149z" />
    <glyph glyph-name="yacute" unicode="&#xfd;" horiz-adv-x="502" 
d="M137 -193l82 193l-200 504h52l174 -443l186 443h53l-296 -697h-51zM261 552h-40l60 145h65z" />
    <glyph glyph-name="thorn" unicode="&#xfe;" horiz-adv-x="603" 
d="M61 -193v890h50v-298q16 48 71 83q56 35 129 35q107 0 180 -76q74 -77 74 -189t-74 -189q-73 -76 -180 -76q-74 0 -129 34q-55 35 -71 84v-298h-50zM516 252q0 91 -59 155q-58 63 -146 63t-147 -62t-59 -156q0 -95 59 -157q58 -61 147 -61q87 0 146 62q59 64 59 156z" />
    <glyph glyph-name="ydieresis" unicode="&#xff;" horiz-adv-x="502" 
d="M349 602q-15 0 -25.5 10t-10.5 26q0 15 10.5 25.5t25.5 10.5q14 0 24.5 -10.5t10.5 -25.5t-10.5 -25.5t-24.5 -10.5zM168 612q-10 -10 -25 -10t-26 10q-10 12 -10 26.5t11 24.5q14 17 34 9.5t25.5 -25.5t-9.5 -35zM137 -193l82 193l-200 504h52l174 -443l186 443h53
l-296 -697h-51z" />
    <glyph glyph-name="Amacron" unicode="&#x100;" horiz-adv-x="685" 
d="M91 0h-56l287 697h41l287 -697h-56l-78 190h-348zM342 617l-154 -379h308zM489 769h-294v47h294v-47z" />
    <glyph glyph-name="amacron" unicode="&#x101;" horiz-adv-x="603" 
d="M493 399v105h50v-504h-50v105q-17 -49 -72 -84q-53 -34 -128 -34q-108 0 -181 76t-73 189t73 189t181 76q73 0 128 -35q56 -35 72 -83zM293 34q89 0 147 61q59 62 59 157q0 94 -59 156t-147 62q-87 0 -146 -63q-58 -62 -58 -155q0 -94 58 -156q59 -62 146 -62zM453 607
h-294v47h294v-47z" />
    <glyph glyph-name="Abreve" unicode="&#x102;" horiz-adv-x="685" 
d="M209 869h47q19 -73 86 -73t86 73h48q-7 -53 -44.5 -85.5t-89.5 -32.5t-89 32.5t-44 85.5zM91 0h-56l287 697h41l287 -697h-56l-78 190h-348zM342 617l-154 -379h308z" />
    <glyph glyph-name="abreve" unicode="&#x103;" horiz-adv-x="603" 
d="M165 697h47q21 -73 86 -73q67 0 86 73h47q-7 -53 -44 -85.5t-89 -32.5t-89 32.5t-44 85.5zM493 399v105h50v-504h-50v105q-17 -49 -72 -84q-53 -34 -128 -34q-108 0 -181 76t-73 189t73 189t181 76q73 0 128 -35q56 -35 72 -83zM293 34q89 0 147 61q59 62 59 157
q0 94 -59 156t-147 62q-87 0 -146 -63q-58 -62 -58 -155q0 -94 58 -156q59 -62 146 -62z" />
    <glyph glyph-name="Aogonek" unicode="&#x104;" horiz-adv-x="685" 
d="M91 0h-56l287 697h41l287 -697q-35 -16 -59.5 -44.5t-24.5 -56.5q0 -23 14.5 -36t38.5 -13q33 0 58 15l-9 -43q-25 -13 -57 -13q-37 0 -63 23t-26 58q0 32 20.5 60.5t52.5 46.5l-1 2l-78 191h-348zM342 617l-154 -379h308z" />
    <glyph glyph-name="aogonek" unicode="&#x105;" horiz-adv-x="603" 
d="M293 517q73 0 128 -35q56 -35 72 -83v105h50v-502q-37 -20 -60.5 -47.5t-23.5 -55.5q0 -23 14.5 -36t38.5 -13q34 0 59 15l-10 -43q-25 -13 -57 -13q-37 0 -63 23t-26 58q0 32 21.5 61.5t56.5 48.5v105q-17 -49 -72 -84q-53 -34 -128 -34q-108 0 -181 76t-73 189t73 189
t181 76zM88 252q0 -94 58 -156q59 -62 147 -62q89 0 147 61q59 62 59 157q0 94 -59 156t-147 62q-89 0 -147 -63q-58 -62 -58 -155z" />
    <glyph glyph-name="Cacute" unicode="&#x106;" horiz-adv-x="719" 
d="M412 709q162 0 266 -117l-35 -33q-89 102 -231 102q-132 0 -221 -90q-88 -88 -88 -223t88 -223q89 -89 221 -89q146 0 232 104l36 -33q-102 -119 -268 -119q-153 0 -257 103q-104 104 -104 257t104 257q106 104 257 104zM425 745h-40l60 145h65z" />
    <glyph glyph-name="cacute" unicode="&#x107;" horiz-adv-x="524" 
d="M304 517q118 0 191 -79l-30 -34q-63 66 -161 66q-92 0 -154 -63q-61 -61 -61 -155t61 -156q62 -62 154 -62q98 0 161 66l30 -34q-73 -79 -191 -79q-113 0 -189 76t-76 189t76 189t189 76zM317 552h-40l60 145h65z" />
    <glyph glyph-name="Ccircumflex" unicode="&#x108;" horiz-adv-x="719" 
d="M327 769h-62l129 123h42l130 -123h-62l-89 85zM412 709q162 0 266 -117l-35 -33q-89 102 -231 102q-132 0 -221 -90q-88 -88 -88 -223t88 -223q89 -89 221 -89q146 0 232 104l36 -33q-102 -119 -268 -119q-153 0 -257 103q-104 104 -104 257t104 257q106 104 257 104z
" />
    <glyph glyph-name="ccircumflex" unicode="&#x109;" horiz-adv-x="524" 
d="M218 576h-62l129 123h42l130 -123h-62l-89 85zM304 517q118 0 191 -79l-30 -34q-63 66 -161 66q-92 0 -154 -63q-61 -61 -61 -155t61 -156q62 -62 154 -62q98 0 161 66l30 -34q-73 -79 -191 -79q-113 0 -189 76t-76 189t76 189t189 76z" />
    <glyph glyph-name="Cdotaccent" unicode="&#x10a;" horiz-adv-x="719" 
d="M436 778q-25 -22 -50 0q-11 11 -11 26t10 25q15 16 35 9t25.5 -25t-9.5 -35zM412 709q162 0 266 -117l-35 -33q-89 102 -231 102q-132 0 -221 -90q-88 -88 -88 -223t88 -223q89 -89 221 -89q146 0 232 104l36 -33q-102 -119 -268 -119q-153 0 -257 103q-104 104 -104 257
t104 257q106 104 257 104z" />
    <glyph glyph-name="cdotaccent" unicode="&#x10b;" horiz-adv-x="524" 
d="M306 596q-15 0 -25.5 10t-10.5 25t10.5 25.5t25.5 10.5q14 0 25 -10.5t11 -25.5t-10.5 -25t-25.5 -10zM304 517q118 0 191 -79l-30 -34q-63 66 -161 66q-92 0 -154 -63q-61 -61 -61 -155t61 -156q62 -62 154 -62q98 0 161 66l30 -34q-73 -79 -191 -79q-113 0 -189 76
t-76 189t76 189t189 76z" />
    <glyph glyph-name="Ccaron" unicode="&#x10c;" horiz-adv-x="719" 
d="M435 767h-42l-130 123h63l88 -85l88 85h62zM412 709q162 0 266 -117l-35 -33q-89 102 -231 102q-132 0 -221 -90q-88 -88 -88 -223t88 -223q89 -89 221 -89q146 0 232 104l36 -33q-102 -119 -268 -119q-153 0 -257 103q-104 104 -104 257t104 257q106 104 257 104z" />
    <glyph glyph-name="ccaron" unicode="&#x10d;" horiz-adv-x="524" 
d="M324 574h-42l-130 123h63l88 -85l88 85h62zM304 517q118 0 191 -79l-30 -34q-63 66 -161 66q-92 0 -154 -63q-61 -61 -61 -155t61 -156q62 -62 154 -62q98 0 161 66l30 -34q-73 -79 -191 -79q-113 0 -189 76t-76 189t76 189t189 76z" />
    <glyph glyph-name="Dcaron" unicode="&#x10e;" horiz-adv-x="705" 
d="M295 0h-213v697h212q164 0 262 -96t98 -253t-97 -253q-97 -95 -262 -95zM134 649v-601h156q148 0 229 81q82 82 82 219t-82 219q-81 82 -230 82h-155zM348 767h-42l-130 123h63l88 -85l88 85h62z" />
    <glyph glyph-name="dcaron" unicode="&#x10f;" horiz-adv-x="740" 
d="M618 552h-40l59 145h66zM493 399v298h50v-697h-50v105q-17 -49 -72 -84q-53 -34 -128 -34q-108 0 -181 76t-73 189t73 189t181 76q73 0 128 -35q56 -35 72 -83zM88 252q0 -94 58 -156q59 -62 147 -62q89 0 147 61q59 62 59 157q0 94 -59 156t-147 62q-89 0 -147 -63
q-58 -62 -58 -155z" />
    <glyph glyph-name="Dcroat" unicode="&#x110;" horiz-adv-x="722" 
d="M311 0h-212v334h-64v49h64v314h211q166 0 263 -96t97 -253t-97 -253q-97 -95 -262 -95zM151 334v-286h156q148 0 229 82q82 82 82 218q0 137 -82 219q-81 82 -230 82h-155v-266h144v-49h-144z" />
    <glyph glyph-name="dslash" unicode="&#x111;" horiz-adv-x="604" 
d="M293 517q73 0 128 -35q56 -35 72 -83v186h-222v41h222v71h50v-71h52v-41h-52v-585h-50v105q-17 -49 -72 -84q-53 -34 -128 -34q-108 0 -181 76t-73 189t73 189t181 76zM88 252q0 -94 58 -156q59 -62 147 -62q89 0 147 61q59 62 59 157q0 94 -59 156t-147 62
q-89 0 -147 -63q-58 -62 -58 -155z" />
    <glyph glyph-name="Emacron" unicode="&#x112;" horiz-adv-x="543" 
d="M483 0h-387v697h380v-48h-328v-256h309v-49h-309v-296h335v-48zM432 769h-294v47h294v-47z" />
    <glyph glyph-name="emacron" unicode="&#x113;" horiz-adv-x="556" 
d="M39 248v3q0 118 70 191q71 75 176 75q101 0 167 -73q67 -73 67 -179q0 -18 -1 -25h-430q1 -91 57 -148q55 -57 142 -57q95 0 165 73l33 -32q-76 -88 -198 -88q-109 0 -179 72q-69 74 -69 188zM90 285h377q-2 77 -54 131q-53 54 -128 54q-79 0 -136 -54q-56 -53 -59 -131z
M433 607h-294v47h294v-47z" />
    <glyph glyph-name="Ebreve" unicode="&#x114;" horiz-adv-x="543" 
d="M159 869h47q19 -73 86 -73t86 73h47q-7 -53 -44 -85.5t-89 -32.5t-89 32.5t-44 85.5zM483 0h-387v697h380v-48h-328v-256h309v-49h-309v-296h335v-48z" />
    <glyph glyph-name="ebreve" unicode="&#x115;" horiz-adv-x="556" 
d="M153 697h47q21 -73 86 -73q67 0 86 73h47q-7 -53 -44 -85.5t-89 -32.5t-89 32.5t-44 85.5zM39 248v3q0 118 70 191q71 75 176 75q101 0 167 -73q67 -73 67 -179q0 -18 -1 -25h-430q1 -91 57 -148q55 -57 142 -57q95 0 165 73l33 -32q-76 -88 -198 -88q-109 0 -179 72
q-69 74 -69 188zM90 285h377q-2 77 -54 131q-53 54 -128 54q-79 0 -136 -54q-56 -53 -59 -131z" />
    <glyph glyph-name="Edotaccent" unicode="&#x116;" horiz-adv-x="543" 
d="M315 778q-25 -22 -50 0q-11 11 -11 26t10 25q15 16 35 9t25.5 -25t-9.5 -35zM483 0h-387v697h380v-48h-328v-256h309v-49h-309v-296h335v-48z" />
    <glyph glyph-name="edotaccent" unicode="&#x117;" horiz-adv-x="556" 
d="M310 612q-10 -10 -25 -10t-26 10q-10 12 -10 26.5t11 24.5q14 17 34 9.5t25.5 -25.5t-9.5 -35zM39 248v3q0 118 70 191q71 75 176 75q101 0 167 -73q67 -73 67 -179q0 -18 -1 -25h-430q1 -91 57 -148q55 -57 142 -57q95 0 165 73l33 -32q-76 -88 -198 -88q-109 0 -179 72
q-69 74 -69 188zM90 285h377q-2 77 -54 131q-53 54 -128 54q-79 0 -136 -54q-56 -53 -59 -131z" />
    <glyph glyph-name="Eogonek" unicode="&#x118;" horiz-adv-x="543" 
d="M437 0h-341v697h380v-48h-328v-256h309v-49h-309v-296h335v-48q-35 -20 -57.5 -47t-22.5 -54q0 -23 14.5 -36t38.5 -13q34 0 59 15l-10 -43q-25 -13 -57 -13q-37 0 -63 23t-26 58q0 34 21.5 63t56.5 47z" />
    <glyph glyph-name="eogonek" unicode="&#x119;" horiz-adv-x="556" 
d="M39 248v3q0 118 70 191q71 75 176 75q101 0 167 -73q67 -73 67 -179q0 -17 -1 -24h-430q2 -92 57 -149t142 -57q95 0 165 73l33 -32q-19 -22 -64 -54l-27 -17q-25 -15 -30 -19q-55 -44 -48 -79q0 -23 15 -36t37 -13q32 0 58 15l-9 -43q-25 -13 -57 -13q-37 0 -62 23
t-25 58q0 63 51 93q-18 -3 -37 -3q-109 0 -179 72q-69 74 -69 188zM90 285h377q-2 77 -54 131q-53 54 -128 54q-79 0 -136 -54q-56 -53 -59 -131z" />
    <glyph glyph-name="Ecaron" unicode="&#x11a;" horiz-adv-x="543" 
d="M483 0h-387v697h380v-48h-328v-256h309v-49h-309v-296h335v-48zM310 767h-42l-130 123h63l88 -85l88 85h62z" />
    <glyph glyph-name="ecaron" unicode="&#x11b;" horiz-adv-x="556" 
d="M312 574h-42l-130 123h63l88 -85l88 85h62zM39 248v3q0 118 70 191q71 75 176 75q101 0 167 -73q67 -73 67 -179q0 -18 -1 -25h-430q1 -91 57 -148q55 -57 142 -57q95 0 165 73l33 -32q-76 -88 -198 -88q-109 0 -179 72q-69 74 -69 188zM90 285h377q-2 77 -54 131
q-53 54 -128 54q-79 0 -136 -54q-56 -53 -59 -131z" />
    <glyph glyph-name="Gcircumflex" unicode="&#x11c;" horiz-adv-x="737" 
d="M324 769h-62l130 123h42l130 -123h-63l-88 85zM410 708q128 0 223 -75l-31 -37q-82 64 -192 64q-132 0 -220 -90q-88 -88 -88 -222t87 -224q89 -89 221 -89q125 0 211 77v211h-229v48h281v-278q-107 -106 -263 -106q-153 0 -256 103q-104 104 -104 258q0 153 104 257
q103 103 256 103z" />
    <glyph glyph-name="gcircumflex" unicode="&#x11d;" horiz-adv-x="604" 
d="M216 576h-62l129 123h42l130 -123h-62l-89 85zM493 398v106h50v-429q0 -93 -15.5 -146t-61.5 -89q-65 -53 -171 -53q-141 0 -236 78l27 39q82 -70 208 -70q90 0 141 42q58 48 58 172v62q-24 -56 -76.5 -89t-123.5 -33q-108 0 -181 76t-73 190q0 113 73 187q73 76 181 76
q71 0 123.5 -32t76.5 -87zM293 35q89 0 147 61q59 62 59 156t-59 156t-147 62q-87 0 -146 -62q-58 -61 -58 -154q0 -95 58 -157q59 -62 146 -62z" />
    <glyph glyph-name="Gbreve" unicode="&#x11e;" horiz-adv-x="737" 
d="M276 869h47q19 -73 86 -73t86 73h47q-7 -53 -44 -85.5t-89 -32.5t-89 32.5t-44 85.5zM410 708q128 0 223 -75l-31 -37q-82 64 -192 64q-132 0 -220 -90q-88 -88 -88 -222t87 -224q89 -89 221 -89q125 0 211 77v211h-229v48h281v-278q-107 -106 -263 -106q-153 0 -256 103
q-104 104 -104 258q0 153 104 257q103 103 256 103z" />
    <glyph glyph-name="gbreve" unicode="&#x11f;" horiz-adv-x="604" 
d="M173 697h47q21 -73 86 -73q67 0 86 73h48q-7 -53 -44.5 -85.5t-89.5 -32.5t-89 32.5t-44 85.5zM493 398v106h50v-429q0 -93 -15.5 -146t-61.5 -89q-65 -53 -171 -53q-141 0 -236 78l27 39q82 -70 208 -70q90 0 141 42q58 48 58 172v62q-24 -56 -76.5 -89t-123.5 -33
q-108 0 -181 76t-73 190q0 113 73 187q73 76 181 76q71 0 123.5 -32t76.5 -87zM293 35q89 0 147 61q59 62 59 156t-59 156t-147 62q-87 0 -146 -62q-58 -61 -58 -154q0 -95 58 -157q59 -62 146 -62z" />
    <glyph glyph-name="Gdotaccent" unicode="&#x120;" horiz-adv-x="737" 
d="M411 768q-15 0 -25.5 10.5t-10.5 25.5q0 16 10.5 26t25.5 10q14 0 24.5 -10.5t10.5 -25.5t-10.5 -25.5t-24.5 -10.5zM410 708q128 0 223 -75l-31 -37q-82 64 -192 64q-132 0 -220 -90q-88 -88 -88 -222t87 -224q89 -89 221 -89q125 0 211 77v211h-229v48h281v-278
q-107 -106 -263 -106q-153 0 -256 103q-104 104 -104 258q0 153 104 257q103 103 256 103z" />
    <glyph glyph-name="gdotaccent" unicode="&#x121;" horiz-adv-x="604" 
d="M323 609q-10 -10 -25 -10t-26 10q-10 11 -10 26t10 25q15 16 35 9t25.5 -25t-9.5 -35zM493 398v106h50v-429q0 -93 -15.5 -146t-61.5 -89q-65 -53 -171 -53q-141 0 -236 78l27 39q82 -70 208 -70q90 0 141 42q58 48 58 172v62q-24 -56 -76.5 -89t-123.5 -33
q-108 0 -181 76t-73 190q0 113 73 187q73 76 181 76q71 0 123.5 -32t76.5 -87zM293 35q89 0 147 61q59 62 59 156t-59 156t-147 62q-87 0 -146 -62q-58 -61 -58 -154q0 -95 58 -157q59 -62 146 -62z" />
    <glyph glyph-name="Gcommaaccent" unicode="&#x122;" horiz-adv-x="737" 
d="M410 708q128 0 223 -75l-31 -37q-82 64 -192 64q-132 0 -220 -90q-88 -88 -88 -222t87 -224q89 -89 221 -89q125 0 211 77v211h-229v48h281v-278q-107 -106 -263 -106q-153 0 -256 103q-104 104 -104 258q0 153 104 257q103 103 256 103zM355 -193h-40l60 145h65z" />
    <glyph glyph-name="gcommaaccent" unicode="&#x123;" horiz-adv-x="604" 
d="M306 552h-41l60 145h66zM493 398v106h50v-429q0 -93 -15.5 -146t-61.5 -89q-65 -53 -171 -53q-141 0 -236 78l27 39q82 -70 208 -70q90 0 141 42q58 48 58 172v62q-24 -56 -76.5 -89t-123.5 -33q-108 0 -181 76t-73 190q0 113 73 187q73 76 181 76q71 0 123.5 -32
t76.5 -87zM293 35q89 0 147 61q59 62 59 156t-59 156t-147 62q-87 0 -146 -62q-58 -61 -58 -154q0 -95 58 -157q59 -62 146 -62z" />
    <glyph glyph-name="Hcircumflex" unicode="&#x124;" horiz-adv-x="709" 
d="M148 0h-52v697h52v-303h413v303h52v-697h-52v346h-413v-346zM265 769h-62l130 123h42l130 -123h-63l-88 85z" />
    <glyph glyph-name="hcircumflex" unicode="&#x125;" horiz-adv-x="531" 
d="M7 721h-61l122 123h42l122 -123h-62l-81 84zM111 0h-50v697h50v-290q41 105 171 105q85 0 137 -55q52 -53 52 -146v-311h-50v301q0 75 -41 119.5t-109 44.5q-73 0 -116.5 -53t-43.5 -141v-271z" />
    <glyph glyph-name="Hbar" unicode="&#x126;" horiz-adv-x="709" 
d="M148 0h-52v515h-63v47h63v135h52v-135h413v135h52v-135h55v-47h-55v-515h-52v346h-413v-346zM148 515v-121h413v121h-413z" />
    <glyph glyph-name="hbar" unicode="&#x127;" horiz-adv-x="534" 
d="M114 0h-50v583h-59v42h59v72h50v-72h209v-42h-209v-176q40 105 171 105q85 0 137 -55q52 -53 52 -146v-311h-50v301q0 76 -41 120.5t-109 44.5q-73 0 -116.5 -53.5t-43.5 -141.5v-271z" />
    <glyph glyph-name="Itilde" unicode="&#x128;" horiz-adv-x="251" 
d="M21 765l-34 3q5 36 26 57.5t53 21.5q28 0 62 -22t54 -22q40 0 49 47l34 -3q-11 -86 -81 -86q-29 0 -63 22t-54 22q-39 0 -46 -40zM152 0h-52v697h52v-697z" />
    <glyph glyph-name="itilde" unicode="&#x129;" horiz-adv-x="184" 
d="M1 599l-33 3q5 35 23.5 56t45.5 21q23 0 57 -22t49 -22q32 0 41 47l32 -3q-10 -84 -70 -84q-23 0 -57 22t-49 22q-33 0 -39 -40zM117 0h-50v504h50v-504z" />
    <glyph glyph-name="Imacron" unicode="&#x12a;" horiz-adv-x="251" 
d="M252 769h-253v47h253v-47zM152 0h-52v697h52v-697z" />
    <glyph glyph-name="imacron" unicode="&#x12b;" horiz-adv-x="174" 
d="M196 607h-219v47h219v-47zM112 0h-50v504h50v-504z" />
    <glyph glyph-name="Ibreve" unicode="&#x12c;" horiz-adv-x="251" 
d="M-8 869h47q19 -73 86 -73q68 0 87 73h47q-7 -53 -44.5 -85.5t-89.5 -32.5t-89 32.5t-44 85.5zM152 0h-52v697h52v-697z" />
    <glyph glyph-name="ibreve" unicode="&#x12d;" horiz-adv-x="174" 
d="M-27 697h46q3 -31 20.5 -50t46.5 -19q30 0 47.5 18t20.5 51h47q-4 -53 -35.5 -83.5t-79.5 -30.5t-78.5 30.5t-34.5 83.5zM112 0h-50v504h50v-504z" />
    <glyph glyph-name="Iogonek" unicode="&#x12e;" horiz-adv-x="251" 
d="M100 -2v1v698h52v-697q-33 -16 -57 -44.5t-24 -56.5q0 -23 14.5 -36t38.5 -13q34 0 59 15l-10 -43q-25 -13 -57 -13q-37 0 -63 23t-26 58q0 65 73 108z" />
    <glyph glyph-name="iogonek" unicode="&#x12f;" horiz-adv-x="174" 
d="M87 602q-15 0 -25.5 10.5t-10.5 25.5t11 25.5t25 10.5t25 -10.5t11 -25.5t-11 -25.5t-25 -10.5zM62 -2v1v505h50v-503q-82 -46 -82 -102q0 -23 14.5 -36t38.5 -13q32 0 58 15l-9 -43q-25 -13 -57 -13q-37 0 -63 23t-26 58q0 33 21.5 62.5t54.5 45.5z" />
    <glyph glyph-name="Idot" unicode="&#x130;" horiz-adv-x="251" 
d="M151 778q-25 -22 -50 0q-11 11 -11 26t10 25q15 16 35 9t25.5 -25t-9.5 -35zM152 0h-52v697h52v-697z" />
    <glyph glyph-name="dotlessi" unicode="&#x131;" horiz-adv-x="174" 
d="M112 0h-50v504h50v-504z" />
    <glyph glyph-name="IJ" unicode="&#x132;" horiz-adv-x="451" 
d="M100 -4v49q34 -8 93 -8q71 0 94 39q22 38 22 116v505h52v-499q0 -97 -30 -149q-32 -61 -133 -61q-50 0 -98 8zM152 141h-52v556h52v-556z" />
    <glyph glyph-name="ij" unicode="&#x133;" horiz-adv-x="336" 
d="M214 638q0 15 10.5 25.5t24.5 10.5t25 -10.5t11 -25.5q0 -22 -17.5 -31t-35.5 -0.5t-18 31.5zM87 602q-15 0 -25.5 10.5t-10.5 25.5t11 25.5t25 10.5t25 -10.5t11 -25.5t-11 -25.5t-25 -10.5zM70 -3v47q31 -10 75 -10q42 0 61 22t19 71v377h50v-377q0 -75 -38 -110
q-32 -29 -96 -29q-39 0 -71 9zM111 138h-49v366h49v-366z" />
    <glyph glyph-name="Jcircumflex" unicode="&#x134;" horiz-adv-x="318" 
d="M19 -4v51q24 -9 57 -9q54 0 76 34.5t22 109.5v515h52v-513q0 -88 -26 -139q-29 -57 -122 -57q-35 0 -59 8zM112 769h-62l127 123h42l127 -123h-63l-85 85z" />
    <glyph glyph-name="jcircumflex" unicode="&#x135;" horiz-adv-x="192" 
d="M71 -70v574h50v-574q0 -136 -128 -136q-21 0 -33 3v47q18 -3 38 -3q39 0 56 20.5t17 68.5zM28 576h-58l104 123h42l105 -123h-58l-68 87z" />
    <glyph glyph-name="Kcommaaccent" unicode="&#x136;" horiz-adv-x="622" 
d="M148 0h-52v697h52v-399l366 399h65l-281 -308l292 -389h-63l-264 352l-115 -126v-226zM271 -193h-40l60 145h65z" />
    <glyph glyph-name="kcommaaccent" unicode="&#x137;" horiz-adv-x="449" 
d="M150 -193l60 145h65l-85 -145h-40zM111 0h-50v697h50v-470l245 277h60l-195 -221l218 -283h-61l-189 246l-78 -86v-160z" />
    <glyph glyph-name="Lacute" unicode="&#x139;" horiz-adv-x="491" 
d="M448 0h-352v697h52v-649h300v-48zM145 745h-40l60 145h65z" />
    <glyph glyph-name="lacute" unicode="&#x13a;" horiz-adv-x="174" 
d="M103 722h-40l59 145h66zM112 0h-50v697h50v-697z" />
    <glyph glyph-name="Lcommaaccent" unicode="&#x13b;" horiz-adv-x="491" 
d="M448 0h-352v697h52v-649h300v-48zM187 -193l59 145h66l-85 -145h-40z" />
    <glyph glyph-name="lcommaaccent" unicode="&#x13c;" horiz-adv-x="174" 
d="M0 -193l60 145h65l-85 -145h-40zM112 0h-50v697h50v-697z" />
    <glyph glyph-name="Lcaron" unicode="&#x13d;" horiz-adv-x="491" 
d="M448 0h-352v697h52v-649h300v-48zM295 552h-40l60 145h65z" />
    <glyph glyph-name="lcaron" unicode="&#x13e;" horiz-adv-x="271" 
d="M186 552h-40l60 145h65zM112 0h-50v697h50v-697z" />
    <glyph glyph-name="Ldot" unicode="&#x13f;" horiz-adv-x="491" 
d="M448 0h-352v697h52v-649h300v-48zM332 351q-10 -10 -25 -10t-26 10q-10 12 -10 26.5t11 24.5q14 17 34 9.5t25.5 -25.5t-9.5 -35z" />
    <glyph glyph-name="ldot" unicode="&#x140;" horiz-adv-x="270" 
d="M185 333q-14 0 -24.5 10.5t-10.5 25.5t10.5 25t24.5 10q15 0 25.5 -10t10.5 -25q0 -16 -10.5 -26t-25.5 -10zM112 0h-50v697h50v-697z" />
    <glyph glyph-name="Lslash" unicode="&#x141;" horiz-adv-x="490" 
d="M448 0h-352v298l-67 -38v52l67 38v347h52v-318l141 83v-53l-141 -82v-279h300v-48z" />
    <glyph glyph-name="lslash" unicode="&#x142;" horiz-adv-x="202" 
d="M126 0h-50v328l-68 -41v52l68 40v318h50v-288l85 51v-51l-85 -52v-357z" />
    <glyph glyph-name="Nacute" unicode="&#x143;" horiz-adv-x="733" 
d="M368 745h-40l59 145h66zM148 0h-52v697h45l444 -603v603h52v-697h-43l-446 607v-607z" />
    <glyph glyph-name="nacute" unicode="&#x144;" horiz-adv-x="541" 
d="M111 0h-50v504h50v-97q43 105 176 105q88 0 140 -55q54 -54 54 -146v-311h-50v301q0 75 -42.5 119.5t-112.5 44.5q-75 0 -120 -53.5t-45 -140.5v-271zM283 552h-40l60 145h65z" />
    <glyph glyph-name="Ncommaaccent" unicode="&#x145;" horiz-adv-x="733" 
d="M148 0h-52v697h45l444 -603v603h52v-697h-43l-446 607v-607zM328 -193h-40l60 145h65z" />
    <glyph glyph-name="ncommaaccent" unicode="&#x146;" horiz-adv-x="541" 
d="M185 -193l60 145h65l-85 -145h-40zM111 0h-50v504h50v-97q43 105 176 105q88 0 140 -55q54 -54 54 -146v-311h-50v301q0 75 -42.5 119.5t-112.5 44.5q-75 0 -120 -53.5t-45 -140.5v-271z" />
    <glyph glyph-name="Ncaron" unicode="&#x147;" horiz-adv-x="733" 
d="M148 0h-52v697h45l444 -603v603h52v-697h-43l-446 607v-607zM387 767h-42l-130 123h63l88 -85l88 85h62z" />
    <glyph glyph-name="ncaron" unicode="&#x148;" horiz-adv-x="541" 
d="M300 574h-42l-130 123h63l88 -85l88 85h62zM111 0h-50v504h50v-97q43 105 176 105q88 0 140 -55q54 -54 54 -146v-311h-50v301q0 75 -42.5 119.5t-112.5 44.5q-75 0 -120 -53.5t-45 -140.5v-271z" />
    <glyph glyph-name="Eng" unicode="&#x14a;" horiz-adv-x="733" 
d="M148 0h-52v697h46l443 -614v614h52v-706q0 -100 -34 -148t-116 -48q-31 0 -57 9v50q21 -10 57 -10q54 0 76 36.5t22 110.5v10l-437 606v-607z" />
    <glyph glyph-name="eng" unicode="&#x14b;" horiz-adv-x="531" 
d="M111 0h-50v504h50v-97q41 105 172 105q86 0 138 -54.5t52 -146.5v-381q0 -136 -128 -136q-21 0 -33 3v47q18 -3 38 -3q39 0 56 20.5t17 68.5v371q0 76 -41 120.5t-110 44.5q-74 0 -117.5 -53.5t-43.5 -141.5v-271z" />
    <glyph glyph-name="Omacron" unicode="&#x14c;" horiz-adv-x="822" 
d="M558 770h-294v46h294v-46zM411 709q151 0 255 -104q105 -103 105 -257t-105 -257q-103 -103 -255 -103q-153 0 -256 103q-104 104 -104 257t104 257t256 104zM411 37q132 0 219 89q88 88 88 222t-88 222q-88 90 -219 90t-220 -90q-89 -89 -89 -222q0 -134 88 -222
q89 -89 221 -89z" />
    <glyph glyph-name="omacron" unicode="&#x14d;" horiz-adv-x="606" 
d="M114 63q-76 76 -76 189t76 189t189 76q112 0 188 -76q77 -77 77 -189t-77 -189q-76 -76 -188 -76q-113 0 -189 76zM149 407q-61 -61 -61 -155t61 -156q62 -62 154 -62q91 0 153 62q62 64 62 156q0 93 -62 155q-62 63 -153 63q-93 0 -154 -63zM451 607h-294v47h294v-47z
" />
    <glyph glyph-name="Obreve" unicode="&#x14e;" horiz-adv-x="822" 
d="M278 869h47q19 -73 86 -73t86 73h47q-7 -53 -44 -85.5t-89 -32.5t-89 32.5t-44 85.5zM411 709q151 0 255 -104q105 -103 105 -257t-105 -257q-103 -103 -255 -103q-153 0 -256 103q-104 104 -104 257t104 257t256 104zM411 37q132 0 219 89q88 88 88 222t-88 222
q-88 90 -219 90t-220 -90q-89 -89 -89 -222q0 -134 88 -222q89 -89 221 -89z" />
    <glyph glyph-name="obreve" unicode="&#x14f;" horiz-adv-x="606" 
d="M170 697h47q21 -73 86 -73t86 73h47q-7 -53 -44 -85.5t-89 -32.5t-89 32.5t-44 85.5zM114 63q-76 76 -76 189t76 189t189 76q112 0 188 -76q77 -77 77 -189t-77 -189q-76 -76 -188 -76q-113 0 -189 76zM149 407q-61 -61 -61 -155t61 -156q62 -62 154 -62q91 0 153 62
q62 64 62 156q0 93 -62 155q-62 63 -153 63q-93 0 -154 -63z" />
    <glyph glyph-name="Ohungarumlaut" unicode="&#x150;" horiz-adv-x="822" 
d="M503 745h-39l71 145h64zM349 745h-39l71 145h64zM411 709q151 0 255 -104q105 -103 105 -257t-105 -257q-103 -103 -255 -103q-153 0 -256 103q-104 104 -104 257t104 257t256 104zM411 37q132 0 219 89q88 88 88 222t-88 222q-88 90 -219 90t-220 -90q-89 -89 -89 -222
q0 -134 88 -222q89 -89 221 -89z" />
    <glyph glyph-name="ohungarumlaut" unicode="&#x151;" horiz-adv-x="606" 
d="M397 552h-38l70 145h64zM243 552h-38l70 145h64zM114 63q-76 76 -76 189t76 189t189 76q112 0 188 -76q77 -77 77 -189t-77 -189q-76 -76 -188 -76q-113 0 -189 76zM149 407q-61 -61 -61 -155t61 -156q62 -62 154 -62q91 0 153 62q62 64 62 156q0 93 -62 155
q-62 63 -153 63q-93 0 -154 -63z" />
    <glyph glyph-name="OE" unicode="&#x152;" horiz-adv-x="1112" 
d="M410 709q105 0 184 -49q80 -49 118 -129v166h333v-48h-281v-256h262v-49h-262v-296h288v-48h-340v168q-36 -83 -116.5 -131.5t-185.5 -48.5q-152 0 -255 103q-104 104 -104 257t104 257t255 104zM410 37q130 0 217 89q87 88 87 222t-87 222q-87 90 -217 90
q-132 0 -220 -90q-88 -88 -88 -222t88 -222q89 -89 220 -89z" />
    <glyph glyph-name="oe" unicode="&#x153;" horiz-adv-x="1036" 
d="M302 517q81 0 145 -43t92 -116q27 73 87 116t135 43q103 0 173 -76q72 -75 72 -185q0 -10 -1 -15h-441q2 -92 57 -149q56 -56 144 -56q108 0 175 73l34 -35q-81 -87 -209 -87q-81 0 -141 41.5t-86 114.5q-29 -72 -92.5 -114t-143.5 -42q-112 0 -188 76t-76 189t76 189
t188 76zM568 285h385q-7 79 -62 132t-130 53q-76 0 -131 -52q-55 -53 -62 -133zM302 34q91 0 153 62q61 62 61 156t-61 155q-61 63 -153 63t-153 -63q-61 -61 -61 -155t61 -156q62 -62 153 -62z" />
    <glyph glyph-name="Racute" unicode="&#x154;" horiz-adv-x="591" 
d="M296 745h-41l60 145h65zM148 0h-52v697h223q87 0 145 -58q59 -57 59 -143q0 -68 -37.5 -120.5t-100.5 -72.5l170 -303h-60l-162 292h-23h-162v-292zM148 649v-309h166q68 0 112 44q45 45 45 112q0 65 -44 109t-110 44h-169z" />
    <glyph glyph-name="racute" unicode="&#x155;" horiz-adv-x="343" 
d="M176 552h-40l59 145h66zM282 512q19 0 24 -1v-52q-16 2 -32 2q-79 0 -121 -53q-42 -52 -42 -132v-276h-50v504h50v-101q37 109 171 109z" />
    <glyph glyph-name="Rcommaaccent" unicode="&#x156;" horiz-adv-x="591" 
d="M148 0h-52v697h223q87 0 145 -58q59 -57 59 -143q0 -68 -37.5 -120.5t-100.5 -72.5l170 -303h-60l-162 292h-23h-162v-292zM148 649v-309h166q68 0 112 44q45 45 45 112q0 65 -44 109t-110 44h-169zM227 -193l60 145h65l-85 -145h-40z" />
    <glyph glyph-name="rcommaaccent" unicode="&#x157;" horiz-adv-x="343" 
d="M2 -193l60 145h65l-85 -145h-40zM282 512q19 0 24 -1v-52q-16 2 -32 2q-79 0 -121 -53q-42 -52 -42 -132v-276h-50v504h50v-101q37 109 171 109z" />
    <glyph glyph-name="Rcaron" unicode="&#x158;" horiz-adv-x="591" 
d="M148 0h-52v697h223q87 0 145 -58q59 -57 59 -143q0 -68 -37.5 -120.5t-100.5 -72.5l170 -303h-60l-162 292h-23h-162v-292zM148 649v-309h166q68 0 112 44q45 45 45 112q0 65 -44 109t-110 44h-169zM314 767h-42l-130 123h63l88 -85l88 85h62z" />
    <glyph glyph-name="rcaron" unicode="&#x159;" horiz-adv-x="343" 
d="M204 574h-42l-130 123h63l88 -85l88 85h62zM283 512q19 0 24 -1v-52q-16 2 -32 2q-79 0 -121 -53q-42 -52 -42 -132v-276h-50v504h50v-101q37 109 171 109z" />
    <glyph glyph-name="Sacute" unicode="&#x15a;" horiz-adv-x="546" 
d="M290 745h-41l60 145h66zM44 155l45 21q56 -140 196 -140q83 0 121 42q38 43 38 97q0 63 -38 98t-129 75q-93 40 -137 81q-43 40 -43 114q0 73 51 119q52 47 128 47q122 0 178 -102l-45 -23q-41 77 -133 77q-55 0 -91 -32.5t-36 -83.5q0 -60 43 -94q29 -21 46 -29l64 -30
q102 -46 143 -86q51 -45 51 -131q0 -85 -56.5 -136t-154.5 -51q-85 0 -148 43t-93 124z" />
    <glyph glyph-name="sacute" unicode="&#x15b;" horiz-adv-x="404" 
d="M22 111l42 16q33 -91 145 -91q58 0 88.5 26t30.5 66q0 43 -29 66q-30 24 -100 53q-73 31 -103.5 62t-30.5 84q0 54 39.5 89t99.5 35q95 0 135 -79l-41 -21q-30 53 -93 53q-40 0 -65 -21t-25 -56q0 -37 25.5 -59t89.5 -48q81 -33 114.5 -67.5t33.5 -90.5q0 -60 -45 -99.5
t-124 -39.5q-70 0 -119.5 32t-67.5 90zM207 552h-40l60 145h65z" />
    <glyph glyph-name="Scircumflex" unicode="&#x15c;" horiz-adv-x="546" 
d="M196 769h-62l130 123h42l130 -123h-63l-88 85zM44 155l45 21q56 -140 196 -140q83 0 121 42q38 43 38 97q0 63 -38 98t-129 75q-93 40 -137 81q-43 40 -43 114q0 73 51 119q52 47 128 47q122 0 178 -102l-45 -23q-41 77 -133 77q-55 0 -91 -32.5t-36 -83.5q0 -60 43 -94
q29 -21 46 -29l64 -30q102 -46 143 -86q51 -45 51 -131q0 -85 -56.5 -136t-154.5 -51q-85 0 -148 43t-93 124z" />
    <glyph glyph-name="scircumflex" unicode="&#x15d;" horiz-adv-x="404" 
d="M122 576h-62l129 123h42l130 -123h-63l-88 85zM22 111l42 16q33 -91 145 -91q58 0 88.5 26t30.5 66q0 43 -29 66q-30 24 -100 53q-73 31 -103.5 62t-30.5 84q0 54 39.5 89t99.5 35q95 0 135 -79l-41 -21q-30 53 -93 53q-40 0 -65 -21t-25 -56q0 -37 25.5 -59t89.5 -48
q81 -33 114.5 -67.5t33.5 -90.5q0 -60 -45 -99.5t-124 -39.5q-70 0 -119.5 32t-67.5 90z" />
    <glyph glyph-name="Scedilla" unicode="&#x15e;" horiz-adv-x="546" 
d="M289 -12l-19 -43h6q25 0 42.5 -17.5t17.5 -44.5q0 -67 -83 -67q-40 0 -66 22l15 28q26 -17 50 -17q18 0 30 9t12 24q0 40 -58 40q-12 0 -15 -1l30 69q-151 16 -207 165l45 21q56 -140 196 -140q83 0 121 42q38 43 38 97q0 63 -38 98t-129 75q-93 40 -137 81
q-43 40 -43 114q0 73 51 119q52 47 128 47q122 0 178 -102l-45 -23q-41 77 -133 77q-55 0 -91 -32.5t-36 -83.5q0 -60 43 -94q29 -21 46 -29l64 -30q102 -46 143 -86q51 -45 51 -131q0 -84 -55.5 -135t-151.5 -52z" />
    <glyph glyph-name="scedilla" unicode="&#x15f;" horiz-adv-x="404" 
d="M220 -11l-21 -43h6q27 0 44 -17t17 -45q0 -67 -84 -67q-38 0 -66 22l15 28q26 -17 50 -17q18 0 30.5 9t12.5 24q0 40 -59 40q-12 0 -15 -1l30 69q-60 6 -101 37t-57 83l42 16q33 -91 145 -91q58 0 88.5 26t30.5 66q0 43 -29 66q-30 24 -100 53q-73 31 -103.5 62t-30.5 84
q0 54 39.5 89t99.5 35q95 0 135 -79l-41 -21q-30 53 -93 53q-40 0 -65 -21t-25 -56q0 -37 25.5 -59t89.5 -48q81 -33 114.5 -67.5t33.5 -90.5q0 -58 -42.5 -97t-115.5 -42z" />
    <glyph glyph-name="Scaron" unicode="&#x160;" horiz-adv-x="546" 
d="M306 767h-42l-130 123h63l88 -85l88 85h62zM44 155l45 21q56 -140 196 -140q83 0 121 42q38 43 38 97q0 63 -38 98t-129 75q-93 40 -137 81q-43 40 -43 114q0 73 51 119q52 47 128 47q122 0 178 -102l-45 -23q-41 77 -133 77q-55 0 -91 -32.5t-36 -83.5q0 -60 43 -94
q29 -21 46 -29l64 -30q102 -46 143 -86q51 -45 51 -131q0 -85 -56.5 -136t-154.5 -51q-85 0 -148 43t-93 124z" />
    <glyph glyph-name="scaron" unicode="&#x161;" horiz-adv-x="404" 
d="M232 574h-42l-130 123h63l88 -85l88 85h62zM22 111l42 16q33 -91 145 -91q58 0 88.5 26t30.5 66q0 43 -29 66q-30 24 -100 53q-73 31 -103.5 62t-30.5 84q0 54 39.5 89t99.5 35q95 0 135 -79l-41 -21q-30 53 -93 53q-40 0 -65 -21t-25 -56q0 -37 25.5 -59t89.5 -48
q81 -33 114.5 -67.5t33.5 -90.5q0 -60 -45 -99.5t-124 -39.5q-70 0 -119.5 32t-67.5 90z" />
    <glyph glyph-name="Tcommaaccent" unicode="&#x162;" horiz-adv-x="525" 
d="M288 0h-52v649h-202v48h457v-48h-203v-649zM170 -193l60 145h65l-84 -145h-41z" />
    <glyph glyph-name="tcommaaccent" unicode="&#x163;" horiz-adv-x="293" 
d="M37 -193l60 145h65l-84 -145h-41zM147 0h-50v457h-63v47h63v193h50v-193h118v-47h-118v-457z" />
    <glyph glyph-name="Tcaron" unicode="&#x164;" horiz-adv-x="525" 
d="M288 0h-52v649h-202v48h457v-48h-203v-649zM283 767h-42l-130 123h63l88 -85l88 85h62z" />
    <glyph glyph-name="tcaron" unicode="&#x165;" horiz-adv-x="313" 
d="M232 552h-40l59 145h61zM147 0h-50v457h-63v47h63v193h50v-193h118v-47h-118v-457z" />
    <glyph glyph-name="Tbar" unicode="&#x166;" horiz-adv-x="525" 
d="M288 0h-52v383h-120v47h120v219h-202v48h457v-48h-203v-219h122v-47h-122v-383z" />
    <glyph glyph-name="tbar" unicode="&#x167;" horiz-adv-x="293" 
d="M146 0h-48v316h-64v47h64v94h-64v47h64v193h48v-193h119v-47h-119v-94h119v-47h-119v-316z" />
    <glyph glyph-name="Utilde" unicode="&#x168;" horiz-adv-x="677" 
d="M227 765l-33 3q5 36 26.5 57.5t54.5 21.5q29 0 66 -22q38 -22 59 -22q40 0 51 47l33 -3q-11 -86 -82 -86q-31 0 -68 22t-58 22q-40 0 -49 -40zM91 233v464h52v-459q0 -95 52 -147.5t144 -52.5t144 52.5t52 147.5v459h52v-464q0 -115 -68 -180q-67 -63 -180 -63t-180 63
q-68 65 -68 180z" />
    <glyph glyph-name="utilde" unicode="&#x169;" horiz-adv-x="526" 
d="M152 598l-33 3q4 35 26 57t55 22q29 0 66 -22q38 -22 59 -22q41 0 51 46l33 -2q-11 -86 -82 -86q-31 0 -68 22t-58 22q-40 0 -49 -40zM55 191v313h50v-308q0 -77 41.5 -118.5t116.5 -41.5t116.5 41.5t41.5 118.5v308h50v-313q0 -96 -56 -149t-152 -53t-152 53t-56 149z
" />
    <glyph glyph-name="Umacron" unicode="&#x16a;" horiz-adv-x="677" 
d="M486 770h-294v46h294v-46zM91 233v464h52v-459q0 -95 52 -147.5t144 -52.5t144 52.5t52 147.5v459h52v-464q0 -115 -68 -180q-67 -63 -180 -63t-180 63q-68 65 -68 180z" />
    <glyph glyph-name="umacron" unicode="&#x16b;" horiz-adv-x="526" 
d="M55 191v313h50v-308q0 -77 41.5 -118.5t116.5 -41.5t116.5 41.5t41.5 118.5v308h50v-313q0 -96 -56 -149t-152 -53t-152 53t-56 149zM410 607h-294v47h294v-47z" />
    <glyph glyph-name="Ubreve" unicode="&#x16c;" horiz-adv-x="677" 
d="M206 869h47q19 -73 86 -73t86 73h47q-7 -53 -44 -85.5t-89 -32.5t-89 32.5t-44 85.5zM91 233v464h52v-459q0 -95 52 -147.5t144 -52.5t144 52.5t52 147.5v459h52v-464q0 -115 -68 -180q-67 -63 -180 -63t-180 63q-68 65 -68 180z" />
    <glyph glyph-name="ubreve" unicode="&#x16d;" horiz-adv-x="526" 
d="M130 697h47q21 -73 86 -73t86 73h47q-7 -53 -44 -85.5t-89 -32.5t-89 32.5t-44 85.5zM55 191v313h50v-308q0 -77 41.5 -118.5t116.5 -41.5t116.5 41.5t41.5 118.5v308h50v-313q0 -96 -56 -149t-152 -53t-152 53t-56 149z" />
    <glyph glyph-name="Uring" unicode="&#x16e;" horiz-adv-x="677" 
d="M397 733q-24 -24 -58 -24t-58 24t-24 57t24 57t58 24t58 -24t24 -57t-24 -57zM339 745q18 0 31.5 13.5t13.5 31.5t-13.5 31t-31.5 13q-17 0 -30.5 -13t-13.5 -31t13.5 -31.5t30.5 -13.5zM91 233v464h52v-459q0 -95 52 -147.5t144 -52.5t144 52.5t52 147.5v459h52v-464
q0 -115 -68 -180q-67 -63 -180 -63t-180 63q-68 65 -68 180z" />
    <glyph glyph-name="uring" unicode="&#x16f;" horiz-adv-x="526" 
d="M181 618q0 33 24 57t58 24t57.5 -24t23.5 -57q0 -34 -23.5 -58t-57.5 -24t-58 24t-24 58zM231 586q14 -13 32 -13t31 13q13 14 13 32t-13 31t-31 13t-32 -13q-13 -13 -13 -31t13 -32zM55 191v313h50v-308q0 -77 41.5 -118.5t116.5 -41.5t116.5 41.5t41.5 118.5v308h50
v-313q0 -96 -56 -149t-152 -53t-152 53t-56 149z" />
    <glyph glyph-name="Uhungarumlaut" unicode="&#x170;" horiz-adv-x="677" 
d="M430 745h-38l70 145h64zM276 745h-38l70 145h64zM91 233v464h52v-459q0 -95 52 -147.5t144 -52.5t144 52.5t52 147.5v459h52v-464q0 -115 -68 -180q-67 -63 -180 -63t-180 63q-68 65 -68 180z" />
    <glyph glyph-name="uhungarumlaut" unicode="&#x171;" horiz-adv-x="526" 
d="M350 552h-38l71 145h63zM200 552h-38l70 145h64zM55 191v313h50v-308q0 -77 41.5 -118.5t116.5 -41.5t116.5 41.5t41.5 118.5v308h50v-313q0 -96 -56 -149t-152 -53t-152 53t-56 149z" />
    <glyph glyph-name="Uogonek" unicode="&#x172;" horiz-adv-x="677" 
d="M91 233v464h52v-459q0 -95 52 -147.5t144 -52.5t144 52.5t52 147.5v459h52v-463q0 -142 -99 -203l-27 -16q-16 -9 -37 -23q-27 -19 -48.5 -44.5t-18.5 -48.5q0 -23 14.5 -36t38.5 -13q34 0 59 15l-9 -43q-25 -13 -58 -13q-37 0 -62.5 23t-25.5 58q0 64 71 105
q-22 -5 -48 -5q-113 0 -179.5 64t-66.5 179z" />
    <glyph glyph-name="uogonek" unicode="&#x173;" horiz-adv-x="526" 
d="M263 -11q-96 0 -152 53t-56 149v313h50v-308q0 -77 41.5 -118.5t116.5 -41.5t116.5 41.5t41.5 118.5v308h50v-309q0 -124 -103 -188q-21 -13 -44 -30q-49 -40 -49 -78q0 -23 14.5 -36t38.5 -13q32 0 58 15l-9 -43q-25 -13 -57 -13q-37 0 -63 23t-26 58q0 62 68 103
q-19 -4 -36 -4z" />
    <glyph glyph-name="Wcircumflex" unicode="&#x174;" horiz-adv-x="922" 
d="M372 769h-62l130 123h42l130 -123h-63l-88 85zM276 0h-36l-209 697h52l178 -586l181 586h38l181 -586l177 586h53l-209 -697h-36l-185 593z" />
    <glyph glyph-name="wcircumflex" unicode="&#x175;" horiz-adv-x="748" 
d="M286 576h-62l129 123h42l130 -123h-63l-88 85zM234 0h-34l-181 504h51l146 -411l140 411h36l139 -411l146 411h52l-181 -504h-34l-140 414z" />
    <glyph glyph-name="Ycircumflex" unicode="&#x176;" horiz-adv-x="598" 
d="M210 769h-62l130 123h42l130 -123h-63l-88 85zM568 697l-243 -403v-294h-52v294l-243 403h58l211 -351l211 351h58z" />
    <glyph glyph-name="ycircumflex" unicode="&#x177;" horiz-adv-x="502" 
d="M157 576h-62l129 123h42l130 -123h-63l-88 85zM137 -193l82 193l-200 504h52l174 -443l186 443h53l-296 -697h-51z" />
    <glyph glyph-name="Ydieresis" unicode="&#x178;" horiz-adv-x="598" 
d="M427 766q-10 -10 -25 -10t-26 10q-10 11 -10 26t10 25q15 16 35 9t25.5 -25t-9.5 -35zM197 756q-15 0 -25.5 10.5t-10.5 25.5t10.5 25t25.5 10t25.5 -10t10.5 -25t-11 -25.5t-25 -10.5zM568 697l-243 -403v-294h-52v294l-243 403h58l211 -351l211 351h58z" />
    <glyph glyph-name="Zacute" unicode="&#x179;" horiz-adv-x="621" 
d="M344 745h-41l60 145h66zM573 0h-537v33l466 616h-414v48h484v-35l-463 -614h464v-48z" />
    <glyph glyph-name="zacute" unicode="&#x17a;" horiz-adv-x="493" 
d="M252 552h-41l60 145h65zM447 0h-425v30l344 427h-305v47h376v-34l-342 -423h352v-47z" />
    <glyph glyph-name="Zdotaccent" unicode="&#x17b;" horiz-adv-x="621" 
d="M333 840q14 0 25 -10.5t11 -25.5t-11 -25.5t-25 -10.5t-25 10.5t-11 25.5t10.5 25.5t25.5 10.5zM573 0h-537v33l466 616h-414v48h484v-35l-463 -614h464v-48z" />
    <glyph glyph-name="zdotaccent" unicode="&#x17c;" horiz-adv-x="493" 
d="M283 612q-10 -10 -25 -10t-26 10q-10 12 -10 26.5t11 24.5q14 17 34 9.5t25.5 -25.5t-9.5 -35zM447 0h-425v30l344 427h-305v47h376v-34l-342 -423h352v-47z" />
    <glyph glyph-name="Zcaron" unicode="&#x17d;" horiz-adv-x="621" 
d="M357 767h-42l-130 123h63l88 -85l88 85h62zM573 0h-537v33l466 616h-414v48h484v-35l-463 -614h464v-48z" />
    <glyph glyph-name="zcaron" unicode="&#x17e;" horiz-adv-x="493" 
d="M275 574h-42l-130 123h63l88 -85l88 85h62zM447 0h-425v30l344 427h-305v47h376v-34l-342 -423h352v-47z" />
    <glyph glyph-name="florin" unicode="&#x192;" horiz-adv-x="362" 
d="M77 -101h-49l103 487h-76l8 43h77l26 124q10 47 27.5 79t41 48.5t47 23t53.5 6.5q22 0 43 -3l-9 -46q-26 2 -46 2q-44 0 -69.5 -25t-36.5 -79l-27 -130h110l-8 -43h-111z" />
    <glyph glyph-name="Aringacute" unicode="&#x1fa;" horiz-adv-x="673" 
d="M362 883h-41l60 145h65zM89 0h-54l283 680q-27 6 -45 28.5t-18 50.5q0 33 24 57t58 24t57.5 -24t23.5 -57q0 -29 -18 -51t-46 -28l283 -680h-55l-79 190h-334zM337 714q17 0 30.5 13.5t13.5 31.5t-13.5 31t-30.5 13q-18 0 -31.5 -13t-13.5 -31t13.5 -31.5t31.5 -13.5z
M336 598l-146 -360h293z" />
    <glyph glyph-name="aringacute" unicode="&#x1fb;" horiz-adv-x="603" 
d="M320 761h-40l60 145h65zM219 643q0 33 24.5 57t57.5 24t57 -24t24 -57q0 -34 -23.5 -58t-57.5 -24t-58 24t-24 58zM269 611q14 -13 32 -13t31 13q13 14 13 32t-13 31t-31 13t-32 -13q-13 -13 -13 -31t13 -32zM493 399v105h50v-504h-50v105q-17 -49 -72 -84
q-53 -34 -128 -34q-108 0 -181 76t-73 189t73 189t181 76q73 0 128 -35q56 -35 72 -83zM293 34q89 0 147 61q59 62 59 157q0 94 -59 156t-147 62q-87 0 -146 -63q-58 -62 -58 -155q0 -94 58 -156q59 -62 146 -62z" />
    <glyph glyph-name="AEacute" unicode="&#x1fc;" horiz-adv-x="922" 
d="M550 745h-41l60 145h65zM64 0h-62l535 697h319v-48h-281v-256h262v-49h-262v-296h288v-48h-340v183h-318zM523 598l-282 -367h282v367z" />
    <glyph glyph-name="aeacute" unicode="&#x1fd;" horiz-adv-x="903" 
d="M458 552h-40l59 145h66zM865 252v-11h-428q1 -90 56 -149q54 -58 139 -58q97 0 169 74l33 -32q-80 -89 -202 -89q-68 0 -121.5 31.5t-82.5 87.5q-21 -58 -76.5 -88.5t-138.5 -30.5q-80 0 -126.5 41t-46.5 109q0 67 45.5 107t122.5 40h96q49 0 70.5 20t21.5 61
q0 55 -40 80t-93 25q-95 0 -148 -83l-37 27q61 103 185 103q69 0 115.5 -31t57.5 -83q27 52 79.5 83t114.5 31q100 0 167 -76q68 -77 68 -189zM221 37q82 0 129 37t47 99q-5 38 -5 66q0 20 1 23q-27 -27 -89 -27h-96q-57 0 -88 -25.5t-31 -72.5q0 -100 132 -100zM441 286
h371q-7 79 -59 132q-51 52 -123 52q-76 0 -128 -52q-54 -54 -61 -132z" />
    <glyph glyph-name="Oslashacute" unicode="&#x1fe;" horiz-adv-x="821" 
d="M161 -34l-38 28l56 75q-61 51 -94.5 123t-33.5 156q0 153 104 257t256 104q111 0 202 -61l59 79l38 -29l-59 -79q120 -105 120 -271q0 -154 -105 -257q-103 -103 -255 -103q-107 0 -193 54zM208 108l376 500q-76 52 -173 52q-131 0 -220 -90q-89 -89 -89 -222
q0 -150 106 -240zM621 579l-374 -498q74 -44 164 -44q132 0 219 89q88 88 88 222q0 140 -97 231zM429 745h-40l60 145h65z" />
    <glyph glyph-name="oslashacute" unicode="&#x1ff;" horiz-adv-x="606" 
d="M124 -33l-36 27l41 56q-91 76 -91 202q0 113 76 189t189 76q75 0 140 -39l39 52l36 -26l-39 -52q89 -78 89 -200q0 -112 -77 -189q-76 -76 -188 -76q-73 0 -137 37zM158 89l257 350q-52 31 -112 31q-93 0 -154 -63q-61 -61 -61 -155q0 -100 70 -163zM451 412l-257 -349
q47 -29 109 -29q91 0 153 62q62 64 62 156q0 99 -67 160zM327 552h-40l60 145h65z" />
    <glyph glyph-name="Scommaaccent" unicode="&#x218;" horiz-adv-x="546" 
d="M44 155l45 21q56 -140 196 -140q83 0 121 42q38 43 38 97q0 63 -38 98t-129 75q-93 40 -137 81q-43 40 -43 114q0 73 51 119q52 47 128 47q122 0 178 -102l-45 -23q-41 77 -133 77q-55 0 -91 -32.5t-36 -83.5q0 -60 43 -94q29 -21 46 -29l64 -30q102 -46 143 -86
q51 -45 51 -131q0 -85 -56.5 -136t-154.5 -51q-85 0 -148 43t-93 124zM226 -193h-40l60 145h65z" />
    <glyph glyph-name="scommaaccent" unicode="&#x219;" horiz-adv-x="404" 
d="M105 -193l60 145h66l-85 -145h-41zM22 111l42 16q33 -91 145 -91q58 0 88.5 26t30.5 66q0 43 -29 66q-30 24 -100 53q-73 31 -103.5 62t-30.5 84q0 54 39.5 89t99.5 35q95 0 135 -79l-41 -21q-30 53 -93 53q-40 0 -65 -21t-25 -56q0 -37 25.5 -59t89.5 -48
q81 -33 114.5 -67.5t33.5 -90.5q0 -60 -45 -99.5t-124 -39.5q-70 0 -119.5 32t-67.5 90z" />
    <glyph glyph-name="circumflex" unicode="&#x2c6;" horiz-adv-x="617" 
d="M215 576h-62l126 123h58l127 -123h-62l-94 91z" />
    <glyph glyph-name="caron" unicode="&#x2c7;" horiz-adv-x="617" 
d="M337 574h-58l-126 123h62l93 -91l94 91h62z" />
    <glyph glyph-name="breve" unicode="&#x2d8;" horiz-adv-x="613" 
d="M173 697h48q19 -73 86 -73q65 0 86 73h47q-7 -53 -44 -85.5t-89 -32.5t-89.5 32.5t-44.5 85.5z" />
    <glyph glyph-name="dotaccent" unicode="&#x2d9;" horiz-adv-x="532" 
d="M267 602q-15 0 -25.5 10t-10.5 26t10.5 26t25.5 10q14 0 25 -10.5t11 -25.5t-11 -25.5t-25 -10.5z" />
    <glyph glyph-name="ring" unicode="&#x2da;" horiz-adv-x="246" 
d="M182 572q-24 -24 -58 -24t-58 24t-24 57t24 57t58 24t58 -24t24 -57t-24 -57zM92 597q14 -13 32 -13t31 13q13 14 13 32t-13 31t-31 13t-32 -13q-13 -13 -13 -31t13 -32z" />
    <glyph glyph-name="ogonek" unicode="&#x2db;" horiz-adv-x="533" 
d="M167 -110q0 68 77 110h47q-35 -20 -58 -47t-23 -54q0 -23 14.5 -36t38.5 -13q33 0 59 15l-9 -43q-25 -13 -58 -13q-37 0 -62.5 23t-25.5 58z" />
    <glyph glyph-name="tilde" unicode="&#x2dc;" horiz-adv-x="589" 
d="M184 627l-33 3q4 35 26 57t55 22q29 0 66 -22q38 -22 59 -22q40 0 51 47l33 -3q-11 -86 -82 -86q-31 0 -68 22t-58 22q-40 0 -49 -40z" />
    <glyph glyph-name="hungarumlaut" unicode="&#x2dd;" horiz-adv-x="592" 
d="M366 552h-38l71 145h63zM212 552h-38l71 145h63z" />
    <glyph glyph-name="pi" unicode="&#x3c0;" 
d="M153 0h-54q76 190 77 457h-10q-34 0 -64.5 -16t-45.5 -44l-41 23q21 38 62.5 60.5t87.5 22.5h398l-11 -46h-82v-327q0 -82 64 -82v-50h-1q-53 0 -82.5 33.5t-29.5 93.5v332h-195q-1 -265 -73 -457z" />
    <glyph glyph-name="Wgrave" unicode="&#x1e80;" horiz-adv-x="922" 
d="M276 0h-36l-209 697h52l178 -586l181 586h38l181 -586l177 586h53l-209 -697h-36l-185 593zM511 745h-40l-85 145h65z" />
    <glyph glyph-name="wgrave" unicode="&#x1e81;" horiz-adv-x="748" 
d="M234 0h-34l-181 504h51l146 -411l140 411h36l139 -411l146 411h52l-181 -504h-34l-140 414zM419 552h-40l-85 145h65z" />
    <glyph glyph-name="Wacute" unicode="&#x1e82;" horiz-adv-x="922" 
d="M276 0h-36l-209 697h52l178 -586l181 586h38l181 -586l177 586h53l-209 -697h-36l-185 593zM470 745h-40l60 145h65z" />
    <glyph glyph-name="wacute" unicode="&#x1e83;" horiz-adv-x="748" 
d="M234 0h-34l-181 504h51l146 -411l140 411h36l139 -411l146 411h52l-181 -504h-34l-140 414zM374 552h-40l60 145h65z" />
    <glyph glyph-name="Wdieresis" unicode="&#x1e84;" horiz-adv-x="922" 
d="M564 756q-15 0 -25.5 10.5t-10.5 25.5t10.5 25.5t25.5 10.5q14 0 25 -10.5t11 -25.5t-11 -25.5t-25 -10.5zM383 766q-10 -10 -25 -10t-26 10q-10 11 -10 26t10 25q15 16 35 9t25.5 -25t-9.5 -35zM276 0h-36l-209 697h52l178 -586l181 586h38l181 -586l177 586h53
l-209 -697h-36l-185 593z" />
    <glyph glyph-name="wdieresis" unicode="&#x1e85;" horiz-adv-x="748" 
d="M477 602q-15 0 -25.5 10t-10.5 26q0 15 10.5 25.5t25.5 10.5q14 0 25 -10.5t11 -25.5t-11 -25.5t-25 -10.5zM296 612q-10 -10 -25 -10t-26 10q-10 12 -10 26.5t11 24.5q14 17 34 9.5t25.5 -25.5t-9.5 -35zM234 0h-34l-181 504h51l146 -411l140 411h36l139 -411l146 411
h52l-181 -504h-34l-140 414z" />
    <glyph glyph-name="Ygrave" unicode="&#x1ef2;" horiz-adv-x="598" 
d="M568 697l-243 -403v-294h-52v294l-243 403h58l211 -351l211 351h58zM336 745h-40l-85 145h65z" />
    <glyph glyph-name="ygrave" unicode="&#x1ef3;" horiz-adv-x="502" 
d="M137 -193l82 193l-200 504h52l174 -443l186 443h53l-296 -697h-51zM287 552h-40l-85 145h65z" />
    <glyph glyph-name="endash" unicode="&#x2013;" horiz-adv-x="463" 
d="M419 239h-374v47h374v-47z" />
    <glyph glyph-name="emdash" unicode="&#x2014;" horiz-adv-x="727" 
d="M683 239h-638v47h638v-47z" />
    <glyph glyph-name="quoteleft" unicode="&#x2018;" horiz-adv-x="171" 
d="M85 445h-68l125 252h42z" />
    <glyph glyph-name="quoteright" unicode="&#x2019;" horiz-adv-x="177" 
d="M41 445h-42l99 252h68z" />
    <glyph glyph-name="quotesinglbase" unicode="&#x201a;" horiz-adv-x="176" 
d="M18 -128h-42l94 239h67z" />
    <glyph glyph-name="quotedblleft" unicode="&#x201c;" horiz-adv-x="316" 
d="M229 445h-68l125 252h42zM85 445h-68l125 252h42z" />
    <glyph glyph-name="quotedblright" unicode="&#x201d;" horiz-adv-x="321" 
d="M186 445h-43l100 252h68zM41 445h-42l99 252h68z" />
    <glyph glyph-name="quotedblbase" unicode="&#x201e;" horiz-adv-x="313" 
d="M170 -128h-42l94 239h67zM18 -128h-42l94 239h67z" />
    <glyph glyph-name="dagger" unicode="&#x2020;" horiz-adv-x="295" 
d="M172 301h-48l3 249l-90 -2v44l89 -2l-2 107h48l-2 -107l89 2v-44l-90 2z" />
    <glyph glyph-name="daggerdbl" unicode="&#x2021;" horiz-adv-x="295" 
d="M171 301h-47l2 107l-89 -2v44l90 -2v102l-90 -2v44l89 -2l-2 107h47l-2 -107l90 2v-44l-91 2v-102l91 2v-44l-90 2z" />
    <glyph glyph-name="bullet" unicode="&#x2022;" horiz-adv-x="224" 
d="M153 211q-17 -17 -41 -17t-42 17q-17 17 -17 42t17 42q18 18 42 18t41 -18q18 -17 18 -42t-18 -42z" />
    <glyph glyph-name="ellipsis" unicode="&#x2026;" horiz-adv-x="479" 
d="M368 5q-16 15 -8.5 35t25.5 25t34 -9t9 -34t-25 -25.5t-35 8.5zM204 31q0 15 10.5 25.5t25.5 10.5q14 0 24.5 -10.5t10.5 -25.5t-10.5 -25.5t-24.5 -10.5q-15 0 -25.5 10t-10.5 26zM86 -5q-15 0 -25.5 10.5t-10.5 25.5t11 25.5t25 10.5t25 -10.5t11 -25.5t-11 -25.5
t-25 -10.5z" />
    <glyph glyph-name="perthousand" unicode="&#x2030;" horiz-adv-x="1095" 
d="M306 442q-46 -46 -110 -46t-110 46t-46 110t46 110t110 46t110 -46t46 -110t-46 -110zM163 0h-54l451 697h54zM196 438q46 0 77 33q33 35 33 81q0 47 -33 80q-31 34 -77 34t-79 -34q-32 -34 -32 -80t32 -81q33 -33 79 -33zM635 34q-45 -45 -110 -45t-111 45
q-45 46 -45 111t45 110q46 46 111 46t110 -46q46 -45 46 -110t-46 -111zM525 31q45 0 77 33q33 34 33 81t-33 80q-31 34 -77 34t-79 -34q-32 -34 -32 -80t32 -81q33 -33 79 -33zM1010 34q-46 -45 -110 -45t-110 45q-46 46 -46 111t46 110q46 46 110 46t110 -46
q46 -45 46 -110t-46 -111zM900 31q46 0 77 33q33 34 33 81t-33 80q-31 34 -77 34t-79 -34q-32 -34 -32 -80t32 -81q33 -33 79 -33z" />
    <glyph glyph-name="guilsinglleft" unicode="&#x2039;" horiz-adv-x="240" 
d="M202 78h-53l-110 175l110 175h53l-110 -175z" />
    <glyph glyph-name="guilsinglright" unicode="&#x203a;" horiz-adv-x="240" 
d="M92 78h-53l110 175l-110 175h53l110 -175z" />
    <glyph glyph-name="fraction" unicode="&#x2044;" horiz-adv-x="493" 
d="M49 0h-54l451 697h54z" />
    <glyph glyph-name="zerosuperior" unicode="&#x2070;" horiz-adv-x="380" 
d="M189 320q-46 0 -84 32q-37 34 -41 82q-2 22 -2 79q0 58 2 78q5 49 41 81.5t84 32.5q51 0 87 -32t40 -82q2 -42 2 -78q0 -37 -2 -79q-4 -50 -40 -82t-87 -32zM189 359q35 0 60 22t28 56q2 20 2 76q0 55 -2 75q-3 34 -28 56.5t-60 22.5q-33 0 -57.5 -22.5t-28.5 -56.5
q-2 -20 -2 -75q0 -56 2 -76q4 -34 28.5 -56t57.5 -22z" />
    <glyph glyph-name="foursuperior" unicode="&#x2074;" horiz-adv-x="350" 
d="M289 328h-41v81h-212v27l129 261h43l-124 -250h164v82h41v-201z" />
    <glyph glyph-name="fivesuperior" unicode="&#x2075;" horiz-adv-x="350" 
d="M160 320q-40 0 -74 22.5t-51 60.5l36 17q12 -28 36 -44.5t53 -16.5q40 0 67.5 27t27.5 66q0 40 -27.5 65.5t-69.5 25.5q-35 0 -63 -23l-29 10l30 167h171v-38h-137l-17 -91q20 14 51 14q54 0 92 -38t38 -92q0 -56 -39 -94q-38 -38 -95 -38z" />
    <glyph glyph-name="sixsuperior" unicode="&#x2076;" horiz-adv-x="369" 
d="M185 320q-53 0 -91 38t-38 92q0 42 45 110l92 137h49l-89 -129q10 9 37 9q50 0 87 -37t37 -90q0 -55 -38 -93q-37 -37 -91 -37zM185 359q37 0 63.5 26.5t26.5 63.5t-26.5 63.5t-63.5 26.5q-38 0 -63 -26t-25 -64q0 -39 25 -64.5t63 -25.5z" />
    <glyph glyph-name="sevensuperior" unicode="&#x2077;" horiz-adv-x="349" 
d="M145 328h-45l162 331h-200v38h254v-19z" />
    <glyph glyph-name="eightsuperior" unicode="&#x2078;" horiz-adv-x="368" 
d="M237 542q30 -9 50.5 -38t20.5 -65q0 -51 -36 -85q-34 -34 -87 -34t-88 34q-35 35 -35 85q0 36 20.5 65t50.5 38q-44 18 -44 69q0 39 28 66.5t68 27.5t68 -27.5t28 -66.5q0 -51 -44 -69zM129 610q0 -24 16 -40.5t40 -16.5t40 16.5t16 40.5t-16 40.5t-40 16.5t-40 -16.5
t-16 -40.5zM267 439q0 34 -24 57t-58 23t-58 -23t-24 -57q0 -33 24 -56.5t58 -23.5t58 23.5t24 56.5z" />
    <glyph glyph-name="ninesuperior" unicode="&#x2079;" horiz-adv-x="377" 
d="M178 328h-48l93 134q-13 -9 -39 -9q-48 0 -86 35q-36 36 -36 89t37 90q38 38 90 38q53 0 90 -37q37 -36 37 -90q0 -22 -9 -44q-11 -30 -41 -75zM189 490q38 0 63 25.5t25 62.5t-25.5 63t-62.5 26t-62.5 -26t-25.5 -63t25.5 -62.5t62.5 -25.5z" />
    <glyph glyph-name="zero.inferior" unicode="&#x2080;" horiz-adv-x="375" 
d="M62 106q-2 22 -2 79q0 58 2 78q5 49 41 81.5t84 32.5t85 -32q37 -31 42 -82q1 -11 1 -78q0 -68 -1 -79q-5 -51 -42 -82q-37 -32 -85 -32q-46 0 -84 32q-37 34 -41 82zM101 109q4 -34 28.5 -56t57.5 -22q35 0 59.5 22t27.5 56q2 20 2 76q0 55 -2 75q-3 34 -27.5 56.5
t-59.5 22.5q-33 0 -57.5 -22.5t-28.5 -56.5q-2 -20 -2 -75q0 -56 2 -76z" />
    <glyph glyph-name="one.inferior" unicode="&#x2081;" horiz-adv-x="225" 
d="M140 0h-41v331h-48v38h89v-369z" />
    <glyph glyph-name="two.inferior" unicode="&#x2082;" horiz-adv-x="335" 
d="M286 0h-237v28l164 186q24 28 24 59q0 27 -19.5 46t-47.5 19t-47.5 -21t-19.5 -50h-40q0 47 31 78q32 32 76 32q45 0 76.5 -30.5t31.5 -73.5q0 -47 -33 -85l-135 -149h176v-39z" />
    <glyph glyph-name="three.inferior" unicode="&#x2083;" horiz-adv-x="354" 
d="M37 79l36 13q11 -28 36 -44t58 -16q43 0 70.5 24t27.5 62q0 36 -27 60.5t-68 24.5q-33 0 -55 -8l-15 22l118 114h-151v38h218v-23l-116 -109q20 0 36 -2q43 -8 71 -40.5t28 -76.5q0 -56 -38.5 -91t-98.5 -35q-45 0 -80 23.5t-50 63.5z" />
    <glyph glyph-name="four.inferior" unicode="&#x2084;" horiz-adv-x="350" 
d="M248 81h-212v27l129 261h43l-124 -250h164v82h41v-201h-41v81z" />
    <glyph glyph-name="five.inferior" unicode="&#x2085;" horiz-adv-x="350" 
d="M35 75l36 17q12 -28 36 -44.5t53 -16.5q40 0 67.5 27t27.5 66q0 40 -27.5 65.5t-69.5 25.5q-35 0 -63 -23l-29 10l30 167h171v-38h-137l-17 -91q20 14 51 14q54 0 92 -38t38 -92q0 -56 -39 -94q-38 -38 -95 -38q-40 0 -74 22.5t-51 60.5z" />
    <glyph glyph-name="six.inferior" unicode="&#x2086;" horiz-adv-x="369" 
d="M56 122q0 42 45 110l92 137h49l-89 -129q11 9 37 9q50 0 87 -37t37 -90q0 -55 -38 -93q-37 -37 -91 -37q-53 0 -91 38t-38 92zM97 121q0 -39 25 -64.5t63 -25.5q37 0 63.5 26.5t26.5 63.5t-26.5 63.5t-63.5 26.5q-38 0 -63 -26t-25 -64z" />
    <glyph glyph-name="seven.inferior" unicode="&#x2087;" horiz-adv-x="349" 
d="M145 0h-45l162 331h-200v38h254v-19z" />
    <glyph glyph-name="eight.inferior" unicode="&#x2088;" horiz-adv-x="368" 
d="M237 214q30 -9 50.5 -38t20.5 -65q0 -51 -36 -85q-34 -34 -87 -34t-88 34q-35 35 -35 85q0 36 20.5 65t50.5 38q-44 18 -44 69q0 39 28 66.5t68 27.5t68 -27.5t28 -66.5q0 -51 -44 -69zM129 282q0 -24 16 -40.5t40 -16.5t40 16.5t16 40.5t-16 40.5t-40 16.5t-40 -16.5
t-16 -40.5zM267 111q0 34 -24 57t-58 23t-58 -23t-24 -57q0 -33 24 -56.5t58 -23.5t58 23.5t24 56.5z" />
    <glyph glyph-name="nine.inferior" unicode="&#x2089;" horiz-adv-x="367" 
d="M174 0h-48l93 134q-13 -9 -39 -9q-48 0 -86 35q-36 36 -36 89t37 90q38 38 89 38q53 0 90 -37q37 -36 37 -90q0 -46 -49 -119zM184 162q39 0 64 25.5t25 62.5t-26 63t-63 26t-62 -26t-25 -63t25 -62.5t62 -25.5z" />
    <glyph glyph-name="Euro" unicode="&#x20ac;" horiz-adv-x="751" 
d="M132 251h-108l20 47h80q-3 21 -3 50q0 38 4 59h-79l20 47h68q32 114 119 184q89 71 203 71q143 0 242 -105l-37 -33q-81 89 -205 89q-94 0 -168 -57q-71 -55 -100 -149h288l-20 -47h-278q-5 -33 -5 -59q0 -24 3 -50h236l-20 -47h-206q26 -97 98 -156q74 -59 172 -59
q130 0 211 92l37 -34q-100 -106 -248 -106q-118 0 -206 73q-90 75 -118 190z" />
    <glyph glyph-name="uni2113" unicode="&#x2113;" horiz-adv-x="453" 
d="M35 121l-19 34q54 41 74 58v285q0 101 39 156t106 55q57 0 90 -39t33 -106q0 -177 -217 -372v-7q0 -151 113 -151q79 0 131 88l30 -27q-60 -107 -174 -107q-70 0 -109.5 47t-40.5 128q-30 -25 -56 -42zM140 509v-258q168 163 168 312q0 48 -20 73.5t-56 25.5
q-42 0 -67 -40t-25 -113z" />
    <glyph glyph-name="uni2116" unicode="&#x2116;" horiz-adv-x="1148" 
d="M705 483q0 81 57 137q57 57 138 57t138 -57q57 -56 57 -137q0 -83 -57 -138q-58 -56 -138 -56t-138 56q-57 55 -57 138zM755 483q0 -61 42 -104q43 -43 103 -43q61 0 103 43t42 104q0 60 -43 103q-42 44 -102 44q-59 0 -103 -44q-42 -44 -42 -103zM1083 170h-360v46h360
v-46zM148 0h-52v697h45l404 -597v597h52v-697h-43l-406 600v-600z" />
    <glyph glyph-name="trademark" unicode="&#x2122;" horiz-adv-x="812" 
d="M419 326h-50v372h5l185 -221l185 221h6v-372h-50v247l-141 -171l-140 171v-247zM199 326h-50v323h-123v48h297v-48h-124v-323z" />
    <glyph glyph-name="Omega" unicode="&#x2126;" horiz-adv-x="774" 
d="M723 364q0 -97 -45 -184q-44 -86 -111 -132h122v-48h-252q86 45 154 125q81 94 81 230q0 131 -82 217q-81 88 -203 88t-204 -88q-81 -87 -81 -217q0 -135 80 -230q69 -81 155 -125h-252v48h122q-67 46 -112 132q-44 88 -44 184q0 148 97 245q98 99 239 99q140 0 238 -99
q98 -98 98 -245z" />
    <glyph glyph-name="estimated" unicode="&#x212e;" horiz-adv-x="916" 
d="M188 359v-254q113 -101 270 -101q90 0 169.5 34.5t132.5 97.5h21q-57 -69 -142 -108.5t-181 -39.5q-171 0 -291 111q-119 113 -119 271q0 159 119 270q119 112 291 112t290 -112q119 -111 121 -275v-6h-681zM188 634v-259h540v260q-113 101 -270 101q-156 0 -270 -102z
" />
    <glyph glyph-name="onethird" unicode="&#x2153;" horiz-adv-x="726" 
d="M111 0h-52l409 697h53zM145 328h-41v331h-48v38h89v-369zM401 79l36 13q25 -60 95 -60q43 0 70 24t27 62q0 36 -26.5 60.5t-68.5 24.5q-33 0 -54 -8l-16 22l119 114h-152v38h219v-23l-117 -109q21 0 37 -2q43 -8 71 -40.5t28 -76.5q0 -56 -38.5 -91t-98.5 -35
q-45 0 -80.5 24t-50.5 63z" />
    <glyph glyph-name="twothirds" unicode="&#x2154;" horiz-adv-x="822" 
d="M235 0h-53l410 697h53zM298 328h-236v28l164 186q24 28 24 59q0 27 -20 46t-48 19q-27 0 -46.5 -21t-19.5 -50h-40q0 47 31 78q32 32 75 32q46 0 77.5 -30.5t31.5 -73.5q0 -47 -33 -85l-135 -149h175v-39zM497 79l36 13q11 -28 36 -44t58 -16q43 0 70.5 24t27.5 62
q0 36 -27 60.5t-68 24.5q-33 0 -55 -8l-15 22l119 114h-152v38h219v-23l-117 -109q20 0 36 -2q43 -8 71 -40.5t28 -76.5q0 -56 -38.5 -91t-98.5 -35q-45 0 -80 23.5t-50 63.5z" />
    <glyph glyph-name="arrowleft" unicode="&#x2190;" horiz-adv-x="627" 
d="M269 88l-34 -33l-206 205l206 206l34 -34l-148 -148h471v-48h-472z" />
    <glyph glyph-name="arrowup" unicode="&#x2191;" horiz-adv-x="647" 
d="M349 0h-51v457l-138 -139l-34 33l197 199l198 -199l-34 -33l-138 139v-457z" />
    <glyph glyph-name="arrowright" unicode="&#x2192;" horiz-adv-x="627" 
d="M506 236h-472v48h472l-149 148l34 34l207 -206l-207 -205l-34 33z" />
    <glyph glyph-name="arrowdown" unicode="&#x2193;" horiz-adv-x="647" 
d="M323 -35l-197 198l34 33l138 -139v447h51v-447l138 139l34 -33z" />
    <glyph glyph-name="arrowboth" unicode="&#x2194;" horiz-adv-x="848" 
d="M269 88l-34 -33l-206 205l206 206l34 -34l-149 -148h606l-148 148l33 34l207 -206l-207 -205l-33 33l149 148h-607z" />
    <glyph glyph-name="arrowupdn" unicode="&#x2195;" horiz-adv-x="647" 
d="M323 -59l-184 184l34 34l124 -126v465l-124 -126l-34 34l184 184l184 -184l-33 -34l-125 126v-465l125 126l33 -34z" />
    <glyph glyph-name="arrownorthwest" unicode="&#x2196;" horiz-adv-x="647" 
d="M170 173h-51v292h292v-49h-209l340 -340l-34 -34l-338 338v-207z" />
    <glyph glyph-name="arrownortheast" unicode="&#x2197;" horiz-adv-x="647" 
d="M139 42l-34 34l340 340h-209v49h292v-292h-51v207z" />
    <glyph glyph-name="arrowsoutheast" unicode="&#x2198;" horiz-adv-x="647" 
d="M528 48h-292v49h209l-340 340l34 34l338 -338v207h51v-292z" />
    <glyph glyph-name="arrowsouthwest" unicode="&#x2199;" horiz-adv-x="647" 
d="M411 48h-292v292h51v-207l338 338l34 -34l-340 -340h209v-49z" />
    <glyph glyph-name="partialdiff" unicode="&#x2202;" horiz-adv-x="506" 
d="M40 203q0 94 59 164q60 69 151 69q54 0 96.5 -31.5t56.5 -81.5q4 27 4 61q0 96 -33 180q-18 48 -54 76t-86 28q-66 0 -108 -50l-36 31q18 20 30 29q15 14 47.5 26t68.5 12q65 0 113.5 -39t75.5 -109q30 -82 30 -183q0 -142 -44 -248q-28 -67 -77.5 -107.5t-107.5 -40.5
q-85 0 -136 62q-50 62 -50 152zM89 195q0 -67 37 -113t100 -46q41 0 77.5 26.5t58.5 71.5q25 49 25 103q0 65 -39 109t-98 44q-66 0 -114 -54q-47 -55 -47 -141z" />
    <glyph glyph-name="increment" unicode="&#x2206;" horiz-adv-x="623" 
d="M583 0h-542v32l252 665h37l253 -665v-32zM312 608l-213 -560h425z" />
    <glyph glyph-name="product" unicode="&#x220f;" horiz-adv-x="642" 
d="M187 0h-49v650h-103v47h573v-47h-103v-650h-50v650h-268v-650z" />
    <glyph glyph-name="summation" unicode="&#x2211;" horiz-adv-x="576" 
d="M520 0h-466v36l239 333l-223 292v36h439v-48h-376l218 -285l-229 -316h398v-48z" />
    <glyph glyph-name="minus" unicode="&#x2212;" horiz-adv-x="391" 
d="M346 325h-300v47h300v-47z" />
    <glyph glyph-name="radical" unicode="&#x221a;" horiz-adv-x="718" 
d="M145 363l-91 -39l-16 37l133 57l194 -452l267 834h49l-293 -910h-40z" />
    <glyph glyph-name="infinity" unicode="&#x221e;" horiz-adv-x="780" 
d="M203 187q-66 0 -108.5 39.5t-42.5 100.5t45 103q44 43 112 43q45 0 85 -26t95 -84q53 56 97 83t91 27q65 0 109 -41t44 -105q0 -59 -45 -100q-43 -40 -111 -40q-46 0 -85.5 25t-94.5 82q-54 -55 -98 -81t-93 -26zM424 328l17 -17l17 -17l12 -12q57 -48 104 -48
q45 0 74.5 27t29.5 66q0 43 -29 71t-75 28q-25 0 -56 -17q-19 -11 -35.5 -24.5t-23.5 -21t-35 -35.5zM207 234q25 0 56 17q32 19 48 34q12 11 48 47q-90 94 -150 94q-45 0 -75 -28.5t-30 -70.5q0 -41 28.5 -67t74.5 -26z" />
    <glyph glyph-name="integral" unicode="&#x222b;" horiz-adv-x="321" 
d="M31 -94v43q15 -7 39 -7q44 0 60.5 40.5t16.5 134.5q0 37 -8 213q-8 178 -8 239q0 221 127 221q17 0 32 -4v-43q-11 4 -29 4q-79 0 -79 -182q0 -55 8 -237q8 -181 8 -219q0 -112 -30 -161.5t-93 -49.5q-17 0 -44 8z" />
    <glyph glyph-name="approxequal" unicode="&#x2248;" horiz-adv-x="414" 
d="M74 248l-34 4q5 35 30 56.5t62 21.5q32 0 83 -23t75 -23q48 0 61 43l34 -3q-13 -82 -93 -82q-34 0 -85 23t-74 23q-49 0 -59 -40zM74 383l-34 4q5 35 30 56.5t62 21.5q32 0 83 -23t75 -23q48 0 61 43l34 -3q-13 -82 -93 -82q-34 0 -85 23t-74 23q-49 0 -59 -40z" />
    <glyph glyph-name="notequal" unicode="&#x2260;" horiz-adv-x="433" 
d="M188 260l-69 -117l-39 22l56 95h-90v47h117l56 95h-173v47h201l64 108l39 -23l-50 -85h88v-47h-116l-56 -95h172v-47h-200z" />
    <glyph glyph-name="lessequal" unicode="&#x2264;" horiz-adv-x="409" 
d="M357 22h-327v47h327v-47zM357 143l-312 195v36l312 196v-53l-259 -161l259 -160v-53z" />
    <glyph glyph-name="greaterequal" unicode="&#x2265;" horiz-adv-x="409" 
d="M378 22h-326v47h326v-47zM364 338l-312 -195v53l259 160l-259 161v53l312 -196v-36z" />
    <glyph glyph-name="triagup" unicode="&#x25b2;" horiz-adv-x="447" 
d="M358 169h-268l131 229z" />
    <glyph glyph-name="triagrt" unicode="&#x25ba;" horiz-adv-x="447" 
d="M354 267l-228 -137v267z" />
    <glyph glyph-name="triagdn" unicode="&#x25bc;" horiz-adv-x="447" 
d="M358 358l-137 -228l-131 228h268z" />
    <glyph glyph-name="triaglf" unicode="&#x25c4;" horiz-adv-x="447" 
d="M320 130l-227 137l227 130v-267z" />
    <glyph glyph-name="lozenge" unicode="&#x25ca;" horiz-adv-x="531" 
d="M278 0h-24l-215 349l215 348h24l216 -348zM96 349l170 -279l170 279l-170 277z" />
    <glyph glyph-name="uni25E2" unicode="&#x25e2;" horiz-adv-x="447" 
d="M340 150l-258 64l189 189z" />
    <glyph glyph-name="uni25E3" unicode="&#x25e3;" horiz-adv-x="447" 
d="M366 214l-258 -64l69 253z" />
    <glyph glyph-name="uni25E4" unicode="&#x25e4;" horiz-adv-x="447" 
d="M364 318l-189 -189l-69 253z" />
    <glyph glyph-name="uni25E5" unicode="&#x25e5;" horiz-adv-x="447" 
d="M83 318l258 64l-69 -253z" />
    <glyph glyph-name="CR.001" horiz-adv-x="333" 
 />
    <glyph glyph-name="space.frac" horiz-adv-x="30" 
 />
    <glyph glyph-name="C.alt" horiz-adv-x="703" 
d="M412 709q131 0 220 -73v-61q-89 85 -220 85q-132 0 -221 -89q-88 -88 -88 -223t88 -223q89 -89 221 -89q131 0 220 85v-60q-89 -73 -220 -73q-153 0 -257 103q-104 104 -104 257t104 257q106 104 257 104z" />
    <glyph glyph-name="G.alt" horiz-adv-x="737" 
d="M51 348q0 154 104 258q103 103 255 103q114 0 203 -60v-58q-88 69 -203 69q-131 0 -220 -89q-87 -89 -87 -223t87 -223q89 -89 220 -89q125 0 211 77v211h-228v48h280v-278q-106 -106 -263 -106q-153 0 -256 103t-103 257z" />
    <glyph glyph-name="K.alt" 
d="M148 0h-52v697h52v-325l331 325h67l-343 -337l353 -360h-69l-339 345v-345z" />
    <glyph glyph-name="M.alt" horiz-adv-x="839" 
d="M82 0h-51l118 697h35l236 -614l235 614h35l118 -697h-51l-98 574l-221 -574h-36l-222 575z" />
    <glyph glyph-name="Q.alt" horiz-adv-x="824" 
d="M773 348q0 -155 -107 -257l80 -91h-61l-55 62q-95 -74 -218 -74q-153 0 -257 103q-104 104 -104 257t104 257q106 104 257 104q152 0 256 -104q105 -103 105 -257zM412 37q106 0 186 63l-176 200h61l151 -171q86 89 86 219q0 134 -88 222q-89 90 -220 90q-132 0 -220 -90
q-88 -88 -88 -222t88 -222q89 -89 220 -89z" />
    <glyph glyph-name="S.alt" horiz-adv-x="534" 
d="M50 77v65q85 -106 211 -106q79 0 124 37t45 95q0 67 -43 105q-24 21 -51 37q-26 17 -77 43q-88 47 -130 88q-41 43 -41 105q0 75 51.5 119t140.5 44q84 0 137 -48v-60q-57 59 -139 59q-65 0 -101.5 -31t-36.5 -83q0 -44 31 -75t110 -72q107 -54 155 -104q46 -46 46 -127
q0 -76 -59 -129q-59 -51 -158 -51q-134 0 -215 89z" />
    <glyph glyph-name="W.alt" horiz-adv-x="935" 
d="M329 0h-34l-264 697h54l227 -601l126 332l-105 269h55l79 -208l80 208h54l-104 -269l125 -333l227 602h55l-264 -697h-35l-138 363z" />
    <glyph glyph-name="Cacute.alt" horiz-adv-x="703" 
d="M412 709q131 0 220 -73v-61q-89 85 -220 85q-132 0 -221 -89q-88 -88 -88 -223t88 -223q89 -89 221 -89q131 0 220 85v-60q-89 -73 -220 -73q-153 0 -257 103q-104 104 -104 257t104 257q106 104 257 104zM425 745h-40l60 145h65z" />
    <glyph glyph-name="Ccircumflex.alt" horiz-adv-x="703" 
d="M412 709q131 0 220 -73v-61q-89 85 -220 85q-132 0 -221 -89q-88 -88 -88 -223t88 -223q89 -89 221 -89q131 0 220 85v-60q-89 -73 -220 -73q-153 0 -257 103q-104 104 -104 257t104 257q106 104 257 104zM322 769h-62l130 123h42l130 -123h-63l-88 85z" />
    <glyph glyph-name="Ccaron.alt" horiz-adv-x="703" 
d="M412 709q131 0 220 -73v-61q-89 85 -220 85q-132 0 -221 -89q-88 -88 -88 -223t88 -223q89 -89 221 -89q131 0 220 85v-60q-89 -73 -220 -73q-153 0 -257 103q-104 104 -104 257t104 257q106 104 257 104zM435 767h-42l-130 123h63l88 -85l88 85h62z" />
    <glyph glyph-name="Cdotaccent.alt" horiz-adv-x="703" 
d="M436 778q-25 -22 -50 0q-11 11 -11 26t10 25q15 16 35 9t25.5 -25t-9.5 -35zM412 709q131 0 220 -73v-61q-89 85 -220 85q-132 0 -221 -89q-88 -88 -88 -223t88 -223q89 -89 221 -89q131 0 220 85v-60q-89 -73 -220 -73q-153 0 -257 103q-104 104 -104 257t104 257
q106 104 257 104z" />
    <glyph glyph-name="Ccedilla.alt" horiz-adv-x="703" 
d="M293 -161l15 28q26 -17 50 -17q18 0 30 9t12 24q0 40 -58 40q-12 0 -15 -1l30 70q-133 19 -220 118q-86 100 -86 238q0 153 104 257q106 104 257 104q131 0 220 -73v-61q-89 85 -220 85q-132 0 -221 -89q-88 -88 -88 -223t88 -223q89 -89 221 -89q131 0 220 85v-60
q-89 -73 -220 -73h-18l-18 -42h6q25 0 42.5 -17.5t17.5 -44.5q0 -67 -83 -67q-40 0 -66 22z" />
    <glyph glyph-name="Gcircumflex.alt" horiz-adv-x="737" 
d="M51 348q0 154 104 258q103 103 255 103q114 0 203 -60v-58q-88 69 -203 69q-131 0 -220 -89q-87 -89 -87 -223t87 -223q89 -89 220 -89q125 0 211 77v211h-228v48h280v-278q-106 -106 -263 -106q-153 0 -256 103t-103 257zM323 769h-62l130 123h42l130 -123h-63l-88 85z
" />
    <glyph glyph-name="Gbreve.alt" horiz-adv-x="737" 
d="M275 869h47q19 -73 86 -73t86 73h47q-7 -53 -44 -85.5t-89 -32.5t-89 32.5t-44 85.5zM51 348q0 154 104 258q103 103 255 103q114 0 203 -60v-58q-88 69 -203 69q-131 0 -220 -89q-87 -89 -87 -223t87 -223q89 -89 220 -89q125 0 211 77v211h-228v48h280v-278
q-106 -106 -263 -106q-153 0 -256 103t-103 257z" />
    <glyph glyph-name="Gdotaccent.alt" horiz-adv-x="737" 
d="M411 768q-15 0 -25.5 10.5t-10.5 25.5q0 16 10.5 26t25.5 10q14 0 24.5 -10.5t10.5 -25.5t-10.5 -25.5t-24.5 -10.5zM51 348q0 154 104 258q103 103 255 103q114 0 203 -60v-58q-88 69 -203 69q-131 0 -220 -89q-87 -89 -87 -223t87 -223q89 -89 220 -89q125 0 211 77
v211h-228v48h280v-278q-106 -106 -263 -106q-153 0 -256 103t-103 257z" />
    <glyph glyph-name="Gcommaaccent.alt" horiz-adv-x="737" 
d="M51 348q0 154 104 258q103 103 255 103q114 0 203 -60v-58q-88 69 -203 69q-131 0 -220 -89q-87 -89 -87 -223t87 -223q89 -89 220 -89q125 0 211 77v211h-228v48h280v-278q-106 -106 -263 -106q-153 0 -256 103t-103 257zM353 -193h-40l60 145h65z" />
    <glyph glyph-name="Kcommaaccent.alt" horiz-adv-x="577" 
d="M219 -193l59 145h66l-85 -145h-40zM148 0h-52v697h52v-325l331 325h67l-343 -337l353 -360h-69l-339 345v-345z" />
    <glyph glyph-name="Sacute.alt" horiz-adv-x="534" 
d="M50 77v65q85 -106 211 -106q79 0 124 37t45 95q0 67 -43 105q-24 21 -51 37q-26 17 -77 43q-88 47 -130 88q-41 43 -41 105q0 75 51.5 119t140.5 44q84 0 137 -48v-60q-57 59 -139 59q-65 0 -101.5 -31t-36.5 -83q0 -44 31 -75t110 -72q107 -54 155 -104q46 -46 46 -127
q0 -76 -59 -129q-59 -51 -158 -51q-134 0 -215 89zM283 745h-40l60 145h65z" />
    <glyph glyph-name="Scircumflex.alt" horiz-adv-x="534" 
d="M50 77v65q85 -106 211 -106q79 0 124 37t45 95q0 67 -43 105q-24 21 -51 37q-26 17 -77 43q-88 47 -130 88q-41 43 -41 105q0 75 51.5 119t140.5 44q84 0 137 -48v-60q-57 59 -139 59q-65 0 -101.5 -31t-36.5 -83q0 -44 31 -75t110 -72q107 -54 155 -104q46 -46 46 -127
q0 -76 -59 -129q-59 -51 -158 -51q-134 0 -215 89zM190 769h-62l130 123h42l130 -123h-63l-88 85z" />
    <glyph glyph-name="Scaron.alt" horiz-adv-x="534" 
d="M50 77v65q85 -106 211 -106q79 0 124 37t45 95q0 67 -43 105q-24 21 -51 37q-26 17 -77 43q-88 47 -130 88q-41 43 -41 105q0 75 51.5 119t140.5 44q84 0 137 -48v-60q-57 59 -139 59q-65 0 -101.5 -31t-36.5 -83q0 -44 31 -75t110 -72q107 -54 155 -104q46 -46 46 -127
q0 -76 -59 -129q-59 -51 -158 -51q-134 0 -215 89zM304 767h-42l-130 123h63l88 -85l88 85h62z" />
    <glyph glyph-name="Scommaaccent.alt" horiz-adv-x="534" 
d="M50 77v65q85 -106 211 -106q79 0 124 37t45 95q0 67 -43 105q-24 21 -51 37q-26 17 -77 43q-88 47 -130 88q-41 43 -41 105q0 75 51.5 119t140.5 44q84 0 137 -48v-60q-57 59 -139 59q-65 0 -101.5 -31t-36.5 -83q0 -44 31 -75t110 -72q107 -54 155 -104q46 -46 46 -127
q0 -76 -59 -129q-59 -51 -158 -51q-134 0 -215 89zM181 -193l60 145h66l-85 -145h-41z" />
    <glyph glyph-name="Scedilla.alt" horiz-adv-x="534" 
d="M279 -12l-20 -43h6q27 0 44 -17.5t17 -44.5q0 -67 -84 -67q-38 0 -66 22l15 28q26 -17 50 -17q19 0 31 9t12 24q0 40 -59 40q-12 0 -15 -1l29 68q-116 8 -189 88v65q85 -106 211 -106q79 0 124 37t45 95q0 67 -43 105q-24 21 -51 37q-26 17 -77 43q-88 47 -130 88
q-41 43 -41 105q0 75 51.5 119t140.5 44q84 0 137 -48v-60q-57 59 -139 59q-65 0 -101.5 -31t-36.5 -83q0 -44 31 -75t110 -72q107 -54 155 -104q46 -46 46 -127q0 -74 -55 -125q-55 -50 -148 -55z" />
    <glyph glyph-name="Wgrave.alt" horiz-adv-x="935" 
d="M329 0h-34l-264 697h54l227 -601l126 332l-105 269h55l79 -208l80 208h54l-104 -269l125 -333l227 602h55l-264 -697h-35l-138 363zM491 745h-40l-85 145h65z" />
    <glyph glyph-name="Wacute.alt" horiz-adv-x="935" 
d="M329 0h-34l-264 697h54l227 -601l126 332l-105 269h55l79 -208l80 208h54l-104 -269l125 -333l227 602h55l-264 -697h-35l-138 363zM480 745h-40l60 145h65z" />
    <glyph glyph-name="Wcircumflex.alt" horiz-adv-x="935" 
d="M378 769h-62l130 123h42l130 -123h-63l-88 85zM329 0h-34l-264 697h54l227 -601l126 332l-105 269h55l79 -208l80 208h54l-104 -269l125 -333l227 602h55l-264 -697h-35l-138 363z" />
    <glyph glyph-name="Wdieresis.alt" horiz-adv-x="935" 
d="M600 766q-10 -10 -25 -10t-26 10q-10 11 -10 26t10 25q15 16 35 9t25.5 -25t-9.5 -35zM385 766q-10 -10 -25 -10t-26 10q-10 11 -10 26t10 25q15 16 35 9t25.5 -25t-9.5 -35zM329 0h-34l-264 697h54l227 -601l126 332l-105 269h55l79 -208l80 208h54l-104 -269l125 -333
l227 602h55l-264 -697h-35l-138 363z" />
    <glyph glyph-name="a.alt" horiz-adv-x="527" 
d="M483 36q8 0 16 2v-37q-14 -8 -39 -8q-33 0 -49 25q-10 14 -11 45q-46 -76 -178 -76q-79 0 -127 39.5t-48 106.5q0 146 205 158q80 5 111.5 23t31.5 64q0 39 -32.5 66t-91.5 27q-92 0 -143 -83l-37 27q58 103 180 103q78 0 125.5 -40t47.5 -107v-285q0 -28 8.5 -39
t30.5 -11zM395 162v124q-14 -20 -44 -28t-97 -14q-81 -6 -119 -31.5t-38 -78.5q0 -45 34 -72.5t96 -27.5q80 0 124 35t44 93z" />
    <glyph glyph-name="c.alt" horiz-adv-x="515" 
d="M304 517q101 0 172 -62v-57q-72 72 -172 72q-94 0 -155 -63q-61 -61 -61 -155t61 -156q62 -62 155 -62q100 0 172 72v-57q-68 -62 -172 -62q-113 0 -189 76q-77 77 -77 189t77 189q76 76 189 76z" />
    <glyph glyph-name="e.alt" horiz-adv-x="559" 
d="M39 248v3q0 117 70 190q71 75 176 75q101 0 167 -73q67 -73 67 -178q0 -18 -1 -25h-430q1 -90 57 -149q55 -58 142 -58q62 0 111.5 22t77.5 56v-59q-74 -66 -189 -66q-109 0 -179 72q-69 74 -69 190zM90 285h376q-2 78 -54 130q-53 54 -127 54q-79 0 -136 -54
q-56 -53 -59 -130z" />
    <glyph glyph-name="g.alt" horiz-adv-x="604" 
d="M73 -145v58q67 -79 218 -79q92 0 143 42q59 48 59 172v62q-24 -56 -76.5 -89t-123.5 -33q-108 0 -181 76t-73 190q0 113 73 187q73 76 181 76q71 0 123.5 -32t76.5 -87v106h50v-429q0 -93 -16 -146.5t-61 -89.5q-64 -52 -175 -52q-145 0 -218 68zM89 254q0 -95 58 -157
q59 -62 146 -62q89 0 147 61q59 62 59 156t-59 156t-147 62q-87 0 -146 -62q-58 -61 -58 -154z" />
    <glyph glyph-name="j.alt" horiz-adv-x="172" 
d="M86 602q-15 0 -25.5 10.5t-10.5 25.5t10.5 25.5t25.5 10.5q14 0 25 -10.5t11 -25.5t-11 -25.5t-25 -10.5zM111 -193h-50v697h50v-697z" />
    <glyph glyph-name="k.alt" horiz-adv-x="434" 
d="M111 0h-50v697h50v-418l226 225h63l-239 -238l262 -266h-64l-248 250v-250z" />
    <glyph glyph-name="l.alt" horiz-adv-x="260" 
d="M62 127v570h50v-567q0 -50 18 -73t57 -23q27 0 42 4v-46q-25 -5 -42 -5q-125 0 -125 140z" />
    <glyph glyph-name="r.alt" horiz-adv-x="336" 
d="M111 0h-50v356q0 163 165 163q38 0 65 -7v-47q-27 7 -66 7q-59 0 -86.5 -27t-27.5 -96v-349z" />
    <glyph glyph-name="s.alt" horiz-adv-x="399" 
d="M33 56v60q62 -80 170 -80q57 0 88.5 24t31.5 65q0 46 -37 73q-25 19 -37 25q-21 13 -55 29q-74 37 -103 67t-29 75q0 56 39.5 89.5t106.5 33.5t111 -35v-53q-44 41 -107 41q-48 0 -74 -20t-26 -56q0 -27 18 -45.5t65 -42.5l36 -19q20 -10 35 -19q16 -8 29 -17
q21 -12 28 -19q33 -33 37 -45q13 -30 13 -62q0 -52 -43 -94q-42 -42 -127 -42q-112 0 -170 67z" />
    <glyph glyph-name="t.alt" horiz-adv-x="315" 
d="M93 140v317h-59v47h59v193h50v-193h140v-47h-140v-317q0 -57 21 -82t67 -25q27 0 52 5v-45q-24 -6 -50 -6q-68 0 -104 35t-36 118z" />
    <glyph glyph-name="u.alt" horiz-adv-x="521" 
d="M414 504h50v-504h-50v97q-40 -105 -171 -105q-85 0 -136.5 54.5t-51.5 146.5v311h50v-301q0 -75 41 -119.5t108 -44.5q73 0 116.5 53t43.5 141v271z" />
    <glyph glyph-name="w.alt" horiz-adv-x="754" 
d="M270 0h-35l-216 504h52l181 -424l96 224l-87 200h52l64 -146l63 146h52l-87 -200l96 -224l181 424h53l-217 -504h-35l-106 250z" />
    <glyph glyph-name="y.alt" horiz-adv-x="492" 
d="M189 -78l30 75l-200 507h52l173 -442l176 442h53l-238 -593q-24 -61 -51 -86q-34 -32 -84 -32q-25 0 -46 8v46q18 -7 46 -7q32 0 54 22q18 18 35 60z" />
    <glyph glyph-name="agrave.alt" horiz-adv-x="527" 
d="M296 552h-40l-85 145h66zM483 36q8 0 16 2v-37q-14 -8 -39 -8q-33 0 -49 25q-10 14 -11 45q-46 -76 -178 -76q-79 0 -127 39.5t-48 106.5q0 146 205 158q80 5 111.5 23t31.5 64q0 39 -32.5 66t-91.5 27q-92 0 -143 -83l-37 27q58 103 180 103q78 0 125.5 -40t47.5 -107
v-285q0 -28 8.5 -39t30.5 -11zM395 162v124q-14 -20 -44 -28t-97 -14q-81 -6 -119 -31.5t-38 -78.5q0 -45 34 -72.5t96 -27.5q80 0 124 35t44 93z" />
    <glyph glyph-name="aacute.alt" horiz-adv-x="527" 
d="M483 36q8 0 16 2v-37q-14 -8 -39 -8q-33 0 -49 25q-10 14 -11 45q-46 -76 -178 -76q-79 0 -127 39.5t-48 106.5q0 146 205 158q80 5 111.5 23t31.5 64q0 39 -32.5 66t-91.5 27q-92 0 -143 -83l-37 27q58 103 180 103q78 0 125.5 -40t47.5 -107v-285q0 -28 8.5 -39
t30.5 -11zM395 162v124q-14 -20 -44 -28t-97 -14q-81 -6 -119 -31.5t-38 -78.5q0 -45 34 -72.5t96 -27.5q80 0 124 35t44 93zM275 552h-40l60 145h65z" />
    <glyph glyph-name="acircumflex.alt" horiz-adv-x="527" 
d="M192 576h-62l129 123h42l130 -123h-63l-88 85zM483 36q8 0 16 2v-37q-14 -8 -39 -8q-33 0 -49 25q-10 14 -11 45q-46 -76 -178 -76q-79 0 -127 39.5t-48 106.5q0 146 205 158q80 5 111.5 23t31.5 64q0 39 -32.5 66t-91.5 27q-92 0 -143 -83l-37 27q58 103 180 103
q78 0 125.5 -40t47.5 -107v-285q0 -28 8.5 -39t30.5 -11zM395 162v124q-14 -20 -44 -28t-97 -14q-81 -6 -119 -31.5t-38 -78.5q0 -45 34 -72.5t96 -27.5q80 0 124 35t44 93z" />
    <glyph glyph-name="atilde.alt" horiz-adv-x="527" 
d="M164 598l-33 2q4 34 26 56.5t54 22.5q30 0 67 -22t58 -22q42 0 51 47l34 -3q-10 -85 -83 -85q-30 0 -68 21q-37 22 -57 22q-40 0 -49 -39zM483 36q8 0 16 2v-37q-14 -8 -39 -8q-33 0 -49 25q-10 14 -11 45q-46 -76 -178 -76q-79 0 -127 39.5t-48 106.5q0 146 205 158
q80 5 111.5 23t31.5 64q0 39 -32.5 66t-91.5 27q-92 0 -143 -83l-37 27q58 103 180 103q78 0 125.5 -40t47.5 -107v-285q0 -28 8.5 -39t30.5 -11zM395 162v124q-14 -20 -44 -28t-97 -14q-81 -6 -119 -31.5t-38 -78.5q0 -45 34 -72.5t96 -27.5q80 0 124 35t44 93z" />
    <glyph glyph-name="adieresis.alt" horiz-adv-x="527" 
d="M394 612q-10 -10 -25 -10t-26 10q-10 12 -10 26.5t11 24.5q14 17 34 9.5t25.5 -25.5t-9.5 -35zM196 612q-10 -10 -25 -10t-26 10q-10 12 -10 26.5t11 24.5q14 17 34 9.5t25.5 -25.5t-9.5 -35zM483 36q8 0 16 2v-37q-14 -8 -39 -8q-33 0 -49 25q-10 14 -11 45
q-46 -76 -178 -76q-79 0 -127 39.5t-48 106.5q0 146 205 158q80 5 111.5 23t31.5 64q0 39 -32.5 66t-91.5 27q-92 0 -143 -83l-37 27q58 103 180 103q78 0 125.5 -40t47.5 -107v-285q0 -28 8.5 -39t30.5 -11zM395 162v124q-14 -20 -44 -28t-97 -14q-81 -6 -119 -31.5
t-38 -78.5q0 -45 34 -72.5t96 -27.5q80 0 124 35t44 93z" />
    <glyph glyph-name="amacron.alt" horiz-adv-x="527" 
d="M483 36q8 0 16 2v-37q-14 -8 -39 -8q-33 0 -49 25q-10 14 -11 45q-46 -76 -178 -76q-79 0 -127 39.5t-48 106.5q0 146 205 158q80 5 111.5 23t31.5 64q0 39 -32.5 66t-91.5 27q-92 0 -143 -83l-37 27q58 103 180 103q78 0 125.5 -40t47.5 -107v-285q0 -28 8.5 -39
t30.5 -11zM395 162v124q-14 -20 -44 -28t-97 -14q-81 -6 -119 -31.5t-38 -78.5q0 -45 34 -72.5t96 -27.5q80 0 124 35t44 93zM419 607h-294v47h294v-47z" />
    <glyph glyph-name="abreve.alt" horiz-adv-x="527" 
d="M269 579q-52 0 -89 32.5t-44 85.5h47q21 -73 86 -73q66 0 87 73h47q-7 -53 -44.5 -85.5t-89.5 -32.5zM483 36q8 0 16 2v-37q-14 -8 -39 -8q-33 0 -49 25q-10 14 -11 45q-46 -76 -178 -76q-79 0 -127 39.5t-48 106.5q0 146 205 158q80 5 111.5 23t31.5 64q0 39 -32.5 66
t-91.5 27q-92 0 -143 -83l-37 27q58 103 180 103q78 0 125.5 -40t47.5 -107v-285q0 -28 8.5 -39t30.5 -11zM395 162v124q-14 -20 -44 -28t-97 -14q-81 -6 -119 -31.5t-38 -78.5q0 -45 34 -72.5t96 -27.5q80 0 124 35t44 93z" />
    <glyph glyph-name="aring.alt" horiz-adv-x="527" 
d="M190 643q0 33 24 57t58 24q33 0 57 -24t24 -57q0 -34 -23.5 -58t-57.5 -24t-58 24t-24 58zM240 611q14 -13 32 -13t31 13q13 14 13 32t-13 31t-31 13t-32 -13q-13 -13 -13 -31t13 -32zM483 36q8 0 16 2v-37q-14 -8 -39 -8q-33 0 -49 25q-10 14 -11 45q-46 -76 -178 -76
q-79 0 -127 39.5t-48 106.5q0 146 205 158q80 5 111.5 23t31.5 64q0 39 -32.5 66t-91.5 27q-92 0 -143 -83l-37 27q58 103 180 103q78 0 125.5 -40t47.5 -107v-285q0 -28 8.5 -39t30.5 -11zM395 162v124q-14 -20 -44 -28t-97 -14q-81 -6 -119 -31.5t-38 -78.5
q0 -45 34 -72.5t96 -27.5q80 0 124 35t44 93z" />
    <glyph glyph-name="aringacute.alt" horiz-adv-x="527" 
d="M289 762h-40l60 145h65zM190 643q0 33 24 57t58 24t58 -24t24 -57q0 -34 -24 -58t-58 -24t-58 24t-24 58zM272 598q18 0 31.5 13.5t13.5 31.5t-13.5 31t-31.5 13q-17 0 -30.5 -13t-13.5 -31t13.5 -31.5t30.5 -13.5zM483 36q8 0 16 2v-37q-14 -8 -39 -8q-33 0 -49 25
q-10 14 -11 45q-46 -76 -178 -76q-79 0 -127 39.5t-48 106.5q0 146 205 158q80 5 111.5 23t31.5 64q0 39 -32.5 66t-91.5 27q-92 0 -143 -83l-37 27q58 103 180 103q78 0 125.5 -40t47.5 -107v-285q0 -28 8.5 -39t30.5 -11zM395 162v124q-14 -20 -44 -28t-97 -14
q-81 -6 -119 -31.5t-38 -78.5q0 -45 34 -72.5t96 -27.5q80 0 124 35t44 93z" />
    <glyph glyph-name="aogonek.alt" horiz-adv-x="527" 
d="M47 133q0 146 205 158q80 5 111.5 23t31.5 64q0 39 -32.5 66t-91.5 27q-92 0 -143 -83l-37 27q58 103 180 103q78 0 125.5 -40t47.5 -107v-285q0 -28 8.5 -39t30.5 -11q8 0 16 2v-37q-78 -45 -78 -100q0 -23 15 -36t37 -13q33 0 59 15l-9 -42q-30 -14 -58 -14
q-37 0 -62.5 23t-25.5 58q0 59 66 103q-18 4 -32 23q-10 14 -11 45q-46 -76 -178 -76q-79 0 -127 39.5t-48 106.5zM97 134q0 -45 34 -72.5t96 -27.5q80 0 124 35t44 93v124q-14 -20 -44 -28t-97 -14q-81 -6 -119 -31.5t-38 -78.5z" />
    <glyph glyph-name="cacute.alt" horiz-adv-x="515" 
d="M304 517q101 0 172 -62v-57q-72 72 -172 72q-94 0 -155 -63q-61 -61 -61 -155t61 -156q62 -62 155 -62q100 0 172 72v-57q-68 -62 -172 -62q-113 0 -189 76q-77 77 -77 189t77 189q76 76 189 76zM320 552h-40l60 145h65z" />
    <glyph glyph-name="ccircumflex.alt" horiz-adv-x="515" 
d="M219 576h-62l129 123h42l130 -123h-63l-88 85zM304 517q101 0 172 -62v-57q-72 72 -172 72q-94 0 -155 -63q-61 -61 -61 -155t61 -156q62 -62 155 -62q100 0 172 72v-57q-68 -62 -172 -62q-113 0 -189 76q-77 77 -77 189t77 189q76 76 189 76z" />
    <glyph glyph-name="ccaron.alt" horiz-adv-x="515" 
d="M321 574h-42l-130 123h63l88 -85l88 85h62zM304 517q101 0 172 -62v-57q-72 72 -172 72q-94 0 -155 -63q-61 -61 -61 -155t61 -156q62 -62 155 -62q100 0 172 72v-57q-68 -62 -172 -62q-113 0 -189 76q-77 77 -77 189t77 189q76 76 189 76z" />
    <glyph glyph-name="cdotaccent.alt" horiz-adv-x="515" 
d="M333 612q-10 -10 -25 -10t-26 10q-10 11 -10 26t10 25q15 16 35 9t25.5 -25t-9.5 -35zM304 517q101 0 172 -62v-57q-72 72 -172 72q-94 0 -155 -63q-61 -61 -61 -155t61 -156q62 -62 155 -62q100 0 172 72v-57q-68 -62 -172 -62q-113 0 -189 76q-77 77 -77 189t77 189
q76 76 189 76z" />
    <glyph glyph-name="ccedilla.alt" horiz-adv-x="516" 
d="M304 -13h-1l-18 -41h6q25 0 42.5 -17.5t17.5 -44.5q0 -67 -83 -67q-38 0 -66 22l15 28q26 -17 50 -17q18 0 30 9t12 24q0 40 -58 40q-12 0 -15 -1l29 68q-100 14 -163 86q-64 73 -64 176q0 112 77 189q76 76 189 76q101 0 172 -62v-57q-72 72 -172 72q-94 0 -155 -63
q-61 -61 -61 -155t61 -156q62 -62 155 -62q100 0 172 72v-57q-68 -62 -172 -62z" />
    <glyph glyph-name="egrave.alt" horiz-adv-x="559" 
d="M39 248v3q0 117 70 190q71 75 176 75q101 0 167 -73q67 -73 67 -178q0 -18 -1 -25h-430q1 -90 57 -149q55 -58 142 -58q62 0 111.5 22t77.5 56v-59q-74 -66 -189 -66q-109 0 -179 72q-69 74 -69 190zM90 285h376q-2 78 -54 130q-53 54 -127 54q-79 0 -136 -54
q-56 -53 -59 -130zM321 552h-40l-85 145h65z" />
    <glyph glyph-name="eacute.alt" horiz-adv-x="559" 
d="M39 248v3q0 117 70 190q71 75 176 75q101 0 167 -73q67 -73 67 -178q0 -18 -1 -25h-430q1 -90 57 -149q55 -58 142 -58q62 0 111.5 22t77.5 56v-59q-74 -66 -189 -66q-109 0 -179 72q-69 74 -69 190zM90 285h376q-2 78 -54 130q-53 54 -127 54q-79 0 -136 -54
q-56 -53 -59 -130zM300 552h-40l60 145h65z" />
    <glyph glyph-name="ecircumflex.alt" horiz-adv-x="559" 
d="M199 576h-62l129 123h42l130 -123h-63l-88 85zM39 248v3q0 117 70 190q71 75 176 75q101 0 167 -73q67 -73 67 -178q0 -18 -1 -25h-430q1 -90 57 -149q55 -58 142 -58q62 0 111.5 22t77.5 56v-59q-74 -66 -189 -66q-109 0 -179 72q-69 74 -69 190zM90 285h376
q-2 78 -54 130q-53 54 -127 54q-79 0 -136 -54q-56 -53 -59 -130z" />
    <glyph glyph-name="ecaron.alt" horiz-adv-x="559" 
d="M310 574h-42l-130 123h63l88 -85l88 85h62zM39 248v3q0 117 70 190q71 75 176 75q101 0 167 -73q67 -73 67 -178q0 -18 -1 -25h-430q1 -90 57 -149q55 -58 142 -58q62 0 111.5 22t77.5 56v-59q-74 -66 -189 -66q-109 0 -179 72q-69 74 -69 190zM90 285h376q-2 78 -54 130
q-53 54 -127 54q-79 0 -136 -54q-56 -53 -59 -130z" />
    <glyph glyph-name="edieresis.alt" horiz-adv-x="559" 
d="M414 612q-10 -10 -25 -10t-26 10q-10 12 -10 26.5t11 24.5q14 17 34 9.5t25.5 -25.5t-9.5 -35zM184 602q-15 0 -25.5 10t-10.5 26q0 15 10.5 25.5t25.5 10.5q14 0 24.5 -10.5t10.5 -25.5t-10.5 -25.5t-24.5 -10.5zM39 248v3q0 117 70 190q71 75 176 75q101 0 167 -73
q67 -73 67 -178q0 -18 -1 -25h-430q1 -90 57 -149q55 -58 142 -58q62 0 111.5 22t77.5 56v-59q-74 -66 -189 -66q-109 0 -179 72q-69 74 -69 190zM90 285h376q-2 78 -54 130q-53 54 -127 54q-79 0 -136 -54q-56 -53 -59 -130z" />
    <glyph glyph-name="emacron.alt" horiz-adv-x="559" 
d="M39 248v3q0 117 70 190q71 75 176 75q101 0 167 -73q67 -73 67 -178q0 -18 -1 -25h-430q1 -90 57 -149q55 -58 142 -58q62 0 111.5 22t77.5 56v-59q-74 -66 -189 -66q-109 0 -179 72q-69 74 -69 190zM90 285h376q-2 78 -54 130q-53 54 -127 54q-79 0 -136 -54
q-56 -53 -59 -130zM433 607h-294v47h294v-47z" />
    <glyph glyph-name="ebreve.alt" horiz-adv-x="559" 
d="M156 697h47q19 -73 86 -73q65 0 86 73h47q-7 -53 -44 -85.5t-89 -32.5t-89 32.5t-44 85.5zM39 248v3q0 117 70 190q71 75 176 75q101 0 167 -73q67 -73 67 -178q0 -18 -1 -25h-430q1 -90 57 -149q55 -58 142 -58q62 0 111.5 22t77.5 56v-59q-74 -66 -189 -66
q-109 0 -179 72q-69 74 -69 190zM90 285h376q-2 78 -54 130q-53 54 -127 54q-79 0 -136 -54q-56 -53 -59 -130z" />
    <glyph glyph-name="edotaccent.alt" horiz-adv-x="559" 
d="M39 248v3q0 117 70 190q71 75 176 75q101 0 167 -73q67 -73 67 -178q0 -18 -1 -25h-430q1 -90 57 -149q55 -58 142 -58q62 0 111.5 22t77.5 56v-59q-74 -66 -189 -66q-109 0 -179 72q-69 74 -69 190zM90 285h376q-2 78 -54 130q-53 54 -127 54q-79 0 -136 -54
q-56 -53 -59 -130zM285 602q-15 0 -25.5 10t-10.5 26q0 15 10.5 25.5t25.5 10.5q14 0 24.5 -10.5t10.5 -25.5t-10.5 -25.5t-24.5 -10.5z" />
    <glyph glyph-name="eogonek.alt" horiz-adv-x="559" 
d="M39 248v3q0 118 70 191q71 75 176 75q101 0 167 -73q67 -73 67 -179q0 -17 -1 -24h-430q2 -91 57 -150q55 -58 142 -58q61 0 111 23.5t76 58.5v-57q-33 -26 -55 -39q-29 -15 -61 -38q-40 -31 -40 -74q0 -23 14.5 -36t36.5 -13q31 0 57 15l-9 -43q-25 -13 -56 -13
q-37 0 -62 23t-25 58q0 55 52 94q-13 -4 -39 -4q-109 0 -179 72q-69 74 -69 188zM92 285h374q-2 77 -54 131q-53 54 -127 54q-79 0 -134 -54q-56 -53 -59 -131z" />
    <glyph glyph-name="gcircumflex.alt" horiz-adv-x="604" 
d="M220 576h-62l129 123h42l130 -123h-63l-88 85zM73 -145v58q67 -79 218 -79q92 0 143 42q59 48 59 172v62q-24 -56 -76.5 -89t-123.5 -33q-108 0 -181 76t-73 190q0 113 73 187q73 76 181 76q71 0 123.5 -32t76.5 -87v106h50v-429q0 -93 -16 -146.5t-61 -89.5
q-64 -52 -175 -52q-145 0 -218 68zM89 254q0 -95 58 -157q59 -62 146 -62q89 0 147 61q59 62 59 156t-59 156t-147 62q-87 0 -146 -62q-58 -61 -58 -154z" />
    <glyph glyph-name="gbreve.alt" horiz-adv-x="604" 
d="M73 -145v58q67 -79 218 -79q92 0 143 42q59 48 59 172v62q-24 -56 -76.5 -89t-123.5 -33q-108 0 -181 76t-73 190q0 113 73 187q73 76 181 76q71 0 123.5 -32t76.5 -87v106h50v-429q0 -93 -16 -146.5t-61 -89.5q-64 -52 -175 -52q-145 0 -218 68zM89 254q0 -95 58 -157
q59 -62 146 -62q89 0 147 61q59 62 59 156t-59 156t-147 62q-87 0 -146 -62q-58 -61 -58 -154zM168 697h48q19 -73 86 -73q65 0 86 73h47q-7 -53 -44 -85.5t-89 -32.5t-89.5 32.5t-44.5 85.5z" />
    <glyph glyph-name="gdotaccent.alt" horiz-adv-x="604" 
d="M324 612q-10 -10 -25 -10t-26 10q-10 12 -10 26.5t11 24.5q14 17 34 9.5t25.5 -25.5t-9.5 -35zM73 -145v58q67 -79 218 -79q92 0 143 42q59 48 59 172v62q-24 -56 -76.5 -89t-123.5 -33q-108 0 -181 76t-73 190q0 113 73 187q73 76 181 76q71 0 123.5 -32t76.5 -87v106
h50v-429q0 -93 -16 -146.5t-61 -89.5q-64 -52 -175 -52q-145 0 -218 68zM89 254q0 -95 58 -157q59 -62 146 -62q89 0 147 61q59 62 59 156t-59 156t-147 62q-87 0 -146 -62q-58 -61 -58 -154z" />
    <glyph glyph-name="gcommaaccent.alt" horiz-adv-x="604" 
d="M73 -145v58q67 -79 218 -79q92 0 143 42q59 48 59 172v62q-24 -56 -76.5 -89t-123.5 -33q-108 0 -181 76t-73 190q0 113 73 187q73 76 181 76q71 0 123.5 -32t76.5 -87v106h50v-429q0 -93 -16 -146.5t-61 -89.5q-64 -52 -175 -52q-145 0 -218 68zM89 254q0 -95 58 -157
q59 -62 146 -62q89 0 147 61q59 62 59 156t-59 156t-147 62q-87 0 -146 -62q-58 -61 -58 -154zM306 552h-40l60 145h65z" />
    <glyph glyph-name="jcircumflex.alt" horiz-adv-x="192" 
d="M121 -193h-50v697h50v-697zM29 576h-58l104 123h42l105 -123h-58l-68 87z" />
    <glyph glyph-name="kcommaaccent.alt" horiz-adv-x="434" 
d="M142 -193l60 145h66l-85 -145h-41zM111 0h-50v697h50v-418l226 225h63l-239 -238l262 -266h-64l-248 250v-250z" />
    <glyph glyph-name="lacute.alt" horiz-adv-x="260" 
d="M62 127v570h50v-567q0 -50 18 -73t57 -23q27 0 42 4v-46q-25 -5 -42 -5q-125 0 -125 140zM102 722h-40l60 145h65z" />
    <glyph glyph-name="lcaron.alt" horiz-adv-x="298" 
d="M197 552h-41l60 145h65zM62 127v570h50v-567q0 -50 18 -73t57 -23q27 0 42 4v-46q-25 -5 -42 -5q-125 0 -125 140z" />
    <glyph glyph-name="lcommaaccent.alt" horiz-adv-x="260" 
d="M44 -193l59 145h66l-85 -145h-40zM62 127v570h50v-567q0 -50 18 -73t57 -23q27 0 42 4v-46q-25 -5 -42 -5q-125 0 -125 140z" />
    <glyph glyph-name="ldot.alt" horiz-adv-x="283" 
d="M225 343q-10 -10 -25 -10t-26 10q-10 10 -10 25t10 25q15 17 35 10t25 -25.5t-9 -34.5zM62 127v570h50v-567q0 -50 18 -73t57 -23q27 0 42 4v-46q-25 -5 -42 -5q-125 0 -125 140z" />
    <glyph glyph-name="lslash.alt" horiz-adv-x="274" 
d="M76 127v203l-68 -40v52l68 40v315h48v-286l86 51v-52l-86 -51v-229q0 -51 18 -73.5t59 -22.5q27 0 42 4v-46q-25 -5 -42 -5q-125 0 -125 140z" />
    <glyph glyph-name="racute.alt" horiz-adv-x="336" 
d="M177 552h-41l60 145h65zM111 0h-50v356q0 163 165 163q38 0 65 -7v-47q-27 7 -66 7q-59 0 -86.5 -27t-27.5 -96v-349z" />
    <glyph glyph-name="rcommaaccent.alt" horiz-adv-x="336" 
d="M1 -193l60 145h65l-85 -145h-40zM111 0h-50v356q0 163 165 163q38 0 65 -7v-47q-27 7 -66 7q-59 0 -86.5 -27t-27.5 -96v-349z" />
    <glyph glyph-name="rcaron.alt" horiz-adv-x="336" 
d="M207 574h-42l-130 123h63l88 -85l88 85h62zM111 0h-50v356q0 163 165 163q38 0 65 -7v-47q-27 7 -66 7q-59 0 -86.5 -27t-27.5 -96v-349z" />
    <glyph glyph-name="sacute.alt" horiz-adv-x="399" 
d="M210 552h-40l59 145h66zM33 56v60q62 -80 170 -80q57 0 88.5 24t31.5 65q0 46 -37 73q-25 19 -37 25q-21 13 -55 29q-74 37 -103 67t-29 75q0 56 39.5 89.5t106.5 33.5t111 -35v-53q-44 41 -107 41q-48 0 -74 -20t-26 -56q0 -27 18 -45.5t65 -42.5l36 -19q20 -10 35 -19
q16 -8 29 -17q21 -12 28 -19q33 -33 37 -45q13 -30 13 -62q0 -52 -43 -94q-42 -42 -127 -42q-112 0 -170 67z" />
    <glyph glyph-name="scircumflex.alt" horiz-adv-x="399" 
d="M121 576h-62l130 123h42l130 -123h-63l-88 85zM33 56v60q62 -80 170 -80q57 0 88.5 24t31.5 65q0 46 -37 73q-25 19 -37 25q-21 13 -55 29q-74 37 -103 67t-29 75q0 56 39.5 89.5t106.5 33.5t111 -35v-53q-44 41 -107 41q-48 0 -74 -20t-26 -56q0 -27 18 -45.5t65 -42.5
l36 -19q20 -10 35 -19q16 -8 29 -17q21 -12 28 -19q33 -33 37 -45q13 -30 13 -62q0 -52 -43 -94q-42 -42 -127 -42q-112 0 -170 67z" />
    <glyph glyph-name="scaron.alt" horiz-adv-x="399" 
d="M231 574h-42l-130 123h63l88 -85l88 85h62zM33 56v60q62 -80 170 -80q57 0 88.5 24t31.5 65q0 46 -37 73q-25 19 -37 25q-21 13 -55 29q-74 37 -103 67t-29 75q0 56 39.5 89.5t106.5 33.5t111 -35v-53q-44 41 -107 41q-48 0 -74 -20t-26 -56q0 -27 18 -45.5t65 -42.5
l36 -19q20 -10 35 -19q16 -8 29 -17q21 -12 28 -19q33 -33 37 -45q13 -30 13 -62q0 -52 -43 -94q-42 -42 -127 -42q-112 0 -170 67z" />
    <glyph glyph-name="scommaaccent.alt" horiz-adv-x="399" 
d="M110 -193l60 145h65l-85 -145h-40zM33 56v60q62 -80 170 -80q57 0 88.5 24t31.5 65q0 46 -37 73q-25 19 -37 25q-21 13 -55 29q-74 37 -103 67t-29 75q0 56 39.5 89.5t106.5 33.5t111 -35v-53q-44 41 -107 41q-48 0 -74 -20t-26 -56q0 -27 18 -45.5t65 -42.5l36 -19
q20 -10 35 -19q16 -8 29 -17q21 -12 28 -19q33 -33 37 -45q13 -30 13 -62q0 -52 -43 -94q-42 -42 -127 -42q-112 0 -170 67z" />
    <glyph glyph-name="scedilla.alt" horiz-adv-x="400" 
d="M215 -11l-21 -43h6q27 0 44.5 -17.5t17.5 -44.5q0 -33 -23 -50t-62 -17q-40 0 -66 22l15 28q26 -17 50 -17q18 0 31 9t13 24q0 40 -60 40q-12 0 -15 -1l31 68q-93 7 -143 66v60q62 -80 170 -80q57 0 88.5 24t31.5 65q0 46 -37 73q-25 19 -37 25q-21 13 -55 29
q-74 37 -103 67t-29 75q0 56 39.5 89.5t106.5 33.5t111 -35v-53q-44 41 -107 41q-48 0 -74 -20t-26 -56q0 -27 18 -45.5t65 -42.5l36 -19q20 -10 35 -19q16 -8 29 -17q21 -12 28 -19q33 -33 37 -45q13 -30 13 -62q0 -52 -40 -92q-41 -41 -118 -44z" />
    <glyph glyph-name="germandbls.alt" horiz-adv-x="545" 
d="M112 0h-52v545q0 67 47 116q48 48 116 48t115 -47t47 -115q0 -77 -59 -121q73 -4 129 -65q56 -59 56 -148q0 -97 -68 -162t-169 -65q-20 0 -52 5v51q29 -8 52 -8q78 0 131 52q54 52 54 127q0 72 -52 123q-51 52 -129 52h-11q-23 -2 -45 -7v46q52 8 81 38q31 31 31 80
q0 47 -33 82q-31 34 -78 34q-46 0 -79 -34q-32 -35 -32 -82v-545z" />
    <glyph glyph-name="tcaron.alt" horiz-adv-x="338" 
d="M93 140v317h-59v47h59v193h50v-193h140v-47h-140v-317q0 -57 21 -82t67 -25q27 0 52 5v-45q-24 -6 -50 -6q-68 0 -104 35t-36 118zM247 552h-40l60 145h65z" />
    <glyph glyph-name="tcommaaccent.alt" horiz-adv-x="315" 
d="M74 -193l59 145h66l-85 -145h-40zM93 140v317h-59v47h59v193h50v-193h140v-47h-140v-317q0 -57 21 -82t67 -25q27 0 52 5v-45q-24 -6 -50 -6q-68 0 -104 35t-36 118z" />
    <glyph glyph-name="tbar.alt" horiz-adv-x="317" 
d="M93 140v176h-59v47h59v94h-59v47h59v193h50v-193h140v-47h-140v-94h140v-47h-140v-176q0 -57 21 -82t67 -25q27 0 52 5v-45q-24 -6 -50 -6q-68 0 -104 35t-36 118z" />
    <glyph glyph-name="ugrave.alt" horiz-adv-x="521" 
d="M414 504h50v-504h-50v97q-40 -105 -171 -105q-85 0 -136.5 54.5t-51.5 146.5v311h50v-301q0 -75 41 -119.5t108 -44.5q73 0 116.5 53t43.5 141v271zM295 552h-40l-85 145h65z" />
    <glyph glyph-name="uacute.alt" horiz-adv-x="521" 
d="M262 552h-40l59 145h66zM414 504h50v-504h-50v97q-40 -105 -171 -105q-85 0 -136.5 54.5t-51.5 146.5v311h50v-301q0 -75 41 -119.5t108 -44.5q73 0 116.5 53t43.5 141v271z" />
    <glyph glyph-name="ucircumflex.alt" horiz-adv-x="521" 
d="M173 576h-62l130 123h42l130 -123h-63l-88 85zM414 504h50v-504h-50v97q-40 -105 -171 -105q-85 0 -136.5 54.5t-51.5 146.5v311h50v-301q0 -75 41 -119.5t108 -44.5q73 0 116.5 53t43.5 141v271z" />
    <glyph glyph-name="utilde.alt" horiz-adv-x="521" 
d="M153 598l-34 2q5 36 27 57.5t54 21.5q29 0 66 -22q38 -22 59 -22q40 0 51 47l33 -3q-10 -85 -82 -85q-31 0 -68 21q-37 22 -57 22q-40 0 -49 -39zM414 504h50v-504h-50v97q-40 -105 -171 -105q-85 0 -136.5 54.5t-51.5 146.5v311h50v-301q0 -75 41 -119.5t108 -44.5
q73 0 116.5 53t43.5 141v271z" />
    <glyph glyph-name="udieresis.alt" horiz-adv-x="521" 
d="M392 612q-10 -10 -25 -10t-26 10q-10 12 -10 26.5t11 24.5q14 17 34 9.5t25.5 -25.5t-9.5 -35zM186 612q-10 -10 -25 -10t-26 10q-10 12 -10 26.5t11 24.5q14 17 34 9.5t25.5 -25.5t-9.5 -35zM414 504h50v-504h-50v97q-40 -105 -171 -105q-85 0 -136.5 54.5t-51.5 146.5
v311h50v-301q0 -75 41 -119.5t108 -44.5q73 0 116.5 53t43.5 141v271z" />
    <glyph glyph-name="umacron.alt" horiz-adv-x="521" 
d="M414 504h50v-504h-50v97q-40 -105 -171 -105q-85 0 -136.5 54.5t-51.5 146.5v311h50v-301q0 -75 41 -119.5t108 -44.5q73 0 116.5 53t43.5 141v271zM409 607h-294v47h294v-47z" />
    <glyph glyph-name="ubreve.alt" horiz-adv-x="521" 
d="M128 697h47q21 -73 86 -73q67 0 86 73h47q-7 -53 -44 -85.5t-89 -32.5t-89 32.5t-44 85.5zM414 504h50v-504h-50v97q-40 -105 -171 -105q-85 0 -136.5 54.5t-51.5 146.5v311h50v-301q0 -75 41 -119.5t108 -44.5q73 0 116.5 53t43.5 141v271z" />
    <glyph glyph-name="uring.alt" horiz-adv-x="521" 
d="M181 618q0 33 24 57t58 24t58 -24t24 -57q0 -34 -24 -58t-58 -24t-58 24t-24 58zM263 573q18 0 31.5 13.5t13.5 31.5t-13.5 31t-31.5 13q-17 0 -30.5 -13t-13.5 -31t13.5 -31.5t30.5 -13.5zM414 504h50v-504h-50v97q-40 -105 -171 -105q-85 0 -136.5 54.5t-51.5 146.5
v311h50v-301q0 -75 41 -119.5t108 -44.5q73 0 116.5 53t43.5 141v271z" />
    <glyph glyph-name="uhungarumlaut.alt" horiz-adv-x="521" 
d="M414 504h50v-504h-50v97q-40 -105 -171 -105q-85 0 -136.5 54.5t-51.5 146.5v311h50v-301q0 -75 41 -119.5t108 -44.5q73 0 116.5 53t43.5 141v271zM352 552h-38l71 145h63zM198 552h-38l71 145h63z" />
    <glyph glyph-name="uogonek.alt" horiz-adv-x="530" 
d="M55 193v311h50v-301q0 -75 41 -120t108 -45q73 0 116.5 53.5t43.5 141.5v271h50v-502q-83 -48 -83 -103q0 -23 14.5 -36t38.5 -13q34 0 59 15l-9 -43q-25 -13 -58 -13q-37 0 -62.5 23t-25.5 58q0 33 21.5 63t54.5 46v98q-40 -105 -171 -105q-85 0 -136.5 54.5
t-51.5 146.5z" />
    <glyph glyph-name="wgrave.alt" horiz-adv-x="754" 
d="M270 0h-35l-216 504h52l181 -424l96 224l-87 200h52l64 -146l63 146h52l-87 -200l96 -224l181 424h53l-217 -504h-35l-106 250zM401 552h-40l-85 145h65z" />
    <glyph glyph-name="wacute.alt" horiz-adv-x="754" 
d="M270 0h-35l-216 504h52l181 -424l96 224l-87 200h52l64 -146l63 146h52l-87 -200l96 -224l181 424h53l-217 -504h-35l-106 250zM388 552h-40l60 145h65z" />
    <glyph glyph-name="wcircumflex.alt" horiz-adv-x="754" 
d="M288 576h-62l130 123h42l129 -123h-62l-88 85zM270 0h-35l-216 504h52l181 -424l96 224l-87 200h52l64 -146l63 146h52l-87 -200l96 -224l181 424h53l-217 -504h-35l-106 250z" />
    <glyph glyph-name="wdieresis.alt" horiz-adv-x="754" 
d="M510 612q-10 -10 -25 -10t-26 10q-10 12 -10 26.5t11 24.5q14 17 34 9.5t25.5 -25.5t-9.5 -35zM295 612q-10 -10 -25 -10t-26 10q-10 12 -10 26.5t11 24.5q14 17 34 9.5t25.5 -25.5t-9.5 -35zM270 0h-35l-216 504h52l181 -424l96 224l-87 200h52l64 -146l63 146h52
l-87 -200l96 -224l181 424h53l-217 -504h-35l-106 250z" />
    <glyph glyph-name="ygrave.alt" horiz-adv-x="490" 
d="M189 -78l30 75l-200 507h52l173 -442l176 442h53l-238 -593q-24 -61 -51 -86q-34 -32 -84 -32q-25 0 -46 8v46q18 -7 46 -7q32 0 54 22q18 18 35 60zM282 552h-40l-85 145h65z" />
    <glyph glyph-name="yacute.alt" horiz-adv-x="490" 
d="M189 -78l30 75l-200 507h52l173 -442l176 442h53l-238 -593q-24 -61 -51 -86q-34 -32 -84 -32q-25 0 -46 8v46q18 -7 46 -7q32 0 54 22q18 18 35 60zM250 552h-40l60 145h65z" />
    <glyph glyph-name="ycircumflex.alt" horiz-adv-x="490" 
d="M156 576h-62l130 123h42l129 -123h-62l-88 85zM189 -78l30 75l-200 507h52l173 -442l176 442h53l-238 -593q-24 -61 -51 -86q-34 -32 -84 -32q-25 0 -46 8v46q18 -7 46 -7q32 0 54 22q18 18 35 60z" />
    <glyph glyph-name="ydieresis.alt" horiz-adv-x="490" 
d="M189 -78l30 75l-200 507h52l173 -442l176 442h53l-238 -593q-24 -61 -51 -86q-34 -32 -84 -32q-25 0 -46 8v46q18 -7 46 -7q32 0 54 22q18 18 35 60zM349 602q-15 0 -25.5 10t-10.5 26q0 15 10.5 25.5t25.5 10.5q14 0 24.5 -10.5t10.5 -25.5t-10.5 -25.5t-24.5 -10.5z
M143 602q-15 0 -25.5 10t-10.5 26q0 15 10.5 25.5t25.5 10.5q14 0 24.5 -10.5t10.5 -25.5t-10.5 -25.5t-24.5 -10.5z" />
    <glyph glyph-name="fj.alt" horiz-adv-x="453" 
d="M159 0h-50v457h-78v47h78v47q0 90 45 129q37 29 107 29q31 0 47 -4v-46q-17 4 -52 4q-50 0 -73.5 -25.5t-23.5 -80.5v-53h234v-697h-50v650h-184v-457z" />
    <glyph glyph-name="fl.alt" horiz-adv-x="548" 
d="M159 0h-50v457h-78v47h78v47q0 90 45 129q34 29 95 29q27 0 39 -4v-46q-15 4 -44 4q-44 0 -64.5 -25.5t-20.5 -80.5v-53h112v-47h-112v-457zM344 127v570h49v-567q0 -50 18 -73t58 -23q27 0 42 4v-46q-25 -5 -42 -5q-125 0 -125 140z" />
    <glyph glyph-name="ffj.alt" horiz-adv-x="687" 
d="M159 0h-50v457h-78v47h78v47q0 158 140 158q27 0 39 -4v-46q-15 4 -44 4q-44 0 -64.5 -25.5t-20.5 -80.5v-53h184v47q0 90 45 129q37 29 107 29q31 0 47 -4v-46q-17 4 -52 4q-50 0 -73.5 -25.5t-23.5 -80.5v-53h234v-697h-50v650h-184v-457h-50v457h-184v-457z" />
    <glyph glyph-name="ffl.alt" horiz-adv-x="797" 
d="M159 0h-50v457h-78v47h78v47q0 158 140 158q27 0 39 -4v-46q-15 4 -44 4q-44 0 -64.5 -25.5t-20.5 -80.5v-53h184v47q0 158 140 158q27 0 39 -4v-46q-15 4 -44 4q-44 0 -64.5 -25.5t-20.5 -80.5v-53h112v-47h-112v-457h-50v457h-184v-457zM592 127v570h50v-567
q0 -50 18 -73t58 -23q26 0 41 4v-46q-22 -5 -41 -5q-126 0 -126 140z" />
    <glyph glyph-name="zero.onum" horiz-adv-x="528" 
d="M482 317q2 -22 2 -64q0 -45 -2 -65q-7 -84 -70 -142q-62 -57 -148 -57q-87 0 -148 57q-63 58 -70 142q-2 20 -2 65q0 42 2 64q9 86 71 142q64 56 147 56q84 0 146 -56q63 -55 72 -142zM430 192q2 20 2 61t-2 59q-6 68 -54 111q-47 44 -112 44q-64 0 -113 -44
q-47 -44 -53 -111q-2 -18 -2 -59q0 -51 1 -61q7 -68 54 -111q49 -44 113 -44q65 0 112 44q48 43 54 111z" />
    <glyph glyph-name="one.onum" horiz-adv-x="328" 
d="M236 0h-52v438l-125 -79l-28 42l157 103h48v-504z" />
    <glyph glyph-name="two.onum" horiz-adv-x="474" 
d="M446 0h-416v37l275 206q65 50 65 116q0 45 -36.5 75.5t-89.5 30.5q-59 0 -102 -41q-42 -40 -42 -97h-50q0 77 57 133q56 55 137 55q76 0 125 -45q51 -45 51 -111q0 -90 -82 -154l-212 -157h320v-48z" />
    <glyph glyph-name="three.onum" horiz-adv-x="501" 
d="M17 12l46 21q19 -48 65 -75.5t109 -27.5q76 0 123.5 41t47.5 107q0 65 -47 105.5t-124 40.5q-26 0 -79 -11l-19 34l218 209h-289v48h370v-35l-216 -205q12 4 36 4q86 0 143 -54q57 -52 57 -136q0 -86 -62 -142t-159 -56q-77 0 -136 35.5t-84 96.5z" />
    <glyph glyph-name="four.onum" horiz-adv-x="539" 
d="M418 0h-377v35l231 469h58l-226 -456h314v165h53v-406h-53v193z" />
    <glyph glyph-name="five.onum" horiz-adv-x="511" 
d="M32 11l46 21q21 -47 65 -74t102 -27q70 0 119 47q49 46 49 115q0 68 -48 115q-49 47 -116 47q-81 0 -136 -51l-37 9l52 291h301v-48h-257l-33 -184q49 33 111 33q94 0 156 -62q61 -61 61 -146q0 -96 -63 -156t-159 -60q-74 0 -129.5 34.5t-83.5 95.5z" />
    <glyph glyph-name="six.onum" horiz-adv-x="532" 
d="M44 210q0 32 14 71q12 32 31 64q14 25 50 75l195 277h62l-200 -284q26 19 78 19q89 0 151 -65q63 -65 63 -157t-65 -157q-64 -64 -156 -64q-91 0 -158 65q-65 65 -65 156zM96 210q0 -72 50 -122t121 -50q69 0 119 50t50 122q0 74 -49 123q-49 51 -120 51t-121 -51
q-50 -50 -50 -123z" />
    <glyph glyph-name="seven.onum" horiz-adv-x="488" 
d="M166 -193h-55l285 649h-363v48h424v-37z" />
    <glyph glyph-name="eight.onum" horiz-adv-x="534" 
d="M41 206q0 71 39 124.5t101 71.5q-39 17 -63 54.5t-24 82.5q0 71 50 121q52 50 123 50q72 0 122 -50q51 -50 51 -121q0 -45 -24 -82.5t-64 -54.5q62 -18 101.5 -71.5t39.5 -124.5q0 -90 -66 -155q-65 -64 -160 -64t-160 64q-66 65 -66 155zM267 418q49 0 86 35
q36 36 36 86q0 51 -36 86q-35 36 -86 36t-87 -36q-35 -35 -35 -86q0 -49 35 -86q37 -35 87 -35zM143 326q-50 -50 -50 -120q0 -71 50 -121q50 -49 124 -49t123 49q51 49 51 121q0 70 -51 120q-49 49 -123 49t-124 -49z" />
    <glyph glyph-name="nine.onum" horiz-adv-x="532" 
d="M200 0h-62l200 284q-25 -19 -79 -19q-88 0 -153 65q-63 64 -63 157q0 91 65 156q67 65 158 65q92 0 157 -65q66 -65 66 -156q0 -48 -23 -96q-21 -44 -71 -114zM437 487q0 73 -50 123t-121 50q-72 0 -122 -50q-49 -49 -49 -123t49 -124q50 -50 122 -50t121 51
q50 52 50 123z" />
    <glyph glyph-name="zero.tnum" horiz-adv-x="523" 
d="M477 509q3 -35 3 -160q0 -127 -3 -161q-7 -86 -70 -144q-61 -57 -145 -57q-85 0 -146 57q-62 57 -69 144q-3 34 -3 161q0 125 3 160q7 88 70 144q62 57 145 57q84 0 145 -57q63 -56 70 -144zM425 192q3 31 3 157q0 125 -3 156q-6 66 -53 112q-46 45 -110 45t-111 -45
q-46 -45 -52 -112q-3 -31 -3 -156t3 -157q6 -67 52 -112q47 -45 111 -45t110 45q47 46 53 112z" />
    <glyph glyph-name="one.tnum" horiz-adv-x="523" 
d="M375 0h-52v635l-220 -132l-26 43l249 151h49v-697z" />
    <glyph glyph-name="two.tnum" horiz-adv-x="523" 
d="M483 0h-442v35l321 357q53 58 53 122q0 59 -44 103q-43 43 -104 43t-105 -44q-43 -43 -43 -105h-52q0 81 59 140t142 59q85 0 142 -57t57 -140q0 -80 -68 -157q-261 -289 -280 -308h364v-48z" />
    <glyph glyph-name="three.tnum" horiz-adv-x="523" 
d="M28 132l45 21q19 -54 66.5 -85t110.5 -31q80 0 129 49q51 50 51 129q0 76 -52 124q-50 49 -134 49q-47 0 -92 -15l-20 35l239 241h-295v48h375v-35l-235 -235q18 5 47 5q92 0 154 -62t62 -155q0 -102 -65 -165q-64 -63 -164 -63q-78 0 -138 39.5t-84 105.5z" />
    <glyph glyph-name="four.tnum" horiz-adv-x="523" 
d="M413 166h-377v35l245 496h57l-239 -482h314v164h53v-379h-53v166z" />
    <glyph glyph-name="five.tnum" horiz-adv-x="523" 
d="M26 128l46 22q21 -52 67 -82.5t102 -30.5q75 0 126 52q52 52 52 130t-49 130q-50 53 -121 53q-74 0 -131 -45l-37 10l52 330h296v-48h-251l-34 -224q43 27 107 27q98 0 160 -68t62 -161q0 -104 -66 -170t-166 -66q-71 0 -129 38.5t-86 102.5z" />
    <glyph glyph-name="six.tnum" horiz-adv-x="524" 
d="M44 209q0 27 11 60q8 25 22 55q15 28 37 63l183 310h58l-176 -298q29 24 90 24q85 0 149 -62q63 -62 63 -152q0 -94 -64 -158q-63 -64 -154 -64t-155 64t-64 158zM96 207q0 -73 48 -123q48 -49 119 -49q69 0 117 50q49 49 49 122q0 70 -49 119q-48 49 -117 49
q-72 0 -120 -48q-47 -49 -47 -120z" />
    <glyph glyph-name="seven.tnum" horiz-adv-x="523" 
d="M184 0h-58l312 649h-404v48h467v-37z" />
    <glyph glyph-name="eight.tnum" horiz-adv-x="523" 
d="M41 206q0 71 38.5 124.5t99.5 71.5q-38 17 -61.5 54.5t-23.5 82.5q0 71 48 121q50 50 119 50q70 0 118 -50q49 -49 49 -121q0 -45 -23.5 -82.5t-62.5 -54.5q61 -18 100 -71.5t39 -124.5q0 -91 -64 -155t-156 -64t-156 64t-64 155zM377 539q0 52 -34 86q-33 36 -82 36
t-83 -36q-33 -35 -33 -86t34 -86q35 -35 82 -35t82 35q34 35 34 86zM142 326q-49 -49 -49 -120q0 -72 49 -121t119 -49t119 49t49 121q0 71 -49 120t-119 49t-119 -49z" />
    <glyph glyph-name="nine.tnum" horiz-adv-x="523" 
d="M228 0h-59l177 298q-30 -24 -90 -24q-85 0 -149 62q-63 62 -63 152q0 92 63 157q65 65 155 65t155 -65q64 -64 64 -157q0 -32 -13 -68q-16 -42 -26 -59q-4 -7 -9.5 -16.5t-15 -26t-16.5 -28.5zM262 321q73 0 119 49q48 50 48 120q0 74 -48 123t-119 49q-69 0 -119 -50
q-48 -50 -48 -122q0 -70 48 -120q49 -49 119 -49z" />
    <glyph glyph-name="four.alt" horiz-adv-x="549" 
d="M375 139h-351v37l365 521h38v-509h85v-49h-85v-139h-52v139zM375 593l-286 -405h286v405z" />
    <glyph glyph-name="four.onum.alt" horiz-adv-x="525" 
d="M350 0h-328v37l342 467h39v-456h80v-48h-80v-193h-53v193zM350 405l-262 -357h262v357z" />
    <glyph glyph-name="four.tnum.alt" horiz-adv-x="523" 
d="M355 139h-329v37l342 521h39v-509h70v-49h-70v-139h-52v139zM355 588l-266 -400h266v400z" />
    <glyph glyph-name="foursuperior.alt" horiz-adv-x="363" 
d="M228 398h-189v27l195 272h34v-260h44v-39h-44v-70h-40v70zM94 437h134v184l-70 -96z" />
    <glyph glyph-name="four.inferior.alt" horiz-adv-x="363" 
d="M228 70h-189v27l195 272h34v-260h44v-39h-44v-70h-40v70zM94 109h134v184l-70 -96q-11 -15 -21.5 -30t-17.5 -24t-12.5 -17t-8.5 -12t-4 -5z" />
    <glyph glyph-name="onequarter.alt" horiz-adv-x="653" 
d="M125 0h-53l410 697h52zM158 328h-40v331h-48v38h88v-369zM508 70h-188v27l195 272h34v-260h44v-39h-44v-70h-41v70zM508 293l-133 -184h133v184z" />
    <glyph glyph-name="threequarters.alt" horiz-adv-x="768" 
d="M236 0h-52l409 697h53zM174 320q-45 0 -80 23.5t-50 63.5l36 13q11 -28 36 -44t58 -16q43 0 70.5 24t27.5 62q0 36 -27 60.5t-68 24.5q-33 0 -55 -8l-15 22l118 114h-151v38h218v-23l-116 -109q20 0 36 -2q43 -8 71 -40.5t28 -76.5q0 -56 -38.5 -91t-98.5 -35zM624 70
h-188v27l194 272h35v-260h44v-39h-44v-70h-41v70zM624 293l-133 -184h133v184z" />
    <glyph glyph-name="published" horiz-adv-x="812" 
d="M406 708q149 0 254 -105q106 -105 106 -255t-105 -256q-105 -105 -255 -105q-148 0 -255 105q-105 106 -105 256t105 255t255 105zM406 21q134 0 229 95q95 97 95 232q0 137 -95 232t-229 95q-136 0 -231 -95q-94 -94 -94 -232t94 -232q95 -95 231 -95zM344 117h-50v438
h136q60 0 99 -41q40 -40 40 -97q0 -59 -40 -99q-39 -39 -99 -39h-86v-162zM344 507v-180h85q41 0 66 25.5t25 64.5t-25 64.5t-66 25.5h-85z" />
    <glyph glyph-name="colon.case" horiz-adv-x="172" 
d="M86 444q-15 0 -25.5 10.5t-10.5 25.5t11 25.5t25 10.5t25 -10.5t11 -25.5t-11 -25.5t-25 -10.5zM86 168q-15 0 -25.5 10.5t-10.5 25.5t11 25.5t25 10.5t25 -10.5t11 -25.5t-11 -25.5t-25 -10.5z" />
    <glyph glyph-name="semicolon.case" horiz-adv-x="211" 
d="M112 444q-15 0 -25.5 10.5t-10.5 25.5t11 25.5t25 10.5t25 -10.5t11 -25.5t-11 -25.5t-25 -10.5zM31 -38h-42l94 239h67z" />
    <glyph glyph-name="bullet.case" horiz-adv-x="224" 
d="M153 306q-17 -17 -41 -17t-42 17q-17 17 -17 42t17 42q18 18 42 18t41 -18q18 -17 18 -42t-18 -42z" />
    <glyph glyph-name="periodcentered.case" horiz-adv-x="167" 
d="M84 312q-15 0 -25.5 10t-10.5 25q0 16 10.5 26t25.5 10q14 0 24.5 -10.5t10.5 -25.5t-10.5 -25t-24.5 -10z" />
    <glyph glyph-name="guilsinglleft.case" horiz-adv-x="240" 
d="M202 158h-53l-110 175l110 175h53l-110 -175z" />
    <glyph glyph-name="guilsinglright.case" horiz-adv-x="240" 
d="M92 158h-53l110 175l-110 175h53l110 -175z" />
    <glyph glyph-name="guillemotleft.case" horiz-adv-x="370" 
d="M332 158h-53l-110 175l110 175h53l-110 -175zM202 158h-53l-110 175l110 175h53l-110 -175z" />
    <glyph glyph-name="guillemotright.case" horiz-adv-x="370" 
d="M222 158h-52l110 175l-110 175h52l110 -175zM92 158h-53l110 175l-110 175h53l110 -175z" />
    <glyph glyph-name="slash.case" horiz-adv-x="406" 
d="M72 -81h-47l314 859h47z" />
    <glyph glyph-name="backslash.case" horiz-adv-x="407" 
d="M386 -81h-47l-314 859h47z" />
    <glyph glyph-name="hyphen.case" horiz-adv-x="350" 
d="M306 325h-261v47h261v-47z" />
    <glyph glyph-name="endash.case" horiz-adv-x="463" 
d="M419 325h-374v47h374v-47z" />
    <glyph glyph-name="emdash.case" horiz-adv-x="727" 
d="M683 325h-638v47h638v-47z" />
    <glyph glyph-name="parenleft.case" horiz-adv-x="277" 
d="M300 -104l-26 -27q-223 196 -223 473t223 473l26 -27q-199 -187 -199 -446t199 -446z" />
    <glyph glyph-name="parenright.case" horiz-adv-x="277" 
d="M4 -132l-26 28q198 187 198 446t-198 445l26 28q223 -196 223 -473q0 -278 -223 -474z" />
    <glyph glyph-name="bracketleft.case" horiz-adv-x="286" 
d="M285 -96h-197v890h197v-48h-145v-794h145v-48z" />
    <glyph glyph-name="bracketright.case" horiz-adv-x="286" 
d="M2 -96v48h145v794h-145v48h197v-890h-197z" />
    <glyph glyph-name="braceleft.case" horiz-adv-x="303" 
d="M115 28v193q0 75 -40 99q-20 13 -43 13v34q23 0 43 13q40 24 40 99v193q0 55 29.5 89t80.5 34h34v-40h-29q-65 0 -65 -82v-176q0 -90 -31 -121q-18 -18 -43 -26q25 -8 43 -26q31 -31 31 -121v-176q0 -82 65 -82h29v-40h-34q-51 0 -80.5 34t-29.5 89z" />
    <glyph glyph-name="braceright.case" horiz-adv-x="303" 
d="M44 -95v40h29q65 0 65 82v176q0 90 31 121q18 18 43 26q-25 8 -43 26q-31 31 -31 121v176q0 82 -65 82h-29v40h34q51 0 80.5 -34t29.5 -89v-193q0 -77 40 -99q20 -13 43 -13v-34q-23 0 -43 -13q-40 -22 -40 -99v-193q0 -55 -29.5 -89t-80.5 -34h-34z" />
    <glyph glyph-name="exclamdown.case" horiz-adv-x="223" 
d="M112 708q14 0 25 -10.5t11 -25.5t-11 -25.5t-25 -10.5t-25 10.5t-11 25.5t10.5 25.5t25.5 10.5zM143 0h-63l11 542h42z" />
    <glyph glyph-name="questiondown.case" horiz-adv-x="391" 
d="M179 543q58 0 92.5 -31t34.5 -84q0 -69 -80 -128q-12 -9 -36 -26q-17 -12 -35 -26q-3 -2 -25 -22q-18 -17 -23 -29q-17 -36 -17 -69q0 -6 1 -13t7 -22t17 -26.5t34.5 -20.5t54.5 -9q72 0 137 62v-60q-59 -50 -137 -50q-96 0 -135 54q-30 46 -30 83q0 28 6 50q1 2 2.5 8.5
t2 8.5t2.5 7t2.5 6.5t2.5 6t3.5 7t4 6t5 6.5t6 7t7.5 8q22 22 27 26q8 7 39 30l40 30q66 49 66 95q0 67 -76 67q-39 0 -67 -18v52q30 14 67 14zM226 697q16 -14 9 -34t-25 -25.5t-35 8.5q-16 15 -8.5 35t25.5 25t34 -9z" />
    <glyph glyph-name="at.case" horiz-adv-x="805" 
d="M42 348q0 145 103 252q103 108 257 108q146 0 254 -99q108 -97 108 -244q0 -101 -36.5 -154t-102.5 -53q-78 0 -99 80q-41 -71 -126 -71q-73 0 -123 50t-50 125t50 125q51 51 123 51q79 0 119 -64v55h48v-224q0 -80 58 -80q89 0 89 160q0 123 -92 210q-91 88 -220 88
t-220 -93q-91 -91 -91 -222t91 -223q92 -92 220 -92q76 0 150 41l23 -43q-80 -43 -173 -43q-141 -4 -251.5 103t-108.5 257zM276 342q0 -53 35 -91q36 -36 89 -36q52 0 87 36t35 91q0 56 -35 92.5t-87 36.5q-53 0 -89 -37q-35 -38 -35 -92z" />
    <glyph glyph-name="Agrave.alt1" horiz-adv-x="668" 
d="M354 600h-45l-66 97h72zM311 583h46l286 -583h-57l-89 184h-326l-89 -184h-57zM334 518l-139 -286h278z" />
    <glyph glyph-name="Aacute.alt1" horiz-adv-x="667" 
d="M358 600h-45l39 97h72zM311 583h46l286 -583h-57l-89 184h-326l-89 -184h-57zM334 518l-139 -286h278z" />
    <glyph glyph-name="Acircumflex.alt1" horiz-adv-x="667" 
d="M311 583h46l286 -583h-57l-89 184h-326l-89 -184h-57zM334 518l-139 -286h278zM266 600h-61l115 97h29l114 -97h-60l-69 64z" />
    <glyph glyph-name="Atilde.alt1" horiz-adv-x="667" 
d="M222 622l-33 2q5 36 27 57.5t54 21.5q29 0 66 -22q39 -21 59 -21q41 0 51 46l33 -3q-10 -85 -82 -85q-29 0 -67 21q-37 22 -59 22q-40 0 -49 -39zM311 583h46l286 -583h-57l-89 184h-326l-89 -184h-57zM334 518l-139 -286h278z" />
    <glyph glyph-name="Adieresis.alt1" horiz-adv-x="685" 
d="M91 0h-56l287 697h41l287 -697h-56l-78 190h-348zM498 659q-10 -10 -25 -10t-25 10q-10 11 -10 26t10 25q14 17 34 9.5t25.5 -25.5t-9.5 -35zM212 649q-15 0 -25.5 10.5t-10.5 25.5t11 25.5t25 10.5t25 -10.5t11 -25.5t-11 -25.5t-25 -10.5zM342 617l-154 -379h308z" />
    <glyph glyph-name="Amacron.alt1" horiz-adv-x="667" 
d="M481 654h-294v43h294v-43zM311 583h46l286 -583h-57l-89 184h-326l-89 -184h-57zM334 518l-139 -286h278z" />
    <glyph glyph-name="Abreve.alt1" horiz-adv-x="667" 
d="M219 697h45q14 -47 70 -47q55 0 69 47h45q-7 -41 -38 -65t-76 -24t-76.5 24t-38.5 65zM311 583h46l286 -583h-57l-89 184h-326l-89 -184h-57zM334 518l-139 -286h278z" />
    <glyph glyph-name="Aring.alt1" horiz-adv-x="666" 
d="M378 562l263 -562h-57l-85 184h-332l-85 -184h-57l263 562q-37 22 -37 66q0 32 24.5 56.5t57.5 24.5t57.5 -24.5t24.5 -56.5q0 -44 -37 -66zM364 659q-17 20 -42.5 11.5t-32 -31t12.5 -43.5q17 -20 42 -11t32 31.5t-12 42.5zM333 542l-143 -309h286z" />
    <glyph glyph-name="Aringacute.alt1" horiz-adv-x="643" 
d="M81 0h-56l256 506q-34 22 -34 61q0 30 22 52t53 22q9 0 15 -2l23 58h72l-56 -80q21 -21 21 -50q0 -38 -35 -61l256 -506h-55l-94 184h-294zM360 567q0 15 -11.5 26t-26.5 11t-26 -11t-11 -26q-1 -23 18 -32.5t38 0t19 32.5zM322 477l-124 -244h247z" />
    <glyph glyph-name="Aogonek.alt1" horiz-adv-x="651" 
d="M90 0h-56l286 697h41l225 -544q-35 -15 -58.5 -40.5t-23.5 -49.5q0 -17 12.5 -26.5t33.5 -9.5q32 0 57 15l-8 -41q-22 -13 -57 -13q-34 0 -57.5 18.5t-23.5 47.5q0 52 70 95l-17 41h-347zM341 617l-154 -379h307z" />
    <glyph glyph-name="AEacute.alt1" horiz-adv-x="968" 
d="M600 600h-44l39 97h72zM82 0h-64l534 583h360v-48h-322v-202h303v-49h-303v-236h329v-48h-381v183h-285zM538 497l-242 -266h242v266z" />
    <glyph glyph-name="Cacute.alt1" horiz-adv-x="637" 
d="M376 600h-44l39 97h72zM51 284q0 124 90 210q92 86 219 86q65 0 127.5 -29.5t108.5 -85.5l-35 -31q-83 98 -201 98q-110 0 -183 -72q-74 -71 -74 -176t74 -177q74 -71 183 -71q123 0 202 102l35 -31q-42 -53 -106 -86t-131 -33q-130 0 -219 85q-90 85 -90 211z" />
    <glyph glyph-name="Ccircumflex.alt1" horiz-adv-x="637" 
d="M51 284q0 124 90 210q92 86 219 86q65 0 127.5 -29.5t108.5 -85.5l-35 -31q-83 98 -201 98q-110 0 -183 -72q-74 -71 -74 -176t74 -177q74 -71 183 -71q123 0 202 102l35 -31q-42 -53 -106 -86t-131 -33q-130 0 -219 85q-90 85 -90 211zM290 600h-61l114 97h30l114 -97
h-61l-68 64z" />
    <glyph glyph-name="Ccaron.alt1" horiz-adv-x="637" 
d="M51 284q0 124 90 210q92 86 219 86q65 0 127.5 -29.5t108.5 -85.5l-35 -31q-83 98 -201 98q-110 0 -183 -72q-74 -71 -74 -176t74 -177q74 -71 183 -71q123 0 202 102l35 -31q-42 -53 -106 -86t-131 -33q-130 0 -219 85q-90 85 -90 211zM375 600h-29l-114 97h60l69 -65
l68 65h61z" />
    <glyph glyph-name="Cdotaccent.alt1" horiz-adv-x="637" 
d="M360 629q-15 0 -25.5 10t-10.5 25t10.5 25.5t25.5 10.5q14 0 25 -10.5t11 -25.5t-10.5 -25t-25.5 -10zM51 284q0 124 90 210q92 86 219 86q65 0 127.5 -29.5t108.5 -85.5l-35 -31q-83 98 -201 98q-110 0 -183 -72q-74 -71 -74 -176t74 -177q74 -71 183 -71q123 0 202 102
l35 -31q-42 -53 -106 -86t-131 -33q-130 0 -219 85q-90 85 -90 211z" />
    <glyph glyph-name="Ccedilla.alt1" horiz-adv-x="656" 
d="M264 1l15 28q23 -16 49 -16q31 0 31 24q0 25 -50 25q-14 0 -18 -1l23 58q-114 15 -188 97q-75 82 -75 196q0 124 90 210q92 86 219 86q65 0 127.5 -29.5t108.5 -85.5l-35 -31q-83 98 -201 98q-110 0 -183 -72q-74 -71 -74 -176t74 -177q74 -71 183 -71q123 0 202 102
l35 -31q-42 -53 -106 -86t-131 -33h-10l-14 -31h7q24 0 39.5 -13.5t15.5 -35.5q0 -26 -18.5 -41.5t-50.5 -15.5q-37 0 -65 22z" />
    <glyph glyph-name="Dcaron.alt1" horiz-adv-x="684" 
d="M472 697l-129 -103l-129 103h59l70 -60l70 60h59zM311 0h-215v583h214q148 0 234 -81q86 -80 86 -211t-86 -211t-233 -80zM148 535v-487h159q128 0 199.5 65.5t71.5 177.5t-72 178t-200 66h-158z" />
    <glyph glyph-name="Egrave.alt1" horiz-adv-x="536" 
d="M324 600h-44l-67 97h72zM476 0h-380v583h373v-48h-321v-202h302v-49h-302v-236h328v-48z" />
    <glyph glyph-name="Eacute.alt1" horiz-adv-x="536" 
d="M298 600h-44l39 97h72zM476 0h-380v583h373v-48h-321v-202h302v-49h-302v-236h328v-48z" />
    <glyph glyph-name="Ecircumflex.alt1" horiz-adv-x="536" 
d="M476 0h-380v583h373v-48h-321v-202h302v-49h-302v-236h328v-48zM217 600h-61l114 97h30l114 -97h-61l-68 64z" />
    <glyph glyph-name="Ecaron.alt1" horiz-adv-x="536" 
d="M415 697l-129 -103l-129 103h59l70 -60l70 60h59zM476 0h-380v583h373v-48h-321v-202h302v-49h-302v-236h328v-48z" />
    <glyph glyph-name="Edieresis.alt1" horiz-adv-x="536" 
d="M381 629q-15 0 -25.5 10t-10.5 25q0 16 10.5 26t25.5 10q14 0 24.5 -10.5t10.5 -25.5t-10.5 -25t-24.5 -10zM185 629q-14 0 -24.5 10t-10.5 25q0 24 22 33.5t38 -8.5q18 -17 8.5 -38.5t-33.5 -21.5zM476 0h-380v583h373v-48h-321v-202h302v-49h-302v-236h328v-48z" />
    <glyph glyph-name="Emacron.alt1" horiz-adv-x="536" 
d="M430 654h-294v43h294v-43zM476 0h-380v583h373v-48h-321v-202h302v-49h-302v-236h328v-48z" />
    <glyph glyph-name="Ebreve.alt1" horiz-adv-x="536" 
d="M287 608q-45 0 -76 24t-38 65h45q14 -47 69 -47q56 0 70 47h44q-6 -41 -37.5 -65t-76.5 -24zM476 0h-380v583h373v-48h-321v-202h302v-49h-302v-236h328v-48z" />
    <glyph glyph-name="Edotaccent.alt1" horiz-adv-x="536" 
d="M288 629q-14 0 -24.5 10t-10.5 25q0 16 10.5 26t24.5 10q15 0 25.5 -10.5t10.5 -25.5t-10.5 -25t-25.5 -10zM476 0h-380v583h373v-48h-321v-202h302v-49h-302v-236h328v-48z" />
    <glyph glyph-name="Eogonek.alt1" horiz-adv-x="536" 
d="M438 114h-342v583h373v-48h-321v-202h302v-49h-302v-236h328v-48q-28 -12 -47 -30.5t-19 -37.5q0 -22 30 -22q26 0 46 14l-9 -37q-19 -13 -48 -13q-60 0 -60 48q0 26 19.5 48.5t49.5 29.5z" />
    <glyph glyph-name="Gcircumflex.alt1" horiz-adv-x="667" 
d="M50 283q0 126 89 212q89 85 219 85q124 0 213 -90l-34 -33q-73 75 -179 75q-109 0 -183 -71q-73 -70 -73 -178q0 -107 73 -177q74 -71 183 -71q115 0 192 77v147h-210v48h262v-214q-97 -106 -244 -106q-130 0 -219 85q-89 86 -89 211zM290 600h-61l114 97h30l114 -97h-61
l-68 64z" />
    <glyph glyph-name="Gbreve.alt1" horiz-adv-x="667" 
d="M240 697h45q14 -47 70 -47q55 0 69 47h45q-7 -41 -38 -65t-76 -24t-76.5 24t-38.5 65zM50 283q0 126 89 212q89 85 219 85q124 0 213 -90l-34 -33q-73 75 -179 75q-109 0 -183 -71q-73 -70 -73 -178q0 -107 73 -177q74 -71 183 -71q115 0 192 77v147h-210v48h262v-214
q-97 -106 -244 -106q-130 0 -219 85q-89 86 -89 211z" />
    <glyph glyph-name="Gdotaccent.alt1" horiz-adv-x="667" 
d="M355 629q-14 0 -24.5 10t-10.5 25q0 24 22 33.5t38 -8.5q18 -17 8.5 -38.5t-33.5 -21.5zM50 283q0 126 89 212q89 85 219 85q124 0 213 -90l-34 -33q-73 75 -179 75q-109 0 -183 -71q-73 -70 -73 -178q0 -107 73 -177q74 -71 183 -71q115 0 192 77v147h-210v48h262v-214
q-97 -106 -244 -106q-130 0 -219 85q-89 86 -89 211z" />
    <glyph glyph-name="Gcommaaccent.alt1" horiz-adv-x="667" 
d="M319 0h-45l39 97h72zM50 412q0 126 89 212q89 85 219 85q124 0 213 -90l-34 -33q-73 75 -179 75q-109 0 -183 -71q-73 -70 -73 -178q0 -107 73 -177q74 -71 183 -71q115 0 192 77v147h-210v48h262v-214q-97 -106 -244 -106q-130 0 -219 85q-89 86 -89 211z" />
    <glyph glyph-name="Hcircumflex.alt1" horiz-adv-x="709" 
d="M148 0h-52v697h52v-303h413v303h52v-697h-52v346h-413v-346zM286 600h-61l114 97h30l114 -97h-61l-68 64z" />
    <glyph glyph-name="Igrave.alt1" horiz-adv-x="252" 
d="M150 600h-45l-67 97h73zM152 0h-52v583h52v-583z" />
    <glyph glyph-name="Iacute.alt1" horiz-adv-x="252" 
d="M145 600h-44l39 97h72zM152 0h-52v583h52v-583z" />
    <glyph glyph-name="Icircumflex.alt1" horiz-adv-x="252" 
d="M152 0h-52v583h52v-583zM62 600h-58l106 97h31l106 -97h-58l-64 65z" />
    <glyph glyph-name="Itilde.alt1" horiz-adv-x="252" 
d="M19 622l-33 2q5 36 26 57.5t53 21.5q27 0 64 -22q37 -21 56 -21q39 0 49 46l33 -3q-10 -85 -80 -85q-29 0 -65 21q-35 22 -56 22q-38 0 -47 -39zM152 0h-52v583h52v-583z" />
    <glyph glyph-name="Idieresis.alt1" horiz-adv-x="252" 
d="M202 629q-14 0 -24.5 10t-10.5 25q0 16 10.5 26t24.5 10q15 0 25.5 -10.5t10.5 -25.5t-10.5 -25t-25.5 -10zM74 639q-10 -10 -25 -10t-26 10q-10 10 -10 25t10 25q15 17 35 10t25 -25.5t-9 -34.5zM152 0h-52v583h52v-583z" />
    <glyph glyph-name="Imacron.alt1" horiz-adv-x="252" 
d="M252 654h-253v43h253v-43zM152 0h-52v583h52v-583z" />
    <glyph glyph-name="Ibreve.alt1" horiz-adv-x="252" 
d="M126 608q-45 0 -76.5 24t-37.5 65h44q14 -47 70 -47t70 47h44q-7 -41 -38 -65t-76 -24zM152 0h-52v583h52v-583z" />
    <glyph glyph-name="Idotaccent.alt1" horiz-adv-x="252" 
d="M125 629q-14 0 -24.5 10t-10.5 25q0 24 22 33.5t38 -8.5q18 -17 8.5 -38.5t-33.5 -21.5zM152 0h-52v583h52v-583z" />
    <glyph glyph-name="Iogonek.alt1" horiz-adv-x="252" 
d="M49 35q0 20 14.5 40.5t36.5 32.5v1v588h52v-583q-61 -29 -61 -68q0 -22 30 -22q27 0 46 14l-10 -38q-19 -12 -47 -12q-61 0 -61 47z" />
    <glyph glyph-name="Jcircumflex.alt1" horiz-adv-x="320" 
d="M21 -3v52q27 -11 57 -11q55 0 76.5 34t21.5 110v401h52v-399q0 -89 -25 -138q-30 -58 -125 -58q-33 0 -57 9zM138 600h-58l106 97h31l106 -97h-58l-63 65z" />
    <glyph glyph-name="Kcommaaccent.alt1" horiz-adv-x="622" 
d="M298 0h-45l38 97h69zM148 0h-52v697h52v-399l366 399h65l-281 -308l292 -389h-63l-264 352l-115 -126v-226z" />
    <glyph glyph-name="Lacute.alt1" horiz-adv-x="490" 
d="M142 600h-45l39 97h72zM448 0h-352v583h52v-535h300v-48z" />
    <glyph glyph-name="Lcommaaccent.alt1" horiz-adv-x="490" 
d="M448 114h-352v583h52v-535h300v-48zM256 0h-44l37 97h69z" />
    <glyph glyph-name="Nacute.alt1" horiz-adv-x="732" 
d="M373 600h-44l39 97h72zM148 0h-52v697h45l444 -603v603h52v-697h-43l-446 607v-607z" />
    <glyph glyph-name="Ncaron.alt1" horiz-adv-x="732" 
d="M385 600h-29l-115 97h61l68 -65l69 65h60zM148 0h-52v697h45l444 -603v603h52v-697h-43l-446 607v-607z" />
    <glyph glyph-name="Ntilde.alt1" horiz-adv-x="732" 
d="M267 622l-34 2q5 36 26 57.5t53 21.5q28 0 65 -22q37 -21 57 -21q40 0 49 46l34 -3q-10 -85 -81 -85q-28 0 -66 21q-37 22 -56 22q-38 0 -47 -39zM148 0h-52v697h45l444 -603v603h52v-697h-43l-446 607v-607z" />
    <glyph glyph-name="Ncommaaccent.alt1" horiz-adv-x="732" 
d="M345 0h-45l38 97h69zM148 0h-52v697h45l444 -603v603h52v-697h-43l-446 607v-607z" />
    <glyph glyph-name="Ograve.alt1" horiz-adv-x="721" 
d="M393 600h-44l-67 97h72zM360 580q131 0 220 -85q90 -86 90 -211q0 -126 -90 -212q-90 -84 -220 -84t-219 85q-90 85 -90 211q0 125 90 211q89 85 219 85zM103 284q0 -106 74 -177t183 -71q110 0 184 71t74 177t-75 176q-73 72 -183 72q-108 0 -183 -72q-74 -71 -74 -176z
" />
    <glyph glyph-name="Oacute.alt1" horiz-adv-x="721" 
d="M379 600h-45l39 97h72zM360 580q131 0 220 -85q90 -86 90 -211q0 -126 -90 -212q-90 -84 -220 -84t-219 85q-90 85 -90 211q0 125 90 211q89 85 219 85zM103 284q0 -106 74 -177t183 -71q110 0 184 71t74 177t-75 176q-73 72 -183 72q-108 0 -183 -72q-74 -71 -74 -176z
" />
    <glyph glyph-name="Ocircumflex.alt1" horiz-adv-x="721" 
d="M360 580q131 0 220 -85q90 -86 90 -211q0 -126 -90 -212q-90 -84 -220 -84t-219 85q-90 85 -90 211q0 125 90 211q89 85 219 85zM103 284q0 -106 74 -177t183 -71q110 0 184 71t74 177t-75 176q-73 72 -183 72q-108 0 -183 -72q-74 -71 -74 -176zM294 600h-61l115 97h29
l114 -97h-60l-69 64z" />
    <glyph glyph-name="Otilde.alt1" horiz-adv-x="721" 
d="M247 622l-34 2q5 36 27 57.5t54 21.5q29 0 66 -22q39 -21 59 -21q41 0 51 46l33 -3q-10 -85 -82 -85q-29 0 -67 21q-37 22 -59 22q-39 0 -48 -39zM360 580q131 0 220 -85q90 -86 90 -211q0 -126 -90 -212q-90 -84 -220 -84t-219 85q-90 85 -90 211q0 125 90 211
q89 85 219 85zM103 284q0 -106 74 -177t183 -71q110 0 184 71t74 177t-75 176q-73 72 -183 72q-108 0 -183 -72q-74 -71 -74 -176z" />
    <glyph glyph-name="Odieresis.alt1" horiz-adv-x="822" 
d="M712 659q-10 -10 -25 -10t-25 10q-10 11 -10 26t10 25q14 17 34 9.5t25.5 -25.5t-9.5 -35zM160 659q-10 -10 -25 -10t-26 10q-10 12 -10 26.5t11 24.5q14 17 34 9.5t25.5 -25.5t-9.5 -35zM411 709q151 0 255 -104q105 -103 105 -257t-105 -257q-103 -103 -255 -103
q-153 0 -256 103q-104 104 -104 257t104 257t256 104zM411 37q132 0 219 89q88 88 88 222t-88 222q-88 90 -219 90t-220 -90q-89 -89 -89 -222q0 -134 88 -222q89 -89 221 -89z" />
    <glyph glyph-name="Omacron.alt1" horiz-adv-x="721" 
d="M509 654h-294v43h294v-43zM360 580q131 0 220 -85q90 -86 90 -211q0 -126 -90 -212q-90 -84 -220 -84t-219 85q-90 85 -90 211q0 125 90 211q89 85 219 85zM103 284q0 -106 74 -177t183 -71q110 0 184 71t74 177t-75 176q-73 72 -183 72q-108 0 -183 -72
q-74 -71 -74 -176z" />
    <glyph glyph-name="Obreve.alt1" horiz-adv-x="721" 
d="M360 608q-45 0 -76.5 24t-37.5 65h44q14 -47 70 -47t70 47h44q-6 -41 -37.5 -65t-76.5 -24zM360 580q131 0 220 -85q90 -86 90 -211q0 -126 -90 -212q-90 -84 -220 -84t-219 85q-90 85 -90 211q0 125 90 211q89 85 219 85zM103 284q0 -106 74 -177t183 -71q110 0 184 71
t74 177t-75 176q-73 72 -183 72q-108 0 -183 -72q-74 -71 -74 -176z" />
    <glyph glyph-name="Ohungarumlaut.alt1" horiz-adv-x="721" 
d="M441 600h-39l54 97h61zM297 600h-38l54 97h61zM360 580q131 0 220 -85q90 -86 90 -211q0 -126 -90 -212q-90 -84 -220 -84t-219 85q-90 85 -90 211q0 125 90 211q89 85 219 85zM103 284q0 -106 74 -177t183 -71q110 0 184 71t74 177t-75 176q-73 72 -183 72
q-108 0 -183 -72q-74 -71 -74 -176z" />
    <glyph glyph-name="Oslashacute.alt1" horiz-adv-x="721" 
d="M386 600h-45l39 97h72zM151 -34l-39 28l48 63q-109 85 -109 227q0 126 90 212q89 85 219 85q88 0 162 -44l52 69l38 -29l-50 -66q108 -89 108 -227q0 -126 -90 -212q-90 -84 -220 -84q-87 0 -161 42zM189 97l302 400q-59 35 -131 35q-108 0 -183 -72q-74 -71 -74 -176
q0 -116 86 -187zM532 470l-303 -400q56 -34 131 -34q110 0 184 71t74 177q0 115 -86 186z" />
    <glyph glyph-name="Racute.alt1" horiz-adv-x="575" 
d="M293 600h-45l39 97h72zM148 0h-52v583h225q77 0 132 -50q55 -49 55 -123q0 -59 -36 -104t-96 -62l163 -244h-58l-156 234q-5 -1 -37 -1h-140v-233zM148 535v-254h168q59 0 99 37q41 38 41 92q0 53 -40 89q-39 36 -97 36h-171z" />
    <glyph glyph-name="Rcaron.alt1" horiz-adv-x="575" 
d="M148 0h-52v583h225q77 0 132 -50q55 -49 55 -123q0 -59 -36 -104t-96 -62l163 -244h-58l-156 234q-5 -1 -37 -1h-140v-233zM148 535v-254h168q59 0 99 37q41 38 41 92q0 53 -40 89q-39 36 -97 36h-171zM296 600h-29l-114 97h60l69 -65l68 65h61z" />
    <glyph glyph-name="Rcommaaccent.alt1" horiz-adv-x="591" 
d="M281 0h-45l38 97h68zM148 0h-52v697h223q87 0 145 -58q59 -57 59 -143q0 -69 -37.5 -122t-99.5 -73l169 -301h-57l-164 293q-4 -1 -21 -1h-165v-292zM148 649v-309h166q68 0 112 44q45 45 45 112q0 65 -44 109t-110 44h-169z" />
    <glyph glyph-name="Sacute.alt1" horiz-adv-x="487" 
d="M264 600h-45l39 97h72zM43 123l44 19q19 -49 61.5 -77t100.5 -28q73 0 104 33q33 33 33 74q0 50 -33 79t-112 60q-86 35 -122 68t-36 89q0 60 45 100q44 40 112 40q110 0 155 -96l-44 -23q-33 71 -112 71q-46 0 -75 -24.5t-29 -65.5q0 -42 35 -67q28 -18 36 -22l53 -22
q46 -19 73 -33q25 -12 53 -34q53 -39 53 -119q0 -71 -51.5 -113.5t-139.5 -42.5q-73 0 -126.5 34.5t-77.5 99.5z" />
    <glyph glyph-name="Scircumflex.alt1" horiz-adv-x="489" 
d="M173 600h-61l115 97h29l114 -97h-60l-69 64zM43 123l44 19q19 -49 61.5 -77t100.5 -28q73 0 104 33q33 33 33 74q0 50 -33 79t-112 60q-86 35 -122 68t-36 89q0 60 45 100q44 40 112 40q110 0 155 -96l-44 -23q-33 71 -112 71q-46 0 -75 -24.5t-29 -65.5q0 -42 35 -67
q28 -18 36 -22l53 -22q46 -19 73 -33q25 -12 53 -34q53 -39 53 -119q0 -71 -51.5 -113.5t-139.5 -42.5q-73 0 -126.5 34.5t-77.5 99.5z" />
    <glyph glyph-name="Scaron.alt1" horiz-adv-x="489" 
d="M257 600h-29l-114 97h60l69 -65l68 65h61zM43 123l44 19q19 -49 61.5 -77t100.5 -28q73 0 104 33q33 33 33 74q0 50 -33 79t-112 60q-86 35 -122 68t-36 89q0 60 45 100q44 40 112 40q110 0 155 -96l-44 -23q-33 71 -112 71q-46 0 -75 -24.5t-29 -65.5q0 -42 35 -67
q28 -18 36 -22l53 -22q46 -19 73 -33q25 -12 53 -34q53 -39 53 -119q0 -71 -51.5 -113.5t-139.5 -42.5q-73 0 -126.5 34.5t-77.5 99.5z" />
    <glyph glyph-name="Scommaaccent.alt1" horiz-adv-x="489" 
d="M213 0h-45l39 97h72zM43 252l44 19q19 -49 61.5 -77t100.5 -28q73 0 104 33q33 33 33 74q0 51 -33 79q-33 29 -112 60q-86 35 -122 68t-36 89q0 59 45 100q44 40 112 40q110 0 155 -96l-44 -23q-33 71 -112 71q-46 0 -75 -24.5t-29 -65.5q0 -42 35 -67q28 -18 36 -22
l53 -22q46 -19 73 -33q25 -12 53 -34q53 -39 53 -119q0 -71 -51.5 -113.5t-139.5 -42.5q-73 0 -126.5 34.5t-77.5 99.5z" />
    <glyph glyph-name="Scedilla.alt1" horiz-adv-x="489" 
d="M43 252l44 19q19 -49 61.5 -77t100.5 -28q73 0 104 33q33 33 33 74q0 51 -33 80t-112 60q-87 35 -122.5 67.5t-35.5 88.5q0 59 45 100q44 40 112 40q110 0 155 -96l-44 -23q-33 71 -112 71q-46 0 -75 -24.5t-29 -65.5q0 -42 35 -67q28 -18 36 -22l53 -22q46 -19 73 -33
q25 -12 53 -34q53 -39 53 -119q0 -69 -49 -111.5t-132 -44.5l-15 -33h7q24 0 39.5 -13.5t15.5 -35.5q0 -26 -18.5 -41.5t-50.5 -15.5q-37 0 -65 22l15 28q23 -16 49 -16q31 0 31 24q0 25 -50 25q-15 0 -18 -1l23 58q-63 6 -109.5 40t-67.5 93z" />
    <glyph glyph-name="Tcaron.alt1" horiz-adv-x="525" 
d="M288 0h-52v535h-202v48h457v-48h-203v-535zM276 600h-29l-114 97h60l69 -65l68 65h61z" />
    <glyph glyph-name="Tcommaaccent.alt1" horiz-adv-x="525" 
d="M288 114h-52v535h-202v48h457v-48h-203v-535zM234 0h-45l42 97h65z" />
    <glyph glyph-name="Ugrave.alt1" horiz-adv-x="678" 
d="M387 600h-45l-66 97h72zM91 233v464h52v-459q0 -95 52 -147.5t144 -52.5t144 52.5t52 147.5v459h52v-464q0 -115 -68 -180q-67 -63 -180 -63t-180 63q-68 65 -68 180z" />
    <glyph glyph-name="Uacute.alt1" horiz-adv-x="678" 
d="M333 600h-45l39 97h72zM91 233v464h52v-459q0 -95 52 -147.5t144 -52.5t144 52.5t52 147.5v459h52v-464q0 -115 -68 -180q-67 -63 -180 -63t-180 63q-68 65 -68 180z" />
    <glyph glyph-name="Ucircumflex.alt1" horiz-adv-x="678" 
d="M91 233v464h52v-459q0 -95 52 -147.5t144 -52.5t144 52.5t52 147.5v459h52v-464q0 -115 -68 -180q-67 -63 -180 -63t-180 63q-68 65 -68 180zM270 600h-61l115 97h29l114 -97h-60l-69 64z" />
    <glyph glyph-name="Utilde.alt1" horiz-adv-x="678" 
d="M227 622l-34 2q5 36 27 57.5t54 21.5q29 0 66 -22q39 -21 59 -21q41 0 51 46l33 -3q-10 -85 -82 -85q-31 0 -68 21q-37 22 -57 22q-40 0 -49 -39zM91 233v464h52v-459q0 -95 52 -147.5t144 -52.5t144 52.5t52 147.5v459h52v-464q0 -115 -68 -180q-67 -63 -180 -63
t-180 63q-68 65 -68 180z" />
    <glyph glyph-name="Udieresis.alt1" horiz-adv-x="678" 
d="M450 667q-10 -10 -25 -10t-26 10q-10 12 -10 26.5t11 24.5q14 17 34 9.5t25.5 -25.5t-9.5 -35zM253 657q-15 0 -25.5 10.5t-10.5 25.5t11 25.5t25 10.5t25 -10.5t11 -25.5t-11 -25.5t-25 -10.5zM91 233v464h52v-459q0 -95 52 -147.5t144 -52.5t144 52.5t52 147.5v459h52
v-464q0 -115 -68 -180q-67 -63 -180 -63t-180 63q-68 65 -68 180z" />
    <glyph glyph-name="Umacron.alt1" horiz-adv-x="678" 
d="M480 654h-282v43h282v-43zM91 233v464h52v-459q0 -95 52 -147.5t144 -52.5t144 52.5t52 147.5v459h52v-464q0 -115 -68 -180q-67 -63 -180 -63t-180 63q-68 65 -68 180z" />
    <glyph glyph-name="Ubreve.alt1" horiz-adv-x="678" 
d="M340 608q-45 0 -76.5 24t-37.5 65h44q14 -47 70 -47t70 47h44q-6 -41 -37.5 -65t-76.5 -24zM91 233v464h52v-459q0 -95 52 -147.5t144 -52.5t144 52.5t52 147.5v459h52v-464q0 -115 -68 -180q-67 -63 -180 -63t-180 63q-68 65 -68 180z" />
    <glyph glyph-name="Uring.alt1" horiz-adv-x="678" 
d="M257 640q0 33 24 57t58 24t58 -24t24 -57q0 -34 -24 -58t-58 -24t-58 24t-24 58zM339 595q18 0 31.5 13.5t13.5 31.5t-13.5 31t-31.5 13q-17 0 -30.5 -13t-13.5 -31t13.5 -31.5t30.5 -13.5zM91 233v464h52v-459q0 -95 52 -147.5t144 -52.5t144 52.5t52 147.5v459h52v-464
q0 -115 -68 -180q-67 -63 -180 -63t-180 63q-68 65 -68 180z" />
    <glyph glyph-name="Uhungarumlaut.alt1" horiz-adv-x="678" 
d="M397 600h-39l54 97h61zM253 600h-38l53 97h62zM91 233v464h52v-459q0 -95 52 -147.5t144 -52.5t144 52.5t52 147.5v459h52v-464q0 -115 -68 -180q-67 -63 -180 -63t-180 63q-68 65 -68 180z" />
    <glyph glyph-name="Uogonek.alt1" horiz-adv-x="678" 
d="M536 364v333h52v-333q0 -69 -26.5 -123t-72.5 -84q-7 -5 -31 -18q-29 -15 -39 -22q-39 -28 -39 -57q0 -30 41 -30q29 0 51 15l-10 -40q-23 -14 -50 -14q-33 0 -53.5 15t-20.5 41q0 47 46 71q-24 -3 -48 -3q-110 0 -178 63q-67 64 -67 180v339h52v-333q0 -95 52.5 -148
t143.5 -53q93 0 145 52.5t52 148.5z" />
    <glyph glyph-name="Wgrave.alt1" horiz-adv-x="922" 
d="M501 600h-45l-66 97h72zM275 0h-35l-209 697h53l179 -593l179 479h38l179 -479l178 593h54l-209 -697h-35l-186 492z" />
    <glyph glyph-name="Wacute.alt1" horiz-adv-x="922" 
d="M469 600h-44l39 97h72zM275 0h-35l-209 697h53l179 -593l179 479h38l179 -479l178 593h54l-209 -697h-35l-186 492z" />
    <glyph glyph-name="Wcircumflex.alt1" horiz-adv-x="922" 
d="M275 0h-35l-209 697h53l179 -593l179 479h38l179 -479l178 593h54l-209 -697h-35l-186 492zM393 600h-61l115 97h29l114 -97h-60l-69 64z" />
    <glyph glyph-name="Wdieresis.alt1" horiz-adv-x="922" 
d="M584 639q-10 -10 -25 -10t-26 10q-10 10 -10 25t10 25q15 17 35 10t25 -25.5t-9 -34.5zM389 639q-10 -10 -25 -10t-26 10q-10 10 -10 25t10 25q15 17 35 10t25 -25.5t-9 -34.5zM275 0h-35l-209 697h53l179 -593l179 479h38l179 -479l178 593h54l-209 -697h-35l-186 492z
" />
    <glyph glyph-name="Ygrave.alt1" horiz-adv-x="602" 
d="M328 0h-52v294l-246 403h58l214 -351l214 351h56l-244 -403v-294zM347 600h-44l-67 97h72z" />
    <glyph glyph-name="Yacute.alt1" horiz-adv-x="602" 
d="M328 0h-52v294l-246 403h58l214 -351l214 351h56l-244 -403v-294zM304 600h-44l39 97h72z" />
    <glyph glyph-name="Ycircumflex.alt1" horiz-adv-x="602" 
d="M328 0h-52v294l-246 403h58l214 -351l214 351h56l-244 -403v-294zM234 600h-61l115 97h29l114 -97h-60l-69 64z" />
    <glyph glyph-name="Ydieresis.alt1" horiz-adv-x="602" 
d="M328 0h-52v294l-246 403h58l214 -351l214 351h56l-244 -403v-294zM379 629q-14 0 -24.5 10t-10.5 25q0 24 22 33.5t38 -8.5q18 -17 8.5 -38.5t-33.5 -21.5zM225 629q-15 0 -25.5 10t-10.5 25t10.5 25.5t25.5 10.5q14 0 25 -10.5t11 -25.5t-10.5 -25t-25.5 -10z" />
    <glyph glyph-name="Zacute.alt1" horiz-adv-x="620" 
d="M344 600h-45l39 97h72zM574 0h-531v33l450 502h-399v48h477v-35l-447 -500h450v-48z" />
    <glyph glyph-name="Zcaron.alt1" horiz-adv-x="620" 
d="M574 0h-531v33l450 502h-399v48h477v-35l-447 -500h450v-48zM352 600h-29l-114 97h60l69 -65l68 65h61z" />
    <glyph glyph-name="Zdotaccent.alt1" horiz-adv-x="620" 
d="M339 629q-15 0 -25.5 10t-10.5 25t10.5 25.5t25.5 10.5q14 0 25 -10.5t11 -25.5t-10.5 -25t-25.5 -10zM574 0h-531v33l450 502h-399v48h477v-35l-447 -500h450v-48z" />
    <glyph glyph-name="Eng.alt1" horiz-adv-x="732" 
d="M148 0h-52v697h45l424 -609q20 37 20 112v497h52v-496q0 -96 -30 -150q-35 -63 -150 -63q-34 0 -78 11v51q27 -12 78 -12q52 0 74 13l-383 552v-603z" />
    <glyph glyph-name="Cacute.alt2" horiz-adv-x="626" 
d="M376 600h-44l39 97h72zM360 580q120 0 202 -75v-61q-85 88 -202 88q-110 0 -183 -72q-74 -71 -74 -176t74 -177q74 -71 183 -71q117 0 202 88v-62q-85 -74 -202 -74q-130 0 -219 85q-90 85 -90 211q0 125 90 211q89 85 219 85z" />
    <glyph glyph-name="Ccircumflex.alt2" horiz-adv-x="626" 
d="M360 580q120 0 202 -75v-61q-85 88 -202 88q-110 0 -183 -72q-74 -71 -74 -176t74 -177q74 -71 183 -71q117 0 202 88v-62q-85 -74 -202 -74q-130 0 -219 85q-90 85 -90 211q0 125 90 211q89 85 219 85zM292 600h-61l115 97h29l114 -97h-60l-69 64z" />
    <glyph glyph-name="Ccaron.alt2" horiz-adv-x="626" 
d="M360 580q120 0 202 -75v-61q-85 88 -202 88q-110 0 -183 -72q-74 -71 -74 -176t74 -177q74 -71 183 -71q117 0 202 88v-62q-85 -74 -202 -74q-130 0 -219 85q-90 85 -90 211q0 125 90 211q89 85 219 85zM376 600h-29l-115 97h61l68 -65l69 65h60z" />
    <glyph glyph-name="Cdotaccent.alt2" horiz-adv-x="626" 
d="M380 639q-10 -10 -25 -10t-26 10q-10 10 -10 25t10 25q15 17 35 10t25 -25.5t-9 -34.5zM360 580q120 0 202 -75v-61q-85 88 -202 88q-110 0 -183 -72q-74 -71 -74 -176t74 -177q74 -71 183 -71q117 0 202 88v-62q-85 -74 -202 -74q-130 0 -219 85q-90 85 -90 211
q0 125 90 211q89 85 219 85z" />
    <glyph glyph-name="Ccedilla.alt2" horiz-adv-x="626" 
d="M51 412q0 126 90 211q89 85 219 85q120 0 202 -75v-61q-85 88 -202 88q-110 0 -183 -72q-74 -71 -74 -176t74 -177q74 -71 183 -71q117 0 202 88v-62q-85 -74 -202 -74h-6l-14 -31h7q24 0 39.5 -13.5t15.5 -35.5q0 -26 -18.5 -41.5t-50.5 -15.5q-37 0 -65 22l15 28
q23 -16 49 -16q31 0 31 24q0 25 -50 25q-15 0 -18 -1l23 57q-114 13 -191 96q-76 82 -76 198z" />
    <glyph glyph-name="Gcircumflex.alt2" horiz-adv-x="667" 
d="M359 580q106 0 187 -60v-58q-85 70 -187 70q-109 0 -183 -71q-73 -70 -73 -177t73 -177q74 -71 183 -71q112 0 192 77v146h-210v49h262v-214q-97 -106 -244 -106q-129 0 -219 84q-89 86 -89 212q0 127 89 211q89 85 219 85zM288 600h-60l114 97h29l115 -97h-61l-68 64z
" />
    <glyph glyph-name="Gbreve.alt2" horiz-adv-x="667" 
d="M243 697h44q14 -47 70 -47t70 47h44q-6 -41 -37.5 -65t-76.5 -24t-76.5 24t-37.5 65zM359 580q106 0 187 -60v-58q-85 70 -187 70q-109 0 -183 -71q-73 -70 -73 -177t73 -177q74 -71 183 -71q112 0 192 77v146h-210v49h262v-214q-97 -106 -244 -106q-129 0 -219 84
q-89 86 -89 212q0 127 89 211q89 85 219 85z" />
    <glyph glyph-name="Gdotaccent.alt2" horiz-adv-x="667" 
d="M382 639q-10 -10 -25 -10t-26 10q-10 10 -10 25t10 25q15 17 35 10t25 -25.5t-9 -34.5zM359 580q106 0 187 -60v-58q-85 70 -187 70q-109 0 -183 -71q-73 -70 -73 -177t73 -177q74 -71 183 -71q112 0 192 77v146h-210v49h262v-214q-97 -106 -244 -106q-129 0 -219 84
q-89 86 -89 212q0 127 89 211q89 85 219 85z" />
    <glyph glyph-name="Gcommaaccent.alt2" horiz-adv-x="667" 
d="M359 116q-130 0 -219 85q-89 86 -89 212q0 127 89 211q89 85 219 85q108 0 187 -61v-58q-85 70 -187 70q-109 0 -183 -71q-73 -70 -73 -176q0 -107 73 -177q74 -71 183 -71q112 0 192 76v147h-210v48h262v-214q-97 -106 -244 -106zM321 0h-45l39 97h72z" />
    <glyph glyph-name="Kcommaaccent.alt2" horiz-adv-x="581" 
d="M273 0h-45l38 97h69zM148 0h-52v697h52v-325l331 325h67l-343 -337l353 -360h-69l-339 345v-345z" />
    <glyph glyph-name="Sacute.alt2" horiz-adv-x="489" 
d="M263 600h-44l39 97h72zM50 62v66q28 -40 79 -65.5t105 -25.5q70 0 110.5 29t40.5 75q0 54 -39 83q-23 19 -44 29q-8 4 -71 37q-82 42 -114 71q-34 31 -34 81q0 64 45 101t125 37q72 0 121 -43v-57q-58 52 -128 52q-52 0 -81.5 -24t-29.5 -66q0 -30 27 -53.5t92 -53.5
q99 -47 141 -87t42 -107q0 -65 -54 -109q-53 -43 -145 -43q-124 0 -188 73z" />
    <glyph glyph-name="Scircumflex.alt2" horiz-adv-x="489" 
d="M50 62v66q28 -40 79 -65.5t105 -25.5q70 0 110.5 29t40.5 75q0 54 -39 83q-23 19 -44 29q-8 4 -71 37q-82 42 -114 71q-34 31 -34 81q0 64 45 101t125 37q72 0 121 -43v-57q-58 52 -128 52q-52 0 -81.5 -24t-29.5 -66q0 -30 27 -53.5t92 -53.5q99 -47 141 -87t42 -107
q0 -65 -54 -109q-53 -43 -145 -43q-124 0 -188 73zM176 600h-60l114 97h29l115 -97h-61l-68 64z" />
    <glyph glyph-name="Scaron.alt2" horiz-adv-x="489" 
d="M50 62v66q28 -40 79 -65.5t105 -25.5q70 0 110.5 29t40.5 75q0 54 -39 83q-23 19 -44 29q-8 4 -71 37q-82 42 -114 71q-34 31 -34 81q0 64 45 101t125 37q72 0 121 -43v-57q-58 52 -128 52q-52 0 -81.5 -24t-29.5 -66q0 -30 27 -53.5t92 -53.5q99 -47 141 -87t42 -107
q0 -65 -54 -109q-53 -43 -145 -43q-124 0 -188 73zM259 600h-29l-114 97h60l69 -65l68 65h61z" />
    <glyph glyph-name="Scommaaccent.alt2" horiz-adv-x="489" 
d="M50 191v66q28 -40 79 -65.5t105 -25.5q70 0 110.5 29t40.5 74q0 54 -39 83q-22 19 -44 30q-8 4 -71 37q-82 42 -114 71q-34 31 -34 81q0 64 45 101t125 37q72 0 121 -43v-58q-55 52 -128 52q-52 0 -81.5 -24t-29.5 -65q0 -30 27 -53.5t92 -53.5q99 -46 141 -87t42 -108
q0 -65 -54 -108q-53 -43 -145 -43q-124 0 -188 73zM207 0h-44l39 97h72z" />
    <glyph glyph-name="Scedilla.alt2" horiz-adv-x="489" 
d="M171 1l15 28q23 -16 49 -16q31 0 31 24q0 25 -50 25q-15 0 -18 -1l23 57q-112 4 -171 73v66q28 -40 79 -65.5t105 -25.5q70 0 110.5 29t40.5 74q0 54 -39 83q-22 19 -44 30q-8 4 -71 37q-82 42 -114 71q-34 31 -34 81q0 64 45 101t125 37q72 0 121 -43v-58
q-55 52 -128 52q-52 0 -81.5 -24t-29.5 -65q0 -30 27 -53.5t92 -53.5q99 -46 141 -87t42 -108q0 -61 -49 -103.5t-130 -47.5l-15 -33h7q24 0 39.5 -13.5t15.5 -35.5q0 -26 -18.5 -41.5t-50.5 -15.5q-39 0 -65 22z" />
    <glyph glyph-name="Wgrave.alt2" horiz-adv-x="890" 
d="M477 600h-44l-67 97h72zM314 0h-34l-254 583h55l216 -492l117 269l-98 223h56l73 -166l73 166h56l-99 -223l118 -269l216 492h55l-254 -583h-34l-131 301z" />
    <glyph glyph-name="Wacute.alt2" horiz-adv-x="890" 
d="M456 600h-45l39 97h72zM314 0h-34l-254 583h55l216 -492l117 269l-98 223h56l73 -166l73 166h56l-99 -223l118 -269l216 492h55l-254 -583h-34l-131 301z" />
    <glyph glyph-name="Wcircumflex.alt2" horiz-adv-x="890" 
d="M314 0h-34l-254 583h55l216 -492l117 269l-98 223h56l73 -166l73 166h56l-99 -223l118 -269l216 492h55l-254 -583h-34l-131 301zM376 600h-60l114 97h29l115 -97h-61l-68 64z" />
    <glyph glyph-name="Wdieresis.alt2" horiz-adv-x="890" 
d="M543 629q-15 0 -25.5 10t-10.5 25q0 16 10.5 26t25.5 10q14 0 24.5 -10.5t10.5 -25.5t-10.5 -25t-24.5 -10zM348 629q-15 0 -25.5 10t-10.5 25q0 16 10.5 26t25.5 10q14 0 24.5 -10.5t10.5 -25.5t-10.5 -25t-24.5 -10zM314 0h-34l-254 583h55l216 -492l117 269l-98 223
h56l73 -166l73 166h56l-99 -223l118 -269l216 492h55l-254 -583h-34l-131 301z" />
    <glyph glyph-name="A.smcp" 
d="M86 0h-54l242 558h37l243 -558h-55l-62 145h-288zM293 478l-123 -286h246z" />
    <glyph glyph-name="B.smcp" horiz-adv-x="490" 
d="M278 0h-195v558h177q64 0 105 -40t41 -101q0 -83 -76 -114q54 -8 86 -47t32 -94q0 -70 -49 -116q-47 -46 -121 -46zM135 511v-190h119q43 0 72 27t29 67q0 42 -28.5 69t-72.5 27h-119zM135 274v-227h140q53 0 87.5 33t34.5 82q0 48 -35 80t-89 32h-138z" />
    <glyph glyph-name="C.smcp" horiz-adv-x="578" 
d="M332 568q64 0 120 -25t93 -69l-34 -31q-67 78 -179 78q-102 0 -169 -70q-68 -70 -68 -173q0 -102 68 -172q67 -69 169 -69q111 0 180 80l35 -32q-37 -44 -94 -69.5t-121 -25.5q-123 0 -206 82q-83 83 -83 206q0 124 83 207q85 83 206 83z" />
    <glyph glyph-name="D.smcp" horiz-adv-x="620" 
d="M268 0h-185v559h184q141 0 224 -78q83 -77 83 -203t-82 -202t-224 -76zM135 512v-465h129q122 0 190 62.5t68 168.5q0 109 -67.5 171.5t-191.5 62.5h-128z" />
    <glyph glyph-name="E.smcp" horiz-adv-x="452" 
d="M401 0h-318v558h312v-47h-260v-193h244v-47h-244v-224h266v-47z" />
    <glyph glyph-name="F.smcp" horiz-adv-x="415" 
d="M135 0h-52v558h286v-47h-234v-195h213v-47h-213v-269z" />
    <glyph glyph-name="G.smcp" horiz-adv-x="600" 
d="M331 568q114 0 185 -67l-30 -35q-64 55 -155 55q-102 0 -169 -70q-68 -70 -68 -172q0 -106 67 -174q68 -69 170 -69q96 0 161 59v159h-176v47h228v-223q-84 -89 -213 -89q-121 0 -206 83q-83 83 -83 207q0 123 83 206q85 83 206 83z" />
    <glyph glyph-name="H.smcp" horiz-adv-x="613" 
d="M135 0h-52v558h52v-238h344v238h51v-558h-51v273h-344v-273z" />
    <glyph glyph-name="I.smcp" horiz-adv-x="224" 
d="M138 0h-52v558h52v-558z" />
    <glyph glyph-name="J.smcp" horiz-adv-x="294" 
d="M28 -3v49q21 -8 48 -8q47 0 65 26.5t18 83.5v410h52v-408q0 -69 -22 -112q-25 -48 -113 -48q-31 0 -48 7z" />
    <glyph glyph-name="K.smcp" horiz-adv-x="538" 
d="M135 0h-52v558h52v-309l301 309h65l-236 -246l246 -312h-64l-218 277l-94 -96v-181z" />
    <glyph glyph-name="L.smcp" horiz-adv-x="423" 
d="M386 0h-303v558h52v-511h251v-47z" />
    <glyph glyph-name="M.smcp" horiz-adv-x="727" 
d="M134 0h-51v558h49l231 -386l231 386h50v-558h-52v461l-229 -381l-229 381v-461z" />
    <glyph glyph-name="N.smcp" horiz-adv-x="633" 
d="M135 0h-52v558h46l369 -469v469h52v-558h-43l-372 472v-472z" />
    <glyph glyph-name="O.smcp" horiz-adv-x="663" 
d="M42 278q0 124 84 207q85 83 205 83q121 0 206 -83q84 -83 84 -207q0 -125 -85 -207q-83 -82 -205 -82t-205 82q-84 83 -84 207zM94 278q0 -103 68 -173q68 -69 169 -69q103 0 170 69q68 70 68 173q0 104 -68 174q-67 69 -170 69t-170 -69q-67 -68 -67 -174z" />
    <glyph glyph-name="P.smcp" horiz-adv-x="482" 
d="M135 0h-52v558h178q78 0 128 -49q51 -48 51 -119q0 -72 -51 -120q-52 -47 -128 -47h-126v-223zM135 511v-241h124q57 0 93 34t36 86t-36 86.5t-93 34.5h-124z" />
    <glyph glyph-name="Q.smcp" horiz-adv-x="663" 
d="M42 278q0 124 84 206q85 83 205 83q123 0 206 -82q84 -83 84 -207q0 -125 -86 -206l61 -74l-37 -30l-60 74q-73 -52 -168 -52q-122 0 -205 82q-84 83 -84 206zM94 278q0 -101 68 -172q69 -69 169 -69q74 0 137 42l-97 120l36 30l97 -119q65 68 65 168q0 105 -68 173
t-170 68q-101 0 -169 -69q-68 -68 -68 -172z" />
    <glyph glyph-name="R.smcp" horiz-adv-x="512" 
d="M135 0h-52v558h194q73 0 125 -47q51 -47 51 -116q0 -54 -31.5 -96.5t-85.5 -60.5l145 -238h-60l-137 229q-5 -1 -21 -1h-128v-228zM135 511v-236h137q56 0 92.5 34t36.5 86q0 50 -36 83t-90 33h-140z" />
    <glyph glyph-name="S.smcp" horiz-adv-x="468" 
d="M39 124l44 21q46 -108 163 -108q72 0 100 33q29 35 29 73q0 48 -32 74q-31 26 -109 58q-75 30 -116 64q-36 33 -36 95q0 59 43 96q44 39 110 39q107 0 153 -87l-44 -22q-32 62 -109 62q-45 0 -73 -24t-28 -63q0 -46 36 -71q26 -18 90 -45q91 -37 129 -74q38 -35 38 -101
q0 -69 -49 -111.5t-133 -42.5q-72 0 -126 34.5t-80 99.5z" />
    <glyph glyph-name="T.smcp" horiz-adv-x="450" 
d="M251 0h-52v511h-169v47h391v-47h-170v-511z" />
    <glyph glyph-name="U.smcp" horiz-adv-x="587" 
d="M457 196v362h52v-367q0 -95 -58.5 -147.5t-156.5 -52.5t-156.5 52.5t-58.5 147.5v367h52v-362q0 -75 43.5 -116.5t119.5 -41.5t119.5 41.5t43.5 116.5z" />
    <glyph glyph-name="V.smcp" horiz-adv-x="564" 
d="M300 0h-38l-227 558h54l192 -471l193 471h55z" />
    <glyph glyph-name="W.smcp" horiz-adv-x="808" 
d="M256 0h-35l-193 558h52l159 -454l146 454h37l146 -454l159 454h53l-194 -558h-34l-148 461z" />
    <glyph glyph-name="X.smcp" horiz-adv-x="552" 
d="M97 0h-57l203 289l-191 269h58l167 -233l166 233h57l-191 -270l205 -288h-60l-180 251z" />
    <glyph glyph-name="Y.smcp" horiz-adv-x="522" 
d="M287 233v-233h-52v233l-208 325h56l178 -277l178 277h56z" />
    <glyph glyph-name="Z.smcp" horiz-adv-x="542" 
d="M501 0h-458v33l385 477h-341v48h412v-35l-383 -476h385v-47z" />
    <glyph glyph-name="Agrave.smcp" 
d="M325 596h-39l-75 116h64zM86 0h-54l242 558h37l243 -558h-55l-62 145h-288zM293 478l-123 -286h246z" />
    <glyph glyph-name="Aacute.smcp" 
d="M299 596h-39l49 116h65zM86 0h-54l242 558h37l243 -558h-55l-62 145h-288zM293 478l-123 -286h246z" />
    <glyph glyph-name="Acircumflex.smcp" 
d="M223 615h-62l113 96h38l113 -96h-62l-70 62zM86 0h-54l242 558h37l243 -558h-55l-62 145h-288zM293 478l-123 -286h246z" />
    <glyph glyph-name="Atilde.smcp" 
d="M202 610l-32 2q4 30 23 49t46 19q24 0 55 -16t48 -16q33 0 40 34l33 -3q-7 -72 -71 -72q-25 0 -56 16t-47 16q-30 0 -39 -29zM86 0h-54l242 558h37l243 -558h-55l-62 145h-288zM293 478l-123 -286h246z" />
    <glyph glyph-name="Adieresis.smcp" 
d="M346 634q0 21 17 29.5t34.5 0t17.5 -29.5q1 -21 -16.5 -29.5t-35 0t-17.5 29.5zM171 634q0 21 17 29.5t34.5 0t17.5 -29.5q1 -21 -16.5 -29.5t-35 0t-17.5 29.5zM86 0h-54l242 558h37l243 -558h-55l-62 145h-288zM293 478l-123 -286h246z" />
    <glyph glyph-name="Amacron.smcp" 
d="M419 615h-251v46h251v-46zM86 0h-54l242 558h37l243 -558h-55l-62 145h-288zM293 478l-123 -286h246z" />
    <glyph glyph-name="Abreve.smcp" 
d="M173 703h45q19 -58 74 -58t74 58h46q-7 -45 -40.5 -73.5t-79.5 -28.5t-79.5 28.5t-39.5 73.5zM86 0h-54l242 558h37l243 -558h-55l-62 145h-288zM293 478l-123 -286h246z" />
    <glyph glyph-name="Aring.smcp" 
d="M310 537l244 -537h-53l-66 145h-284l-66 -145h-53l244 537q-24 6 -40 25.5t-16 43.5q0 29 21 50t52 21t52 -21t21 -50q0 -24 -16 -43.5t-40 -25.5zM256 606q0 -14 11 -24.5t26 -10.5t26 10.5t11 24.5q0 15 -11 25.5t-26 10.5t-26 -10.5t-11 -25.5zM293 463l-121 -271h242
z" />
    <glyph glyph-name="Aringacute.smcp" 
d="M318 710h-40l45 108h65zM310 537l244 -537h-53l-66 145h-284l-66 -145h-53l244 537q-24 6 -40 25.5t-16 43.5q0 29 21 50t52 21t52 -21t21 -50q0 -24 -16 -43.5t-40 -25.5zM256 606q0 -14 11 -24.5t26 -10.5t26 10.5t11 24.5q0 15 -11 25.5t-26 10.5t-26 -10.5t-11 -25.5
zM293 463l-121 -271h242z" />
    <glyph glyph-name="Aogonek.smcp" 
d="M86 0h-54l242 558h37l243 -558q-29 -12 -50 -34.5t-21 -44.5q0 -17 12.5 -27t30.5 -10q28 0 51 12l-9 -41q-25 -11 -50 -11q-33 0 -56 19.5t-23 48.5q0 52 61 85v2l-63 146h-288zM293 478l-123 -286h246z" />
    <glyph glyph-name="AE.smcp" horiz-adv-x="788" 
d="M66 0h-60l455 558h269v-47h-231v-193h215v-47h-215v-224h237v-47h-289v143h-264zM447 467l-226 -277h226v277z" />
    <glyph glyph-name="AEacute.smcp" horiz-adv-x="788" 
d="M477 596h-40l50 116h64zM66 0h-60l455 558h269v-47h-231v-193h215v-47h-215v-224h237v-47h-289v143h-264zM447 467l-226 -277h226v277z" />
    <glyph glyph-name="Cacute.smcp" horiz-adv-x="578" 
d="M344 596h-39l48 116h64zM332 568q64 0 120 -25t93 -69l-34 -31q-67 78 -179 78q-102 0 -169 -70q-68 -70 -68 -173q0 -102 68 -172q67 -69 169 -69q111 0 180 80l35 -32q-37 -44 -94 -69.5t-121 -25.5q-123 0 -206 82q-83 83 -83 206q0 124 83 207q85 83 206 83z" />
    <glyph glyph-name="Ccircumflex.smcp" horiz-adv-x="578" 
d="M264 615h-62l113 96h38l113 -96h-62l-70 62zM332 568q64 0 120 -25t93 -69l-34 -31q-67 78 -179 78q-102 0 -169 -70q-68 -70 -68 -173q0 -102 68 -172q67 -69 169 -69q111 0 180 80l35 -32q-37 -44 -94 -69.5t-121 -25.5q-123 0 -206 82q-83 83 -83 206q0 124 83 207
q85 83 206 83z" />
    <glyph glyph-name="Ccaron.smcp" horiz-adv-x="578" 
d="M466 712l-113 -96h-38l-113 96h62l70 -63l70 63h62zM332 568q64 0 120 -25t93 -69l-34 -31q-67 78 -179 78q-102 0 -169 -70q-68 -70 -68 -173q0 -102 68 -172q67 -69 169 -69q111 0 180 80l35 -32q-37 -44 -94 -69.5t-121 -25.5q-123 0 -206 82q-83 83 -83 206
q0 124 83 207q85 83 206 83z" />
    <glyph glyph-name="Cdotaccent.smcp" horiz-adv-x="578" 
d="M302 646q0 21 17 30t34 0t17 -30q1 -21 -16.5 -29.5t-35 0t-16.5 29.5zM332 568q64 0 120 -25t93 -69l-34 -31q-67 78 -179 78q-102 0 -169 -70q-68 -70 -68 -173q0 -102 68 -172q67 -69 169 -69q111 0 180 80l35 -32q-37 -44 -94 -69.5t-121 -25.5q-123 0 -206 82
q-83 83 -83 206q0 124 83 207q85 83 206 83z" />
    <glyph glyph-name="Ccedilla.smcp" horiz-adv-x="578" 
d="M237 -133l14 27q23 -15 45 -15q15 0 25 7.5t10 19.5q0 32 -50 32h-11l23 55q-110 14 -179 92q-71 80 -71 193q0 124 83 207q85 83 206 83q64 0 120 -25t93 -69l-34 -31q-67 78 -179 78q-102 0 -169 -70q-68 -70 -68 -173q0 -102 68 -172q67 -69 169 -69q111 0 180 80
l35 -32q-37 -44 -94 -69.5t-121 -25.5h-1l-13 -29h2q22 0 37.5 -15.5t15.5 -38.5q0 -60 -76 -60q-37 0 -60 20z" />
    <glyph glyph-name="Dcaron.smcp" horiz-adv-x="620" 
d="M428 712l-113 -96h-38l-113 96h62l70 -63l70 63h62zM268 0h-185v559h184q141 0 224 -78q83 -77 83 -203t-82 -202t-224 -76zM135 512v-465h129q122 0 190 62.5t68 168.5q0 109 -67.5 171.5t-191.5 62.5h-128z" />
    <glyph glyph-name="Dcroat.smcp" horiz-adv-x="617" 
d="M267 0h-184v263h-57v47h57v248h183q141 0 224 -77t83 -203t-82 -202t-224 -76zM135 263v-216h129q122 0 189.5 62.5t67.5 168.5q0 108 -67.5 170.5t-190.5 62.5h-128v-201h123v-47h-123z" />
    <glyph glyph-name="Egrave.smcp" horiz-adv-x="452" 
d="M276 596h-39l-75 116h64zM401 0h-318v558h312v-47h-260v-193h244v-47h-244v-224h266v-47z" />
    <glyph glyph-name="Eacute.smcp" horiz-adv-x="452" 
d="M248 596h-40l50 116h64zM401 0h-318v558h312v-47h-260v-193h244v-47h-244v-224h266v-47z" />
    <glyph glyph-name="Ecircumflex.smcp" horiz-adv-x="452" 
d="M169 615h-62l113 96h38l113 -96h-62l-70 62zM401 0h-318v558h312v-47h-260v-193h244v-47h-244v-224h266v-47z" />
    <glyph glyph-name="Ecaron.smcp" horiz-adv-x="452" 
d="M375 712l-113 -96h-38l-113 96h62l70 -63l70 63h62zM401 0h-318v558h312v-47h-260v-193h244v-47h-244v-224h266v-47z" />
    <glyph glyph-name="Edieresis.smcp" horiz-adv-x="452" 
d="M291 646q0 21 17.5 30t34.5 0t17 -30q1 -21 -16.5 -29.5t-35 0t-17.5 29.5zM121 646q0 21 17 30t34.5 0t17.5 -30q1 -21 -16.5 -29.5t-35 0t-17.5 29.5zM401 0h-318v558h312v-47h-260v-193h244v-47h-244v-224h266v-47z" />
    <glyph glyph-name="Emacron.smcp" horiz-adv-x="452" 
d="M366 615h-251v46h251v-46zM401 0h-318v558h312v-47h-260v-193h244v-47h-244v-224h266v-47z" />
    <glyph glyph-name="Ebreve.smcp" horiz-adv-x="452" 
d="M120 703h46q19 -58 74 -58t74 58h46q-7 -45 -40.5 -73.5t-79.5 -28.5t-79.5 27.5t-40.5 74.5zM401 0h-318v558h312v-47h-260v-193h244v-47h-244v-224h266v-47z" />
    <glyph glyph-name="Edotaccent.smcp" horiz-adv-x="452" 
d="M208 646q0 21 17 30t34.5 0t17.5 -30q1 -21 -16.5 -29.5t-35 0t-17.5 29.5zM401 0h-318v558h312v-47h-260v-193h244v-47h-244v-224h266v-47z" />
    <glyph glyph-name="Eogonek.smcp" horiz-adv-x="452" 
d="M355 0h-272v558h312v-47h-260v-193h244v-47h-244v-224h266v-47q-68 -38 -68 -79q0 -17 12.5 -27t31.5 -10q27 0 50 12l-8 -41q-27 -11 -50 -11q-34 0 -56.5 19t-22.5 49q0 56 65 88z" />
    <glyph glyph-name="Gcircumflex.smcp" horiz-adv-x="599" 
d="M263 615h-62l113 96h38l113 -96h-62l-70 62zM331 568q114 0 185 -67l-30 -35q-64 55 -155 55q-102 0 -169 -70q-68 -70 -68 -172q0 -106 67 -174q68 -69 170 -69q96 0 161 59v159h-176v47h228v-223q-84 -89 -213 -89q-121 0 -206 83q-83 83 -83 207q0 123 83 206
q85 83 206 83z" />
    <glyph glyph-name="Gbreve.smcp" horiz-adv-x="599" 
d="M211 703h46q16 -58 71 -58q53 0 72 58h46q-7 -45 -40 -73.5t-78 -28.5t-78 28.5t-39 73.5zM331 568q114 0 185 -67l-30 -35q-64 55 -155 55q-102 0 -169 -70q-68 -70 -68 -172q0 -106 67 -174q68 -69 170 -69q96 0 161 59v159h-176v47h228v-223q-84 -89 -213 -89
q-121 0 -206 83q-83 83 -83 207q0 123 83 206q85 83 206 83z" />
    <glyph glyph-name="Gdotaccent.smcp" horiz-adv-x="599" 
d="M298 646q0 21 17 30t34 0t17 -30q1 -21 -16.5 -29.5t-35 0t-16.5 29.5zM331 568q114 0 185 -67l-30 -35q-64 55 -155 55q-102 0 -169 -70q-68 -70 -68 -172q0 -106 67 -174q68 -69 170 -69q96 0 161 59v159h-176v47h228v-223q-84 -89 -213 -89q-121 0 -206 83
q-83 83 -83 207q0 123 83 206q85 83 206 83z" />
    <glyph glyph-name="Gcommaaccent.smcp" horiz-adv-x="599" 
d="M289 -154h-39l48 116h64zM331 568q114 0 185 -67l-30 -35q-64 55 -155 55q-102 0 -169 -70q-68 -70 -68 -172q0 -106 67 -174q68 -69 170 -69q96 0 161 59v159h-176v47h228v-223q-84 -89 -213 -89q-121 0 -206 83q-83 83 -83 207q0 123 83 206q85 83 206 83z" />
    <glyph glyph-name="Hcircumflex.smcp" horiz-adv-x="614" 
d="M135 0h-52v558h52v-238h344v238h51v-558h-51v273h-344v-273zM236 615h-62l113 96h38l113 -96h-62l-70 62z" />
    <glyph glyph-name="Hbar.smcp" horiz-adv-x="614" 
d="M135 0h-52v409h-51v45h51v104h52v-104h344v104h51v-104h50v-45h-50v-409h-51v273h-344v-273zM135 409v-89h344v89h-344z" />
    <glyph glyph-name="Igrave.smcp" horiz-adv-x="224" 
d="M133 596h-39l-75 116h65zM138 0h-52v558h52v-558z" />
    <glyph glyph-name="Iacute.smcp" horiz-adv-x="224" 
d="M129 596h-39l49 116h65zM138 0h-52v558h52v-558z" />
    <glyph glyph-name="Icircumflex.smcp" horiz-adv-x="224" 
d="M138 0h-52v558h52v-558zM44 615h-59l108 96h38l108 -96h-59l-68 62z" />
    <glyph glyph-name="Itilde.smcp" horiz-adv-x="224" 
d="M21 610l-32 2q3 30 21.5 49t47.5 19q24 0 55 -16t48 -16q31 0 40 34l33 -3q-10 -72 -71 -72q-25 0 -56 16t-47 16q-31 0 -39 -29zM138 0h-52v558h52v-558z" />
    <glyph glyph-name="Idieresis.smcp" horiz-adv-x="224" 
d="M148 646q0 21 17 30t34.5 0t17.5 -30t-17.5 -29.5t-35 0t-16.5 29.5zM7 646q0 21 17 30t34.5 0t17.5 -30q1 -21 -16.5 -29.5t-35 0t-17.5 29.5zM138 0h-52v558h52v-558z" />
    <glyph glyph-name="Imacron.smcp" horiz-adv-x="224" 
d="M226 615h-229v46h229v-46zM138 0h-52v558h52v-558z" />
    <glyph glyph-name="Ibreve.smcp" horiz-adv-x="224" 
d="M112 601q-47 0 -80.5 28t-39.5 74h46q19 -58 74 -58t74 58h45q-6 -45 -39.5 -73.5t-79.5 -28.5zM138 0h-52v558h52v-558z" />
    <glyph glyph-name="Idotaccent.smcp" horiz-adv-x="224" 
d="M77 646q0 21 17 30t34.5 0t17.5 -30q1 -21 -16.5 -29.5t-35 0t-17.5 29.5zM138 0h-52v558h52v-558z" />
    <glyph glyph-name="Iogonek.smcp" horiz-adv-x="224" 
d="M86 -3v1v560h52v-558q-28 -12 -49 -34.5t-21 -44.5q0 -17 12.5 -27t30.5 -10q27 0 51 12l-9 -41q-25 -11 -49 -11q-34 0 -56.5 19t-22.5 49q0 54 61 85z" />
    <glyph glyph-name="IJ.smcp" horiz-adv-x="431" 
d="M94 -1v48q44 -10 91 -10q66 1 87.5 37.5t20.5 104.5v379h52v-372q0 -87 -28 -139q-31 -58 -131 -58q-55 0 -92 10zM147 131h-52v427h52v-427z" />
    <glyph glyph-name="Jcircumflex.smcp" horiz-adv-x="294" 
d="M28 -3v49q21 -8 48 -8q47 0 65 26.5t18 83.5v410h52v-408q0 -69 -22 -112q-25 -48 -113 -48q-31 0 -48 7zM116 615h-59l107 96h39l107 -96h-59l-68 62z" />
    <glyph glyph-name="Kcommaaccent.smcp" horiz-adv-x="533" 
d="M245 -154h-40l51 116h64zM135 0h-52v558h52v-309l301 309h65l-236 -246l246 -312h-64l-218 277l-94 -96v-181z" />
    <glyph glyph-name="Lacute.smcp" horiz-adv-x="423" 
d="M132 596h-40l51 116h64zM386 0h-303v558h52v-511h251v-47z" />
    <glyph glyph-name="Lcaron.smcp" horiz-adv-x="423" 
d="M386 0h-303v558h52v-511h251v-47zM256 442h-39l49 116h65z" />
    <glyph glyph-name="Lcommaaccent.smcp" horiz-adv-x="423" 
d="M386 0h-303v558h52v-511h251v-47zM199 -154h-40l51 116h64z" />
    <glyph glyph-name="Ldot.smcp" horiz-adv-x="423" 
d="M386 0h-303v558h52v-511h251v-47zM233 299q0 21 17 29.5t34 0t17 -29.5q1 -21 -16.5 -29.5t-35 0t-16.5 29.5z" />
    <glyph glyph-name="Lslash.smcp" horiz-adv-x="422" 
d="M386 0h-303v233l-57 -30v50l57 30v275h52v-246l119 64v-50l-119 -64v-215h251v-47z" />
    <glyph glyph-name="Nacute.smcp" horiz-adv-x="633" 
d="M321 596h-40l50 116h65zM135 0h-52v558h46l369 -469v469h52v-558h-43l-372 472v-472z" />
    <glyph glyph-name="Ncaron.smcp" horiz-adv-x="633" 
d="M446 712l-113 -96h-38l-113 96h62l70 -63l70 63h62zM135 0h-52v558h46l369 -469v469h52v-558h-43l-372 472v-472z" />
    <glyph glyph-name="Ntilde.smcp" horiz-adv-x="633" 
d="M226 610l-33 2q4 31 22.5 49.5t47.5 18.5q24 0 55 -16t47 -16q33 0 40 34l33 -3q-7 -72 -71 -72q-25 0 -56 16t-47 16q-30 0 -38 -29zM135 0h-52v558h46l369 -469v469h52v-558h-43l-372 472v-472z" />
    <glyph glyph-name="Ncommaaccent.smcp" horiz-adv-x="633" 
d="M284 -154h-39l50 116h64zM135 0h-52v558h46l369 -469v469h52v-558h-43l-372 472v-472z" />
    <glyph glyph-name="Ograve.smcp" horiz-adv-x="663" 
d="M359 596h-40l-72 116h64zM42 278q0 124 84 207q85 83 205 83q121 0 206 -83q84 -83 84 -207q0 -125 -85 -207q-83 -82 -205 -82t-205 82q-84 83 -84 207zM94 278q0 -103 68 -173q68 -69 169 -69q103 0 170 69q68 70 68 173q0 104 -68 174q-67 69 -170 69t-170 -69
q-67 -68 -67 -174z" />
    <glyph glyph-name="Oacute.smcp" horiz-adv-x="663" 
d="M337 596h-40l48 116h64zM42 278q0 124 84 207q85 83 205 83q121 0 206 -83q84 -83 84 -207q0 -125 -85 -207q-83 -82 -205 -82t-205 82q-84 83 -84 207zM94 278q0 -103 68 -173q68 -69 169 -69q103 0 170 69q68 70 68 173q0 104 -68 174q-67 69 -170 69t-170 -69
q-67 -68 -67 -174z" />
    <glyph glyph-name="Ocircumflex.smcp" horiz-adv-x="663" 
d="M260 615h-62l112 96h39l113 -96h-62l-70 62zM42 278q0 124 84 207q85 83 205 83q121 0 206 -83q84 -83 84 -207q0 -125 -85 -207q-83 -82 -205 -82t-205 82q-84 83 -84 207zM94 278q0 -103 68 -173q68 -69 169 -69q103 0 170 69q68 70 68 173q0 104 -68 174
q-67 69 -170 69t-170 -69q-67 -68 -67 -174z" />
    <glyph glyph-name="Otilde.smcp" horiz-adv-x="663" 
d="M245 610l-33 2q4 30 22.5 49t45.5 19q24 0 53 -16q31 -16 46 -16q31 0 38 34l33 -3q-8 -72 -69 -72q-25 0 -54 16t-45 16q-29 0 -37 -29zM42 278q0 124 84 207q85 83 205 83q121 0 206 -83q84 -83 84 -207q0 -125 -85 -207q-83 -82 -205 -82t-205 82q-84 83 -84 207z
M94 278q0 -103 68 -173q68 -69 169 -69q103 0 170 69q68 70 68 173q0 104 -68 174q-67 69 -170 69t-170 -69q-67 -68 -67 -174z" />
    </font>
</defs>
</svg>
